<svg xmlns="http://www.w3.org/2000/svg" viewBox="0 0 50.06 43.27"><defs><style>.cls-1{fill:#d9d5f4;}.cls-2{fill:#4531cb;}.cls-3{fill:#0c0c0c;}</style></defs><title>Actuator</title><g id="Layer_2" data-name="Layer 2"><g id="Layer_1-2" data-name="Layer 1"><path class="cls-1" d="M22.49,39.78,13.37,24.87a2.3,2.3,0,0,0-3.91,0L.34,39.78a2.29,2.29,0,0,0,2,3.49H20.54A2.29,2.29,0,0,0,22.49,39.78Z"/><path class="cls-2" d="M5.38,13.65V28.54a5,5,0,0,0,5,5h3.68v3.21H11.64a2.21,2.21,0,1,0,0,4.42H36.09a2.21,2.21,0,0,0,0-4.42H33.67V33.52h7.45A1.9,1.9,0,0,0,43,31.63v-7H47.8a2.26,2.26,0,0,0,2.26-2.26V19.85a2.26,2.26,0,0,0-2.26-2.26H43v-7a1.9,1.9,0,0,0-1.9-1.9H30.52V6.52h1.11A2.54,2.54,0,0,0,34.17,4V2.53A2.54,2.54,0,0,0,31.63,0H23a2.53,2.53,0,0,0-2.53,2.53V4A2.53,2.53,0,0,0,23,6.52h1.11V8.66H10.37A5,5,0,0,0,5.38,13.65Zm37.64,5H47.8A1.19,1.19,0,0,1,49,19.85v2.49a1.2,1.2,0,0,1-1,1.19H43ZM23,5.46A1.47,1.47,0,0,1,21.48,4V2.53A1.46,1.46,0,0,1,23,1.07h8.68A1.46,1.46,0,0,1,33.1,2.53V4a1.47,1.47,0,0,1-1.46,1.47Zm6.51,1.06V8.66H25.13V6.52Zm7.45,3.21h4.21a.84.84,0,0,1,.84.83V31.63a.84.84,0,0,1-.84.83H36.91Zm-.82,28.05a1.16,1.16,0,0,1,0,2.31H11.64a1.15,1.15,0,0,1-1.16-1.15,1.17,1.17,0,0,1,1.15-1.16ZM30,36.73V33.52H32.6v3.21Zm-11.12,0V33.52H28.88v3.21Zm-3.72,0V33.52h2.65v3.21ZM12.55,9.85H35.84V32.46H12.55Zm-6.11,3.8a3.93,3.93,0,0,1,3.92-3.92h1.13V32.46H10.36a3.93,3.93,0,0,1-3.92-3.92Z"/><path class="cls-3" d="M15.05,14.38a2.07,2.07,0,0,0,2.06,2.07H31.29a2.07,2.07,0,0,0,0-4.13H17.11A2.06,2.06,0,0,0,15.05,14.38Zm1.05,0a1,1,0,0,1,1-1H31.29a1,1,0,0,1,0,2H17.11A1,1,0,0,1,16.1,14.38Z"/><path class="cls-3" d="M15.05,21.09a2.06,2.06,0,0,0,2.06,2.06H31.29a2.06,2.06,0,1,0,0-4.12H17.11A2.06,2.06,0,0,0,15.05,21.09Zm1.05,0a1,1,0,0,1,1-1H31.29a1,1,0,0,1,0,2H17.11A1,1,0,0,1,16.1,21.09Z"/><path class="cls-3" d="M15.05,27.79a2.07,2.07,0,0,0,2.06,2.07H31.29a2.07,2.07,0,0,0,0-4.13H17.11A2.06,2.06,0,0,0,15.05,27.79Zm1.05,0a1,1,0,0,1,1-1H31.29a1,1,0,0,1,0,2H17.11A1,1,0,0,1,16.1,27.79Z"/></g></g></svg>