<svg xmlns="http://www.w3.org/2000/svg" viewBox="0 0 58.1 41.56"><defs><style>.cls-1{fill:#d9d5f4;}.cls-2{fill:#4531cb;}.cls-3{fill:#0c0c0c;}</style></defs><title>Certificate</title><g id="Layer_2" data-name="Layer 2"><g id="Layer_1-2" data-name="Layer 1"><path class="cls-1" d="M22.49,37.15,13.37,22.24a2.29,2.29,0,0,0-3.91,0L.34,37.15a2.28,2.28,0,0,0,2,3.48H20.54A2.28,2.28,0,0,0,22.49,37.15Z"/><path class="cls-2" d="M54.22,0H14A3.88,3.88,0,0,0,10.1,3.88v29A3.88,3.88,0,0,0,14,36.73H38.26V40.9a.65.65,0,0,0,.41.61.66.66,0,0,0,.72-.14l2.75-2.75,2.76,2.75A.66.66,0,0,0,46,40.9V36.73h8.2a3.9,3.9,0,0,0,3.88-3.88v-29A3.9,3.9,0,0,0,54.22,0Zm-15,20.71a1.91,1.91,0,0,0-1.82-1.83.58.58,0,0,1-.45-.25.57.57,0,0,1-.07-.52,1.91,1.91,0,0,0-1-2.38.59.59,0,0,1-.32-.41.61.61,0,0,1,.14-.5,1.89,1.89,0,0,0,0-2.57.57.57,0,0,1,.19-.91,1.92,1.92,0,0,0,1-2.38.58.58,0,0,1,.06-.51.56.56,0,0,1,.45-.26,1.91,1.91,0,0,0,1.82-1.82.59.59,0,0,1,.26-.45A.56.56,0,0,1,40,5.86a1.89,1.89,0,0,0,2.37-1,.61.61,0,0,1,.41-.32.57.57,0,0,1,.5.14,1.91,1.91,0,0,0,2.58,0,.57.57,0,0,1,.5-.14.61.61,0,0,1,.41.32,1.89,1.89,0,0,0,2.37,1,.57.57,0,0,1,.52.06.55.55,0,0,1,.25.45,1.92,1.92,0,0,0,1.83,1.82.59.59,0,0,1,.45.26.55.55,0,0,1,.06.51,1.92,1.92,0,0,0,1,2.38.61.61,0,0,1,.32.41.6.6,0,0,1-.14.5,1.89,1.89,0,0,0,0,2.57.62.62,0,0,1,.14.5.59.59,0,0,1-.32.41,1.89,1.89,0,0,0-1,2.38.57.57,0,0,1-.06.52.58.58,0,0,1-.45.25,1.91,1.91,0,0,0-1.83,1.83.55.55,0,0,1-.25.45.6.6,0,0,1-.52.06,1.9,1.9,0,0,0-2.38,1,.57.57,0,0,1-.4.32h-.12a.58.58,0,0,1-.39-.15,1.89,1.89,0,0,0-2.57,0,.57.57,0,0,1-.5.14.59.59,0,0,1-.41-.33,1.89,1.89,0,0,0-2.38-1,.55.55,0,0,1-.51-.06A.59.59,0,0,1,39.21,20.71Zm5.49,18.6-2.09-2.09a.67.67,0,0,0-.93,0l-2.1,2.09V22.55h.16a1.73,1.73,0,0,0,.71-.11.57.57,0,0,1,.71.3,1.91,1.91,0,0,0,1.35,1.07,1.59,1.59,0,0,0,.43,0h.15v9a.65.65,0,0,0,.41.61.66.66,0,0,0,.72-.14l.48-.48Zm-.29-8V23.2h.15a.56.56,0,0,1,.39.15,1.89,1.89,0,0,0,1.65.47A1.86,1.86,0,0,0,48,22.75a.56.56,0,0,1,.72-.29,1.88,1.88,0,0,0,.71.1h.15v8.7l-2.09-2.09a.68.68,0,0,0-.94,0Zm12.37,1.59a2.56,2.56,0,0,1-2.56,2.56H46V31.52l.95-.95,2.76,2.75a.66.66,0,0,0,1.12-.47V21.79l0,0a1.79,1.79,0,0,0,.34-1,.57.57,0,0,1,.55-.55,1.9,1.9,0,0,0,1.71-2.55.57.57,0,0,1,.29-.72,1.88,1.88,0,0,0,.6-3,.58.58,0,0,1,0-.78,1.89,1.89,0,0,0-.6-3,.58.58,0,0,1-.3-.72,1.89,1.89,0,0,0-1.7-2.55.58.58,0,0,1-.55-.55,1.91,1.91,0,0,0-.84-1.5,1.89,1.89,0,0,0-1.71-.2.58.58,0,0,1-.72-.3A1.85,1.85,0,0,0,46.6,3.26,1.88,1.88,0,0,0,45,3.72a.58.58,0,0,1-.78,0,1.91,1.91,0,0,0-3,.6.57.57,0,0,1-.72.3,1.89,1.89,0,0,0-1.71.2,1.93,1.93,0,0,0-.84,1.5.56.56,0,0,1-.55.55,1.89,1.89,0,0,0-1.7,2.55.57.57,0,0,1-.3.72,1.9,1.9,0,0,0-.59,3,.58.58,0,0,1,0,.78,1.89,1.89,0,0,0,.59,3,.58.58,0,0,1,.3.72,1.89,1.89,0,0,0,1.7,2.55.58.58,0,0,1,.56.55,1.79,1.79,0,0,0,.34,1l0,0V35.41H14a2.56,2.56,0,0,1-2.55-2.56v-29A2.56,2.56,0,0,1,14,1.32H54.22a2.56,2.56,0,0,1,2.56,2.56Z"/><path class="cls-2" d="M33.29,6.44H18.8a3.9,3.9,0,0,0-3.88,3.88V26.41a3.9,3.9,0,0,0,3.88,3.88H34.1a.66.66,0,1,0,0-1.32H18.8a2.56,2.56,0,0,1-2.56-2.56V10.32A2.56,2.56,0,0,1,18.8,7.76H33.29a.66.66,0,0,0,0-1.32Z"/><path class="cls-3" d="M19.61,19H30.88a.66.66,0,0,0,0-1.32H19.61a.66.66,0,0,0,0,1.32Z"/><path class="cls-3" d="M19.61,15.81H30.88a.66.66,0,1,0,0-1.32H19.61a.66.66,0,0,0,0,1.32Z"/><path class="cls-3" d="M19.61,12.59H30.88a.66.66,0,1,0,0-1.32H19.61a.66.66,0,0,0,0,1.32Z"/><path class="cls-3" d="M19,26.68a.66.66,0,0,0,.61.39h0a.58.58,0,0,0,.26-.05,6.08,6.08,0,0,0,2-1.2,3.73,3.73,0,0,0,.54-.7l.1-.16.13.14a4,4,0,0,0,1,.84,2,2,0,0,0,1.77.23,1.61,1.61,0,0,0,.58-.39l.08-.08.1.06a3.74,3.74,0,0,0,1.14.46l.61.14a12,12,0,0,0,3.79.51.66.66,0,0,0,.54-.37.65.65,0,0,0,0-.66.66.66,0,0,0-.6-.29,11.2,11.2,0,0,1-3.39-.47l-.61-.15c-.82-.19-1-.53-1.12-.78a.68.68,0,0,0-.76-.41.67.67,0,0,0-.52.69.56.56,0,0,1-.25.5l-.06,0a.85.85,0,0,1-.63-.17A3.43,3.43,0,0,1,22.85,23a.66.66,0,0,0-1.27.28,2.25,2.25,0,0,1-.67,1.64,4.83,4.83,0,0,1-1.57.93.66.66,0,0,0-.34.87Z"/><path class="cls-2" d="M44.56,19.83a6.3,6.3,0,1,0-6.3-6.29A6.29,6.29,0,0,0,44.56,19.83Zm0-11.27a5,5,0,1,1-5,5A5,5,0,0,1,44.56,8.56Z"/></g></g></svg>