<svg xmlns="http://www.w3.org/2000/svg" viewBox="0 0 47.46 51.46"><defs><style>.cls-1{fill:#d9d5f4;}.cls-2{fill:#4531cb;}.cls-3{fill:#0c0c0c;}</style></defs><title>Config File</title><g id="Layer_2" data-name="Layer 2"><g id="Layer_1-2" data-name="Layer 1"><path class="cls-1" d="M22.49,48,13.37,33.07a2.29,2.29,0,0,0-3.91,0L.34,48a2.28,2.28,0,0,0,2,3.48H20.54A2.28,2.28,0,0,0,22.49,48Z"/><path class="cls-2" d="M37.64.76A3,3,0,0,0,35.73,0H13.23a2.79,2.79,0,0,0-2.79,2.79V45.21A2.79,2.79,0,0,0,13.23,48H44.66a2.8,2.8,0,0,0,2.8-2.79v-34a2.88,2.88,0,0,0-.88-2Zm-.92.53a1.6,1.6,0,0,1,.25.18l8.86,8.36H36.92a.19.19,0,0,1-.2-.19Zm9.76,43.92A1.82,1.82,0,0,1,44.66,47H13.23a1.81,1.81,0,0,1-1.81-1.81V2.79A1.81,1.81,0,0,1,13.23,1H35.74V9.64a1.18,1.18,0,0,0,1.18,1.18h9.5a1.84,1.84,0,0,1,.06.41Z"/><path class="cls-2" d="M39.66,30.3l-1.77-.36a10.25,10.25,0,0,0-.84-2l1-1.49A1.15,1.15,0,0,0,37.9,25l-1.55-1.55a1.16,1.16,0,0,0-1.44-.15l-1.51,1a9.65,9.65,0,0,0-2-.83L31,21.68a1.14,1.14,0,0,0-1.12-.93H27.7a1.15,1.15,0,0,0-1.12.93l-.35,1.77a8.87,8.87,0,0,0-2,.83l-1.53-1a1.15,1.15,0,0,0-1.43.15L19.7,25a1.17,1.17,0,0,0-.14,1.43l1,1.51a10.36,10.36,0,0,0-.83,2L18,30.3A1.14,1.14,0,0,0,17,31.42v2.21A1.13,1.13,0,0,0,18,34.74l1.77.36a9.37,9.37,0,0,0,.84,2l-1,1.5a1.14,1.14,0,0,0,.13,1.44l1.55,1.56a1.15,1.15,0,0,0,1.43.14l1.53-1a8.43,8.43,0,0,0,2,.83l.35,1.78a1.15,1.15,0,0,0,1.12.92h2.21A1.14,1.14,0,0,0,31,43.37l.35-1.78a8.51,8.51,0,0,0,2-.83l1.51,1a1.16,1.16,0,0,0,1.43-.15l1.56-1.55a1.13,1.13,0,0,0,.15-1.45l-1-1.51a9.92,9.92,0,0,0,.84-2l1.76-.35a1.15,1.15,0,0,0,.92-1.12V31.42A1.14,1.14,0,0,0,39.66,30.3Zm-.2,3.48-2.06.42a.49.49,0,0,0-.37.35,9.42,9.42,0,0,1-1,2.33.49.49,0,0,0,0,.52l1.16,1.76a.16.16,0,0,1,0,.21l-1.56,1.55a.17.17,0,0,1-.2,0l-1.77-1.17a.49.49,0,0,0-.53,0,7.61,7.61,0,0,1-2.3,1,.51.51,0,0,0-.37.38l-.42,2.09a.16.16,0,0,1-.16.13H27.7a.16.16,0,0,1-.16-.14l-.41-2.08a.51.51,0,0,0-.37-.38,8,8,0,0,1-2.31-.94.44.44,0,0,0-.25-.08.53.53,0,0,0-.27.08l-1.77,1.17a.18.18,0,0,1-.21,0L20.4,39.37a.16.16,0,0,1,0-.21l1.15-1.76a.47.47,0,0,0,0-.52,8.37,8.37,0,0,1-1-2.32.51.51,0,0,0-.38-.36l-2.08-.42a.17.17,0,0,1-.13-.16v-2.2a.16.16,0,0,1,.14-.16l2.07-.42a.51.51,0,0,0,.38-.36,9,9,0,0,1,1-2.34.49.49,0,0,0,0-.52l-1.15-1.75a.17.17,0,0,1,0-.2L22,24.12a.17.17,0,0,1,.21,0l1.77,1.16a.49.49,0,0,0,.52,0,8.34,8.34,0,0,1,2.31-.95.48.48,0,0,0,.37-.38l.4-2.07a.18.18,0,0,1,.17-.14h2.2a.16.16,0,0,1,.16.13l.42,2.08a.48.48,0,0,0,.37.38,7.9,7.9,0,0,1,2.3,1,.51.51,0,0,0,.53,0l1.76-1.17a.17.17,0,0,1,.21,0l1.56,1.55a.16.16,0,0,1,0,.21l-1.16,1.75a.49.49,0,0,0,0,.52,8.84,8.84,0,0,1,1,2.33.51.51,0,0,0,.38.36l2.06.42h0a.15.15,0,0,1,.13.16v2.21h0A.15.15,0,0,1,39.46,33.78Z"/><path class="cls-3" d="M28.8,27.84a4.68,4.68,0,1,0,4.68,4.67A4.68,4.68,0,0,0,28.8,27.84Zm0,8.38a3.7,3.7,0,1,1,3.7-3.71A3.71,3.71,0,0,1,28.8,36.22Z"/><path class="cls-3" d="M17.16,7.94H31a.49.49,0,1,0,0-1H17.16a.49.49,0,0,0,0,1Z"/><path class="cls-3" d="M17.16,12.44H31a.49.49,0,0,0,0-1H17.16a.49.49,0,0,0,0,1Z"/><path class="cls-3" d="M40.73,16H17.16a.49.49,0,0,0,0,1H40.73a.49.49,0,1,0,0-1Z"/></g></g></svg>