<svg xmlns="http://www.w3.org/2000/svg" viewBox="0 0 53.18 45.5"><defs><style>.cls-1{fill:#d9d5f4;}.cls-2{fill:#4531cb;}</style></defs><title>Edge Device</title><g id="Layer_2" data-name="Layer 2"><g id="Layer_1-2" data-name="Layer 1"><path class="cls-1" d="M22.49,42,13.37,27.1a2.3,2.3,0,0,0-3.91,0L.34,42a2.29,2.29,0,0,0,2,3.49H20.54A2.29,2.29,0,0,0,22.49,42Z"/><path class="cls-2" d="M16.22,3a2.1,2.1,0,1,0,2.1,2.1A2.11,2.11,0,0,0,16.22,3Zm.87,2.1a.87.87,0,1,1-.87-.87A.87.87,0,0,1,17.09,5.07Z"/><path class="cls-2" d="M45.89,7.17a2.1,2.1,0,1,0-2.1-2.1A2.12,2.12,0,0,0,45.89,7.17ZM45,5.07a.87.87,0,1,1,.87.86A.87.87,0,0,1,45,5.07Z"/><path class="cls-2" d="M16.22,34.11a2.1,2.1,0,1,0,2.1,2.1A2.11,2.11,0,0,0,16.22,34.11Zm.87,2.1a.87.87,0,1,1-.87-.87A.87.87,0,0,1,17.09,36.21Z"/><path class="cls-2" d="M45.89,38.31a2.1,2.1,0,1,0-2.1-2.1A2.11,2.11,0,0,0,45.89,38.31ZM45,36.21a.87.87,0,1,1,.87.87A.87.87,0,0,1,45,36.21Z"/><path class="cls-2" d="M35.5,14.83H26.61a1.36,1.36,0,0,0-1.36,1.36v8.9a1.36,1.36,0,0,0,1.36,1.36H35.5a1.36,1.36,0,0,0,1.36-1.36v-8.9A1.36,1.36,0,0,0,35.5,14.83Zm.13,10.38H26.48V16.06h9.15Z"/><path class="cls-2" d="M22.16,2.59l-.11-.06a.61.61,0,0,0-.15,0,.75.75,0,0,0-.69.2.74.74,0,0,0-.21.53.63.63,0,0,0,.06.27.64.64,0,0,0,.15.25h0a1,1,0,0,0,.24.15.88.88,0,0,0,.29.06A1.18,1.18,0,0,0,22,3.89a.91.91,0,0,0,.27-.18,1.27,1.27,0,0,0,.13-.22.72.72,0,0,0,.06-.29.77.77,0,0,0-.22-.53Z"/><path class="cls-2" d="M22.43,6.67a.59.59,0,0,0-.08-.16.48.48,0,0,0-.1-.12.79.79,0,0,0-1.06,0l-.07.08-.05.11a.82.82,0,0,0-.06.16.71.71,0,0,0,0,.15.67.67,0,0,0,.06.28,1,1,0,0,0,.15.24h0a.61.61,0,0,0,.24.15.68.68,0,0,0,.29.06.75.75,0,0,0,.26,0,.72.72,0,0,0,.41-.39.81.81,0,0,0,.06-.31.57.57,0,0,0,0-.13A.34.34,0,0,0,22.43,6.67Z"/><path class="cls-2" d="M24.93,3.73h0a1,1,0,0,0,.24.15.94.94,0,0,0,.3.06A.76.76,0,0,0,26,3.73a1.2,1.2,0,0,0,.15-.24.72.72,0,0,0,.06-.29.74.74,0,0,0-.74-.74.75.75,0,0,0-.75.74.68.68,0,0,0,.06.29A.87.87,0,0,0,24.93,3.73Z"/><path class="cls-2" d="M25.74,7.62a.77.77,0,0,0,.47-.7A.74.74,0,0,0,26,6.4a.78.78,0,0,0-1.06,0,.74.74,0,0,0-.21.52.67.67,0,0,0,.06.28,1,1,0,0,0,.15.24h0a.65.65,0,0,0,.23.15.72.72,0,0,0,.29.06A.81.81,0,0,0,25.74,7.62Z"/><path class="cls-2" d="M28.66,3.72v0a1,1,0,0,0,.24.15A.88.88,0,0,0,29.2,4a.74.74,0,0,0,.52-.22.87.87,0,0,0,.15-.24.72.72,0,0,0,.06-.29.79.79,0,0,0-.22-.53.35.35,0,0,0-.11-.08.27.27,0,0,0-.1-.06l-.15,0a.75.75,0,0,0-.69.2.78.78,0,0,0-.21.53.74.74,0,0,0,.05.29A1.53,1.53,0,0,0,28.66,3.72Z"/><path class="cls-2" d="M28.66,7.45h0a.79.79,0,0,0,.24.15.72.72,0,0,0,.29.06.75.75,0,0,0,.26,0,.72.72,0,0,0,.41-.39.85.85,0,0,0,.06-.31.53.53,0,0,0,0-.16l0-.12a.91.91,0,0,0-.07-.14l-.1-.11-.1-.08-.1,0a.29.29,0,0,0-.15,0,.63.63,0,0,0-.43,0,1.24,1.24,0,0,0-.27.17.75.75,0,0,0-.2.52.71.71,0,0,0,.05.29A1.38,1.38,0,0,0,28.66,7.45Z"/><path class="cls-2" d="M32.39,3.73h0a.78.78,0,0,0,.53.21.75.75,0,0,0,.53-.22,1,1,0,0,0,.15-.25.64.64,0,0,0,.06-.28.75.75,0,0,0-.22-.53.74.74,0,0,0-.53-.21.73.73,0,0,0-.52.22.73.73,0,0,0-.21.52.75.75,0,0,0,.06.29A.61.61,0,0,0,32.39,3.73Z"/><path class="cls-2" d="M32.39,7.45h0a.65.65,0,0,0,.23.15.72.72,0,0,0,.29.06.74.74,0,0,0,.52-.22.74.74,0,0,0,0-1l-.11-.1-.1,0a.54.54,0,0,0-.16-.06.76.76,0,0,0-.68.21.57.57,0,0,0-.1.11l0,.1a.67.67,0,0,0-.06.31.92.92,0,0,0,0,.28A.78.78,0,0,0,32.39,7.45Z"/><path class="cls-2" d="M36.12,2.68a.73.73,0,0,0-.22.52.88.88,0,0,0,.05.29.81.81,0,0,0,.17.24.72.72,0,0,0,.49.22h.07a.73.73,0,0,0,.24-.07,1.06,1.06,0,0,0,.27-.18,1.28,1.28,0,0,0,.14-.23,1.27,1.27,0,0,0,.06-.28.84.84,0,0,0-.22-.53A.77.77,0,0,0,36.12,2.68Z"/><path class="cls-2" d="M36.11,6.41a.74.74,0,0,0-.21.52.67.67,0,0,0,.06.28,1,1,0,0,0,.15.24h0a.79.79,0,0,0,.24.15.68.68,0,0,0,.29.06.71.71,0,0,0,.26,0,.68.68,0,0,0,.41-.4,1.09,1.09,0,0,0,.07-.3.75.75,0,0,0-1.28-.51Z"/><path class="cls-2" d="M40.37,2.46a.74.74,0,0,0-.74.75.63.63,0,0,0,.06.27.73.73,0,0,0,.15.25h0a.74.74,0,0,0,.52.21.75.75,0,0,0,.53-.22.87.87,0,0,0,.15-.24.72.72,0,0,0,.06-.29A.74.74,0,0,0,40.37,2.46Z"/><path class="cls-2" d="M41.06,6.67A.91.91,0,0,0,41,6.5l-.09-.11-.1-.08-.1,0a.47.47,0,0,0-.16,0,.58.58,0,0,0-.29,0l-.12,0L40,6.31l-.12.1a.77.77,0,0,0-.2.52.58.58,0,0,0,0,.29.89.89,0,0,0,.17.24.61.61,0,0,0,.24.15.71.71,0,0,0,.28.06.86.86,0,0,0,.27,0,.77.77,0,0,0,.47-.7,1,1,0,0,0,0-.15A.19.19,0,0,0,41.06,6.67Z"/><path class="cls-2" d="M51.82,11.12H51v-9A2.1,2.1,0,0,0,48.85,0H13.26a2.1,2.1,0,0,0-2.1,2.1V14.83h-.87a1.36,1.36,0,0,0-1.36,1.36v8.9a1.36,1.36,0,0,0,1.36,1.36h.87V39.18a2.11,2.11,0,0,0,2.1,2.1H20.8v.86a1.36,1.36,0,0,0,1.36,1.36h7.41a1.36,1.36,0,0,0,1.36-1.36v-.86h1.73v.86a2.11,2.11,0,0,0,2.1,2.1h4.45a2.1,2.1,0,0,0,2.1-2.1v-.86h7.54a2.11,2.11,0,0,0,2.1-2.1V22h.87a1.36,1.36,0,0,0,1.36-1.36V12.48A1.37,1.37,0,0,0,51.82,11.12ZM52,20.76H42.79v-8.4h9.15ZM40,28.18H34a1.36,1.36,0,0,0-1.36,1.36V40H30.93V34.73a1.36,1.36,0,0,0-1.36-1.36H22.16a1.36,1.36,0,0,0-1.36,1.36V40H13.26a.86.86,0,0,1-.87-.86V26.45h1.73v3.09a.61.61,0,0,0,.62.61h5.19a.61.61,0,0,0,.62-.61.62.62,0,0,0-.62-.62H18.32V27.19h1.61a.62.62,0,0,0,.62-.62.61.61,0,0,0-.62-.61H18.32V24.22h1.61a.61.61,0,0,0,.62-.61.62.62,0,0,0-.62-.62H18.32V21.26h1.61a.62.62,0,0,0,0-1.24H18.32V18.29h1.61a.62.62,0,0,0,.62-.62.61.61,0,0,0-.62-.61H18.32V15.32h1.61a.61.61,0,0,0,.62-.61.62.62,0,0,0-.62-.62H18.32V12.36h1.61a.62.62,0,1,0,0-1.24H14.74a.62.62,0,0,0-.62.62v3.09H12.39V2.1a.87.87,0,0,1,.87-.87H48.85a.87.87,0,0,1,.87.87v9h-6.8a1.37,1.37,0,0,0-1.36,1.36v8.16A1.36,1.36,0,0,0,42.92,22h6.8V39.18a.86.86,0,0,1-.87.86H41.31V29.54A1.36,1.36,0,0,0,40,28.18ZM17.09,12.36V28.92H15.36V12.36Zm-3,3.7v9.15H10.17V16.06ZM29.7,42.27H22V34.6H29.7ZM37,33.37a.62.62,0,0,0-.62.62v3.09H33.9V29.41h6.18v7.67H37.6V34A.61.61,0,0,0,37,33.37ZM33.9,38.31h6.18v3.83a.87.87,0,0,1-.87.87H34.76a.86.86,0,0,1-.86-.87Z"/><path class="cls-2" d="M24.38,39.79a.61.61,0,0,0,.62-.61V37.69a.62.62,0,0,0-1.24,0v1.49A.61.61,0,0,0,24.38,39.79Z"/><path class="cls-2" d="M27.35,39.79a.61.61,0,0,0,.61-.61V37.69a.61.61,0,0,0-.61-.61.61.61,0,0,0-.62.61v1.49A.61.61,0,0,0,27.35,39.79Z"/><path class="cls-2" d="M45.14,15.32h3a.61.61,0,0,0,.62-.61.62.62,0,0,0-.62-.62h-3a.61.61,0,0,0-.61.62A.61.61,0,0,0,45.14,15.32Z"/><path class="cls-2" d="M45.14,19h3a.62.62,0,0,0,.62-.62.61.61,0,0,0-.62-.61h-3a.61.61,0,0,0-.61.61A.61.61,0,0,0,45.14,19Z"/></g></g></svg>