<svg xmlns="http://www.w3.org/2000/svg" viewBox="0 0 47.48 49.71"><defs><style>.cls-1{fill:#d9d5f4;}.cls-2{fill:#4531cb;}.cls-3{fill:#0c0c0c;}</style></defs><title>Fun-fact</title><g id="Layer_2" data-name="Layer 2"><g id="Layer_1-2" data-name="Layer 1"><path class="cls-1" d="M25.73,46.23,16.6,31.31a2.29,2.29,0,0,0-3.9,0L3.58,46.23a2.29,2.29,0,0,0,2,3.48H23.78A2.29,2.29,0,0,0,25.73,46.23Z"/><path class="cls-2" d="M18,44.12c0,2.18,1.43,3.36,2.76,3.36h6a2.82,2.82,0,0,0,2.75-2.76v-4.6a7.52,7.52,0,0,1,2.89-5.78,13.17,13.17,0,0,0,5.11-10.6,14,14,0,0,0-4.13-9.82A13.75,13.75,0,0,0,23.54,10,13.94,13.94,0,0,0,10,23.55a13.63,13.63,0,0,0,5.3,11A7.09,7.09,0,0,1,18,39.92Zm10,.6A1.19,1.19,0,0,1,26.74,46h-6c-.82,0-1.24-.62-1.24-1.84V41.48H28ZM16.19,33.32a11.91,11.91,0,0,1-4.68-9.78,12.56,12.56,0,0,1,12.23-12A12,12,0,0,1,32.3,15,12.17,12.17,0,0,1,36,23.74a11.83,11.83,0,0,1-4.49,9.38A9.56,9.56,0,0,0,28,39.74V40H19.5v-.23A8.53,8.53,0,0,0,16.19,33.32Z"/><path class="cls-3" d="M24.5,4.76v-4A.76.76,0,1,0,23,.76v4a.76.76,0,1,0,1.52,0Z"/><path class="cls-2" d="M39.82,6.89a.75.75,0,0,0-.52.23l-2.8,2.8a.72.72,0,0,0,0,1.06c.13.13.48.13.63.13a1.68,1.68,0,0,0,.46-.16l2.76-2.77a.74.74,0,0,0,.23-.53.79.79,0,0,0-.76-.76Z"/><path class="cls-3" d="M46.72,23h-4a.76.76,0,1,0,0,1.52h4a.76.76,0,0,0,0-1.52Z"/><path class="cls-2" d="M39.3,40.55c.12.13.48.13.62.13h.37v0l.06-.09a.72.72,0,0,0,.23-.53.75.75,0,0,0-.23-.53L37.56,36.7a.75.75,0,0,0-.53-.23.79.79,0,0,0-.76.76.75.75,0,0,0,.23.53Z"/><path class="cls-2" d="M7.55,40.68c.2,0,.31,0,.43-.13l2.8-2.79a.75.75,0,0,0,.23-.53.74.74,0,0,0-.23-.53.72.72,0,0,0-1.06,0l-2.8,2.79a.8.8,0,0,0-.23.53.76.76,0,0,0,.23.53C7.05,40.68,7.4,40.68,7.55,40.68Z"/><path class="cls-3" d="M4.76,24.5a.76.76,0,0,0,0-1.52h-4a.76.76,0,0,0,0,1.52Z"/><path class="cls-2" d="M10.35,11.11c.1,0,.3-.2.43-.33a.73.73,0,0,0,0-1.06L8,6.92a.73.73,0,0,0-1.06,0A.74.74,0,0,0,6.92,8l2.8,3C9.85,11.11,10.2,11.11,10.35,11.11Z"/><path class="cls-3" d="M23.74,16.51A7.33,7.33,0,0,1,31,23.74a.76.76,0,0,0,1.52,0A8.75,8.75,0,0,0,23.74,15a.76.76,0,0,0,0,1.52Z"/></g></g></svg>