<svg xmlns="http://www.w3.org/2000/svg" viewBox="0 0 52.16 47.72"><defs><style>.cls-1{fill:#d9d5f4;}.cls-2{fill:#4531cb;}.cls-3{fill:#0c0c0c;}</style></defs><title>Hardware</title><g id="Layer_2" data-name="Layer 2"><g id="Layer_1-2" data-name="Layer 1"><path class="cls-1" d="M22.49,44.24,13.37,29.33a2.29,2.29,0,0,0-3.91,0L.34,44.24a2.29,2.29,0,0,0,2,3.48H20.54A2.29,2.29,0,0,0,22.49,44.24Z"/><path class="cls-2" d="M46.48,44.44H13.16a.25.25,0,0,1-.25-.25V42.71a.25.25,0,0,1,.25-.25H25A.49.49,0,0,0,25.5,42V33.08a.49.49,0,0,0-.49-.49H17.6a.49.49,0,0,0,0,1h6.67a.25.25,0,0,1,.25.25V35.3a.25.25,0,0,1-.25.25H8a.25.25,0,0,1-.25-.25V33.82A.25.25,0,0,1,8,33.57h6.67a.49.49,0,0,0,0-1H13.16a.25.25,0,0,1-.25-.25V22.71a.25.25,0,0,1,.25-.25h1.48a.49.49,0,0,0,.49-.49V14.56a.49.49,0,0,0-.49-.49H13.16a.25.25,0,0,1-.25-.25V12.34a.25.25,0,0,1,.25-.25h1.48a.49.49,0,0,0,.49-.49V4.19a.49.49,0,0,0-.49-.49H13.16a.25.25,0,0,1-.25-.25V1.23A.25.25,0,0,1,13.16,1h1.48a.49.49,0,1,0,0-1H12.42a.5.5,0,0,0-.5.49v3a.25.25,0,0,1-.25.25H10.19a.49.49,0,0,0-.49.49v.74a.25.25,0,0,1-.25.25H7.23a.49.49,0,0,0-.49.49v4.45a.49.49,0,0,0,.49.49H9.45a.25.25,0,0,1,.25.25v.74a.49.49,0,0,0,.49.49h1.48a.25.25,0,0,1,.25.25v1.48a.25.25,0,0,1-.25.25H10.19a.49.49,0,0,0-.49.49v.74a.25.25,0,0,1-.25.25H7.23a.49.49,0,0,0-.49.49v4.45a.49.49,0,0,0,.49.49H9.45a.25.25,0,0,1,.25.25V22a.49.49,0,0,0,.49.49h1.48a.25.25,0,0,1,.25.25v9.63a.25.25,0,0,1-.25.25H7.23a.49.49,0,0,0-.49.49V42a.49.49,0,0,0,.49.49h4.44a.25.25,0,0,1,.25.25v2.22a.5.5,0,0,0,.5.49H46.48a.49.49,0,0,0,0-1ZM9.7,9.38a.25.25,0,0,1-.25.25H8a.25.25,0,0,1-.25-.25v-3A.25.25,0,0,1,8,6.17H9.45a.25.25,0,0,1,.25.25Zm0,10.37a.25.25,0,0,1-.25.25H8a.25.25,0,0,1-.25-.25v-3A.25.25,0,0,1,8,16.53H9.45a.25.25,0,0,1,.25.25Zm1.23-8.64a.25.25,0,0,1-.25-.25V4.93a.26.26,0,0,1,.25-.25h3a.25.25,0,0,1,.25.25v5.93a.25.25,0,0,1-.25.25Zm0,10.37a.25.25,0,0,1-.25-.25V15.3a.26.26,0,0,1,.25-.25h3a.25.25,0,0,1,.25.25v5.93a.25.25,0,0,1-.25.25ZM7.72,36.78A.25.25,0,0,1,8,36.53h16.3a.25.25,0,0,1,.25.25v1.48a.25.25,0,0,1-.25.25H8a.25.25,0,0,1-.25-.25ZM8,41.47a.25.25,0,0,1-.25-.25V39.74A.25.25,0,0,1,8,39.49h16.3a.26.26,0,0,1,.25.25v1.48a.25.25,0,0,1-.25.25Z"/><path class="cls-2" d="M51.67,0H17.6a.49.49,0,0,0,0,1H50.93a.25.25,0,0,1,.25.25v43a.25.25,0,0,1-.25.25H49.45a.49.49,0,1,0,0,1h2.22a.49.49,0,0,0,.49-.49V.49A.49.49,0,0,0,51.67,0Z"/><path class="cls-3" d="M20.81,15.3v1.48a.25.25,0,0,1-.25.25H19.08a.5.5,0,0,0,0,1h1.48a.25.25,0,0,1,.25.25v2.22a.49.49,0,0,0,.49.49h2.23a.25.25,0,0,1,.25.25v1.48a.48.48,0,0,0,.49.49.49.49,0,0,0,.49-.49V21.23A.25.25,0,0,1,25,21h1.48a.25.25,0,0,1,.25.25v1.48a.49.49,0,0,0,1,0V21.23A.25.25,0,0,1,28,21h1.48a.25.25,0,0,1,.25.25v1.48a.49.49,0,0,0,1,0V21.23a.25.25,0,0,1,.25-.25h1.48a.25.25,0,0,1,.25.25v1.48a.49.49,0,1,0,1,0V21.23a.25.25,0,0,1,.25-.25h2.23a.49.49,0,0,0,.49-.49V18.27a.25.25,0,0,1,.25-.25h1.48a.5.5,0,0,0,0-1H36.86a.25.25,0,0,1-.25-.25V15.3a.25.25,0,0,1,.25-.25h1.48a.49.49,0,1,0,0-1H36.86a.25.25,0,0,1-.25-.25V12.34a.25.25,0,0,1,.25-.25h1.48a.49.49,0,1,0,0-1H36.86a.25.25,0,0,1-.25-.25V9.38a.25.25,0,0,1,.25-.25h1.48a.49.49,0,1,0,0-1H36.86a.25.25,0,0,1-.25-.25V5.67a.49.49,0,0,0-.49-.49H33.89a.25.25,0,0,1-.25-.25V3.45a.49.49,0,1,0-1,0V4.93a.25.25,0,0,1-.25.25H30.93a.25.25,0,0,1-.25-.25V3.45a.49.49,0,0,0-1,0V4.93a.25.25,0,0,1-.25.25H28a.25.25,0,0,1-.25-.25V3.45a.49.49,0,0,0-1,0V4.93a.25.25,0,0,1-.25.25H25a.25.25,0,0,1-.25-.25V3.45A.49.49,0,0,0,24.27,3a.48.48,0,0,0-.49.49V4.93a.25.25,0,0,1-.25.25H21.3a.49.49,0,0,0-.49.49V7.9a.25.25,0,0,1-.25.25H19.08a.49.49,0,0,0,0,1h1.48a.25.25,0,0,1,.25.25v1.48a.25.25,0,0,1-.25.25H19.08a.49.49,0,0,0,0,1h1.48a.25.25,0,0,1,.25.25v1.48a.25.25,0,0,1-.25.25H19.08a.49.49,0,0,0,0,1h1.48A.25.25,0,0,1,20.81,15.3Zm1-8.88A.25.25,0,0,1,22,6.17H35.37a.25.25,0,0,1,.25.25V19.75a.25.25,0,0,1-.25.25H22a.26.26,0,0,1-.25-.25Z"/><path class="cls-3" d="M31.67,9.63H30.19a.49.49,0,0,0,0,1h.74a.25.25,0,0,1,.25.25V15.3a.25.25,0,0,1-.25.25H26.49a.25.25,0,0,1-.25-.25V10.86a.25.25,0,0,1,.25-.25h.74a.49.49,0,1,0,0-1H25.75a.49.49,0,0,0-.49.49V16a.49.49,0,0,0,.49.49h5.92a.49.49,0,0,0,.49-.49V10.12A.49.49,0,0,0,31.67,9.63Z"/><path class="cls-2" d="M40.56,21.72H42a.25.25,0,0,1,.25.25V41.22a.25.25,0,0,1-.25.25H40.56a.25.25,0,0,1-.25-.25V26.41a.49.49,0,1,0-1,0V42a.49.49,0,0,0,.49.49h3a.49.49,0,0,0,.49-.49V21.23a.49.49,0,0,0-.49-.49h-3a.49.49,0,0,0-.49.49v2.22a.49.49,0,1,0,1,0V22A.25.25,0,0,1,40.56,21.72Z"/><path class="cls-2" d="M45.74,42.46h3A.49.49,0,0,0,49.2,42V21.23a.49.49,0,0,0-.49-.49h-3a.49.49,0,0,0-.49.49V42A.49.49,0,0,0,45.74,42.46ZM46.23,22a.25.25,0,0,1,.25-.25H48a.25.25,0,0,1,.25.25V41.22a.25.25,0,0,1-.25.25H46.48a.25.25,0,0,1-.25-.25Z"/><path class="cls-2" d="M42.78,3h-3a.49.49,0,0,0-.49.49v3a.49.49,0,0,0,.49.49h3a.49.49,0,0,0,.49-.49v-3A.49.49,0,0,0,42.78,3Zm-.49,2.71a.25.25,0,0,1-.25.25H40.56a.25.25,0,0,1-.25-.25V4.19a.25.25,0,0,1,.25-.25H42a.25.25,0,0,1,.25.25Z"/><path class="cls-2" d="M45.74,6.91h3a.49.49,0,0,0,.49-.49v-3A.49.49,0,0,0,48.71,3h-3a.49.49,0,0,0-.49.49v3A.49.49,0,0,0,45.74,6.91Zm.49-2.72a.26.26,0,0,1,.25-.25H48a.26.26,0,0,1,.25.25V5.67a.25.25,0,0,1-.25.25H46.48a.25.25,0,0,1-.25-.25Z"/><path class="cls-2" d="M47.22,12.83a2,2,0,1,0-2-2A2,2,0,0,0,47.22,12.83Zm0-3a1,1,0,1,1-1,1A1,1,0,0,1,47.22,9.87Z"/><path class="cls-2" d="M47.22,18.76a2,2,0,1,0,0-4,.49.49,0,0,0,0,1,1,1,0,1,1-1,1,.49.49,0,1,0-1,0A2,2,0,0,0,47.22,18.76Z"/><path class="cls-2" d="M16.86,28.88H15.38a.5.5,0,0,0,0,1h1.48a.5.5,0,0,0,0-1Z"/><path class="cls-2" d="M16.86,25.92H15.38a.49.49,0,1,0,0,1h1.48a.49.49,0,1,0,0-1Z"/><path class="cls-2" d="M21.3,25.92H19.82a.49.49,0,0,0,0,1H21.3a.49.49,0,0,0,0-1Z"/><path class="cls-2" d="M21.3,28.88H19.82a.5.5,0,0,0,0,1H21.3a.5.5,0,0,0,0-1Z"/><path class="cls-2" d="M30.93,38.51H28a.49.49,0,0,0-.49.49v3a.49.49,0,0,0,.49.49h3a.49.49,0,0,0,.49-.49V39A.49.49,0,0,0,30.93,38.51Zm-.49,2.71a.25.25,0,0,1-.25.25H28.71a.25.25,0,0,1-.25-.25V39.74a.25.25,0,0,1,.25-.25h1.48a.25.25,0,0,1,.25.25Z"/><path class="cls-2" d="M30.93,32.59H28a.49.49,0,0,0-.49.49v3a.49.49,0,0,0,.49.49h3a.49.49,0,0,0,.49-.49v-3A.49.49,0,0,0,30.93,32.59Zm-.49,2.71a.25.25,0,0,1-.25.25H28.71a.25.25,0,0,1-.25-.25V33.82a.25.25,0,0,1,.25-.25h1.48a.25.25,0,0,1,.25.25Z"/><path class="cls-2" d="M36.86,38.51h-3a.49.49,0,0,0-.49.49v3a.49.49,0,0,0,.49.49h3a.49.49,0,0,0,.49-.49V39A.49.49,0,0,0,36.86,38.51Zm-.49,2.71a.25.25,0,0,1-.25.25H34.63a.25.25,0,0,1-.25-.25V39.74a.26.26,0,0,1,.25-.25h1.49a.26.26,0,0,1,.25.25Z"/><path class="cls-2" d="M36.86,32.59h-3a.49.49,0,0,0-.49.49v3a.49.49,0,0,0,.49.49h3a.49.49,0,0,0,.49-.49v-3A.49.49,0,0,0,36.86,32.59Zm-.49,2.71a.25.25,0,0,1-.25.25H34.63a.25.25,0,0,1-.25-.25V33.82a.25.25,0,0,1,.25-.25h1.49a.25.25,0,0,1,.25.25Z"/></g></g></svg>