<svg xmlns="http://www.w3.org/2000/svg" viewBox="0 0 56.46 35.36"><defs><style>.cls-1{fill:#d9d5f4;}.cls-2{fill:#4531cb;}.cls-3{fill:#0c0c0c;}</style></defs><title>Joystick</title><g id="Layer_2" data-name="Layer 2"><g id="Layer_1-2" data-name="Layer 1"><path class="cls-1" d="M22.49,31.88,13.37,17a2.29,2.29,0,0,0-3.91,0L.34,31.88a2.29,2.29,0,0,0,2,3.48H20.54A2.29,2.29,0,0,0,22.49,31.88Z"/><path class="cls-2" d="M47.7,31.75a4.6,4.6,0,0,0,5.28,1c1.71-.68,3.17-2,3.41-3.54a.11.11,0,0,0,0-.05c.33-4-.8-11.06-2.67-17.29a39.06,39.06,0,0,0-3.32-8.14,10.86,10.86,0,0,0-2-2.61A3.6,3.6,0,0,0,46,0H42.79A5,5,0,0,0,40.7.36a2.64,2.64,0,0,0-1.22,1.13l-1.13,2H26.86l-1.13-2A2.64,2.64,0,0,0,24.51.36,5,5,0,0,0,22.42,0H19.21a3.6,3.6,0,0,0-2.4,1.08,10.86,10.86,0,0,0-2,2.61,39.06,39.06,0,0,0-3.32,8.14c-1.87,6.23-3,13.32-2.67,17.29v.05c.25,1.55,1.71,2.86,3.41,3.54a4.61,4.61,0,0,0,5.29-1L24,24.42H41.19Zm-9.78-27a3.28,3.28,0,0,1-.63,1.88c-.16.18-.62.24-1.31.24H29.23a2.32,2.32,0,0,1-1.32-.24,2.28,2.28,0,0,1-.62-1.88ZM23.74,23.17a.64.64,0,0,0-.47.21l-6.69,7.54a3.29,3.29,0,0,1-3.89.62A4.35,4.35,0,0,1,10.06,29c-.29-3.61.79-10.71,2.62-16.8a38.49,38.49,0,0,1,3.2-7.87A10,10,0,0,1,17.65,2a2.43,2.43,0,0,1,1.56-.75h3.21A3.92,3.92,0,0,1,24,1.49a1.39,1.39,0,0,1,.65.62L26,4.38l.37,1.83a2.08,2.08,0,0,0,.94,1.43,3.67,3.67,0,0,0,2,.43H36a3.67,3.67,0,0,0,2-.43,2.11,2.11,0,0,0,.94-1.43l.37-1.83,1.3-2.27a1.42,1.42,0,0,1,.66-.62,3.92,3.92,0,0,1,1.57-.24H46A2.43,2.43,0,0,1,47.56,2a10.26,10.26,0,0,1,1.77,2.32,38.49,38.49,0,0,1,3.2,7.87c1.83,6.09,2.91,13.19,2.62,16.79a4.34,4.34,0,0,1-2.63,2.56,3.29,3.29,0,0,1-3.89-.62l-6.69-7.54a.64.64,0,0,0-.47-.21Z"/><path class="cls-3" d="M24.7,11.88H23.55V10.74a2.28,2.28,0,0,0-4.56,0v1.14H17.84a2.29,2.29,0,0,0,0,4.57H19v1.14a2.28,2.28,0,1,0,4.56,0V16.45H24.7a2.29,2.29,0,0,0,0-4.57Zm.17,3.36H23a.67.67,0,0,0-.66.66v1.86a1.08,1.08,0,0,1-2.16,0V15.9a.66.66,0,0,0-.66-.66H17.67a1.08,1.08,0,1,1,0-2.15h1.86a.66.66,0,0,0,.66-.66V10.57a1.08,1.08,0,0,1,2.16,0v1.86a.67.67,0,0,0,.66.66h1.86a1.08,1.08,0,1,1,0,2.15Z"/><path class="cls-3" d="M42,13.66a2.73,2.73,0,1,0-2.73-2.73A2.74,2.74,0,0,0,42,13.66Zm0-4.43a1.71,1.71,0,1,1-1.7,1.7A1.69,1.69,0,0,1,42,9.23Z"/><path class="cls-3" d="M44.7,17.4A2.74,2.74,0,1,0,42,20.13,2.74,2.74,0,0,0,44.7,17.4Zm-4.55,0A1.82,1.82,0,1,1,42,19.22,1.81,1.81,0,0,1,40.15,17.4Z"/><path class="cls-3" d="M47.38,16.9a2.74,2.74,0,1,0-2.73-2.73A2.74,2.74,0,0,0,47.38,16.9Zm0-4.47a1.74,1.74,0,1,1-1.73,1.74A1.73,1.73,0,0,1,47.38,12.43Z"/></g></g></svg>