<svg xmlns="http://www.w3.org/2000/svg" viewBox="0 0 47.46 51.46"><defs><style>.cls-1{fill:#d9d5f4;}.cls-2{fill:#4531cb;}.cls-3{fill:#0c0c0c;}</style></defs><title>Launch File</title><g id="Layer_2" data-name="Layer 2"><g id="Layer_1-2" data-name="Layer 1"><path class="cls-1" d="M22.49,48,13.37,33.07a2.29,2.29,0,0,0-3.91,0L.34,48a2.28,2.28,0,0,0,2,3.48H20.54A2.28,2.28,0,0,0,22.49,48Z"/><path class="cls-2" d="M37.64.76A3,3,0,0,0,35.73,0H13.23a2.79,2.79,0,0,0-2.79,2.79V45.21A2.79,2.79,0,0,0,13.23,48H44.66a2.8,2.8,0,0,0,2.8-2.79v-34a2.88,2.88,0,0,0-.88-2Zm-.92.53a1.6,1.6,0,0,1,.25.18l8.86,8.36H36.92a.19.19,0,0,1-.2-.19Zm9.76,43.92A1.82,1.82,0,0,1,44.66,47H13.23a1.81,1.81,0,0,1-1.81-1.81V2.79A1.81,1.81,0,0,1,13.23,1H35.74V9.64a1.18,1.18,0,0,0,1.18,1.18h9.5a1.84,1.84,0,0,1,.06.41Z"/><path class="cls-3" d="M17.16,7.94H31a.49.49,0,1,0,0-1H17.16a.49.49,0,0,0,0,1Z"/><path class="cls-3" d="M17.16,12.44H31a.49.49,0,0,0,0-1H17.16a.49.49,0,0,0,0,1Z"/><path class="cls-2" d="M40,44.16a4.6,4.6,0,0,0-2,.44l-.39.18-.17-.39a4.78,4.78,0,0,0-2.87-2.59l-.17,0a.45.45,0,0,0-.11.88h0a3.88,3.88,0,0,1,2.6,3,.44.44,0,0,0,.71.27A3.92,3.92,0,0,1,40,45.05a3.86,3.86,0,0,1,3.49,2.22h1A4.71,4.71,0,0,0,40,44.16Z"/><path class="cls-2" d="M23.1,41.77a.51.51,0,0,0-.17,0,4.78,4.78,0,0,0-2.87,2.59l-.17.39-.39-.18a4.64,4.64,0,0,0-2-.44A4.71,4.71,0,0,0,13,47.27h1a3.86,3.86,0,0,1,5.9-1.38.47.47,0,0,0,.43.07.44.44,0,0,0,.28-.34,3.88,3.88,0,0,1,2.6-3,.45.45,0,0,0-.11-.88Z"/><path class="cls-3" d="M37,37.87a.42.42,0,0,0,.5.24.43.43,0,0,0,.34-.44,12.68,12.68,0,0,0-1.81-7.18,6.57,6.57,0,0,0-1.52-1.62l-.13-.1,0-.2V28.5c0-.43,0-.83,0-1.23,0-7.08-5.3-11.56-5.36-11.61a.46.46,0,0,0-.25-.1.51.51,0,0,0-.32.1c0,.05-5.36,4.56-5.36,11.61,0,.4,0,.8,0,1.24v.16l-.13.16a6.57,6.57,0,0,0-1.58,1.66,12.78,12.78,0,0,0-1.8,7.18.44.44,0,0,0,.84.2,6.28,6.28,0,0,1,3.77-2.95l.34-.1.16.32a14.58,14.58,0,0,0,1,2,.45.45,0,0,0,.35.16h5.2a.45.45,0,0,0,.35-.18,12.79,12.79,0,0,0,1-1.93l.15-.32.35.09A6.36,6.36,0,0,1,37,37.87ZM26.56,19.24A15.14,15.14,0,0,1,28.34,17l.41-.39.34.31A14,14,0,0,1,31,19.24l.43.65H26.13ZM23.87,34.11a7.35,7.35,0,0,0-2.45,1.31l-.88.72.2-1.12a10,10,0,0,1,1.46-4,5.6,5.6,0,0,1,.45-.59l.58-.7.16.89a18.06,18.06,0,0,0,.75,3l.14.41Zm7.32,2.07-.13.18H26.52l-.15-.13c-.59-.82-2.36-3.73-2.36-9A13.83,13.83,0,0,1,25.55,21l.11-.23h6.2L32,21a14,14,0,0,1,1.54,6.25C33.51,32.5,31.73,35.41,31.19,36.18Zm2.19-2.61a19.12,19.12,0,0,0,.75-3l.15-.9.59.7a6.25,6.25,0,0,1,.45.6,10.1,10.1,0,0,1,1.46,4l.2,1.12-.88-.72a7.43,7.43,0,0,0-2.45-1.31L33.24,34Z"/><path class="cls-3" d="M30.94,27.27a2.18,2.18,0,1,0-2.18,2.18A2.19,2.19,0,0,0,30.94,27.27Zm-2.18,1.29a1.29,1.29,0,1,1,1.29-1.29A1.28,1.28,0,0,1,28.76,28.56Z"/><path class="cls-3" d="M31.8,40.27a.45.45,0,1,0-.89,0,6,6,0,0,1-1.83,4.34l-.26.25-.3-.19a6,6,0,0,1-1.91-4.4.43.43,0,0,0-.45-.45.43.43,0,0,0-.45.45,7.08,7.08,0,0,0,2.8,5.58.5.5,0,0,0,.5,0A7.09,7.09,0,0,0,31.8,40.27Z"/></g></g></svg>