<svg xmlns="http://www.w3.org/2000/svg" viewBox="0 0 35.88 47.74"><defs><style>.cls-1{fill:#d9d5f4;}.cls-2{fill:#4531cb;}</style></defs><title>Localisation</title><g id="Layer_2" data-name="Layer 2"><g id="Layer_1-2" data-name="Layer 1"><path class="cls-1" d="M22.49,44.26,13.37,29.34a2.3,2.3,0,0,0-3.91,0L.34,44.26a2.29,2.29,0,0,0,2,3.48H20.54A2.29,2.29,0,0,0,22.49,44.26Z"/><path class="cls-2" d="M19.63,0A16.27,16.27,0,0,0,3.38,16.25c0,3.67,1.3,7.85,4,12.77a123.75,123.75,0,0,0,8,12.25l0,0c1.29,1.81,2.51,3.51,3.57,5.1a.81.81,0,0,0,1.3,0c1-1.58,2.26-3.27,3.53-5l.06-.09a121.82,121.82,0,0,0,8-12.24c2.68-4.92,4-9.1,4-12.77A16.27,16.27,0,0,0,19.63,0ZM34.31,16.25c0,3.41-1.24,7.34-3.79,12a120.85,120.85,0,0,1-8,12.14c-.85,1.19-1.66,2.32-2.42,3.42l-.51.74-.52-.74c-.76-1.1-1.56-2.23-2.43-3.44A123.46,123.46,0,0,1,8.73,28.27c-2.55-4.68-3.79-8.61-3.79-12a14.69,14.69,0,1,1,29.37,0Z"/><path class="cls-2" d="M19.63,8.44a7.81,7.81,0,1,0,7.81,7.81A7.82,7.82,0,0,0,19.63,8.44Zm6.25,7.81A6.25,6.25,0,1,1,19.63,10,6.26,6.26,0,0,1,25.88,16.25Z"/></g></g></svg>