<svg xmlns="http://www.w3.org/2000/svg" viewBox="0 0 53.04 52.93"><defs><style>.cls-1{fill:#d9d5f4;}.cls-2{fill:#0c0c0c;}.cls-3{fill:#4531cb;}</style></defs><title>Manipulation Arm Robot</title><g id="Layer_2" data-name="Layer 2"><g id="Layer_1-2" data-name="Layer 1"><path class="cls-1" d="M22.49,49.44,13.37,34.53a2.3,2.3,0,0,0-3.91,0L.34,49.44a2.29,2.29,0,0,0,2,3.49H20.54A2.29,2.29,0,0,0,22.49,49.44Z"/><path class="cls-2" d="M23.68,35.59a2.14,2.14,0,1,0-2.14-2.14A2.14,2.14,0,0,0,23.68,35.59Zm0-3.1a1,1,0,1,1-1,1A1,1,0,0,1,23.68,32.49Z"/><path class="cls-2" d="M17.22,19.93a2.14,2.14,0,1,0-2.14,2.14A2.13,2.13,0,0,0,17.22,19.93Zm-3.1,0a1,1,0,1,1,1,1A1,1,0,0,1,14.12,19.93Z"/><path class="cls-2" d="M33.68,7.21a2.14,2.14,0,1,0-2.13-2.14A2.14,2.14,0,0,0,33.68,7.21Zm0-3.1a1,1,0,1,1-1,1A1,1,0,0,1,33.68,4.11Z"/><path class="cls-3" d="M10.83,47.92H37.65a.59.59,0,0,0,.59-.59V44.14a2.91,2.91,0,0,0-2.92-2.91H32.44l0-.06-3.87-5.41,0-.08A4.9,4.9,0,0,0,29,34.33a5.31,5.31,0,0,0-1.12-4.18L20,20.5l.11-.09,12.45-9.88.08,0,11.61,4.78,0,4.65,0,0A3.55,3.55,0,0,0,44,24.21l.05.08-2.86,4.14a.59.59,0,0,0,0,.67l1.88,2.73a.61.61,0,0,0,.83.14.58.58,0,0,0,.14-.81l-1.65-2.39,2.48-3.59.12.08a3.62,3.62,0,0,0,4.17,0l.12-.08,2.48,3.59-1.66,2.39a.6.6,0,0,0,.16.82.62.62,0,0,0,.82-.15l1.88-2.73a.62.62,0,0,0,0-.67h0l-2.86-4.14.05-.08A3.55,3.55,0,0,0,49.87,20l0,0V15.05l0,0a3.44,3.44,0,0,0,.37-.52,3.5,3.5,0,0,0-1-4.53L36.82,1a5.29,5.29,0,0,0-7.71,1.72,5.57,5.57,0,0,0-.58,1.57v.07l-.06,0-.05,0,0,0L14.93,15.1h0a4.83,4.83,0,0,0-1.36,9.4l.05,0,0,.06L19,35.78a6.31,6.31,0,0,0,.38.64l.05.08-3.38,4.73h-2.9a2.91,2.91,0,0,0-2.91,2.91v3.19A.58.58,0,0,0,10.83,47.92ZM47.06,24.76a2.47,2.47,0,1,1,2.46-2.46A2.47,2.47,0,0,1,47.06,24.76ZM45.42,19V15.82l.46.19a3.49,3.49,0,0,0,2.6,0l.19-.08V19l-.2-.08a3.59,3.59,0,0,0-2.84,0ZM30.14,3.3a4.13,4.13,0,0,1,3.6-2.11,4,4,0,0,1,2.4.77l12.42,9a2.32,2.32,0,0,1-1.34,4.19,2.23,2.23,0,0,1-.88-.18L32.18,9.09a4.11,4.11,0,0,1-2.32-2.44A4.06,4.06,0,0,1,30.14,3.3ZM28.48,5.86l0,.25a5.3,5.3,0,0,0,.22.93A5.26,5.26,0,0,0,31.15,9.9l.18.11L19.85,19.12l-.05-.23a4.84,4.84,0,0,0-3-3.48l-.24-.09ZM11.42,19.93a3.66,3.66,0,1,1,3.65,3.66A3.67,3.67,0,0,1,11.42,19.93ZM15,24.77h.22A4.83,4.83,0,0,0,19.45,22l.09-.21.15.18L27,30.88a4.17,4.17,0,0,1,.87,3.25A4.11,4.11,0,0,1,26,37a4.17,4.17,0,0,1-2.21.64,3.84,3.84,0,0,1-1.12-.16,4.12,4.12,0,0,1-2.58-2.16Zm5.22,12.64.12.11a5,5,0,0,0,2,1A5.23,5.23,0,0,0,27.72,37l.12-.14L31,41.23H17.49Zm-8.8,6.73a1.74,1.74,0,0,1,1.73-1.74H35.32a1.74,1.74,0,0,1,1.74,1.74v2.6H11.42Z"/></g></g></svg>