<svg xmlns="http://www.w3.org/2000/svg" viewBox="0 0 54.97 48.58"><defs><style>.cls-1{fill:#d9d5f4;}.cls-2{fill:#0c0c0c;}.cls-3{fill:#4531cb;}</style></defs><title>Mobile Robot</title><g id="Layer_2" data-name="Layer 2"><g id="Layer_1-2" data-name="Layer 1"><path class="cls-1" d="M22.49,45.1,13.37,30.19a2.29,2.29,0,0,0-3.91,0L.34,45.1a2.29,2.29,0,0,0,2,3.48H20.54A2.29,2.29,0,0,0,22.49,45.1Z"/><path class="cls-2" d="M18.48,30.62a5.88,5.88,0,1,0,5.87,5.88A5.89,5.89,0,0,0,18.48,30.62Zm0,10.72a4.85,4.85,0,1,1,4.84-4.84A4.85,4.85,0,0,1,18.48,41.34Z"/><path class="cls-2" d="M46.8,32.15a5.11,5.11,0,1,0,5.11,5.11A5.12,5.12,0,0,0,46.8,32.15Zm0,9.19a4.08,4.08,0,1,1,4.08-4.08A4.08,4.08,0,0,1,46.8,41.34Z"/><path class="cls-3" d="M36.08,41.34H30a.52.52,0,1,0,0,1h6.12a.52.52,0,1,0,0-1Z"/><path class="cls-3" d="M36.13,31.79h0L30,31.39h0a.53.53,0,0,0-.53.48.51.51,0,0,0,.13.37.5.5,0,0,0,.36.18l6.12.41a.55.55,0,0,0,.58-.5A.52.52,0,0,0,36.13,31.79Z"/><path class="cls-3" d="M52.17,31.12l-.29-.26.35-.16a2.05,2.05,0,0,0,1.21-1.86V24.25a5.89,5.89,0,0,0-5.87-5.88H40.12l-.07-.07L29.93,8.69H38.7l.06.16a2,2,0,0,0,1.92,1.37h10a1.29,1.29,0,0,0,1.13-.69l.05-.11.12,0a4.19,4.19,0,0,0,3-4.29,4.19,4.19,0,0,0-3-4.29l-.12,0L51.76.69A1.28,1.28,0,0,0,50.63,0h-10a2,2,0,0,0-1.92,1.36l-.06.17H22.31a5.11,5.11,0,0,0-.55,10.19h.11l.07.09,4.72,6.55H12.35a2.81,2.81,0,0,0-2.81,2.81v5.38a2.82,2.82,0,0,0,1.71,2.59l1.39.59-.28.26a8.92,8.92,0,0,0,6.11,15.43H46.81a8.16,8.16,0,0,0,5.36-14.31ZM51.91,1.8l.38.22a3.37,3.37,0,0,1,1.65,3.1A3.37,3.37,0,0,1,52.29,8.2l-.38.22Zm-12.25.25a1,1,0,0,1,1-1h10.2V9.19H40.68a1,1,0,0,1-1-1Zm-1,.51v5.1H28.84L27.4,6.28V6.19A5,5,0,0,0,25.87,3l-.44-.43ZM18.23,6.64a4.08,4.08,0,1,1,4.08,4.08A4.08,4.08,0,0,1,18.23,6.64Zm4.89,5.05.36-.08A5.14,5.14,0,0,0,27.22,8l.11-.39L38.62,18.37H27.93l-.08-.1ZM11.65,28.2a1.8,1.8,0,0,1-1.08-1.64V21.18a1.78,1.78,0,0,1,1.78-1.78H47.57a4.86,4.86,0,0,1,4.84,4.85v4.59a1,1,0,0,1-1,1l-1.21,0a8.22,8.22,0,0,0-3.35-.74L19.42,27.61c-.33,0-.64-.05-.94-.05A8.8,8.8,0,0,0,13.7,29l-.11.07ZM18.2,44.39a7.76,7.76,0,1,1,.29,0Zm4.51,0,.7-.46a8.92,8.92,0,0,0,.4-14.6l-.67-.5,20,1.08-.68.42A8.17,8.17,0,0,0,42.12,44l.66.45Zm26.82-.54a7.22,7.22,0,0,1-2.73.54,7.13,7.13,0,1,1,2.73-.54Z"/><path class="cls-2" d="M45.27,4.09h3.06a.52.52,0,1,0,0-1H45.27a.52.52,0,1,0,0,1Z"/><path class="cls-2" d="M42.21,4.09a.52.52,0,1,0-.52-.51A.51.51,0,0,0,42.21,4.09Z"/></g></g></svg>