<svg xmlns="http://www.w3.org/2000/svg" viewBox="0 0 56.37 52.44"><defs><style>.cls-1{fill:#d9d5f4;}.cls-2{fill:#0c0c0c;}.cls-3{fill:#4531cb;}</style></defs><title>Module</title><g id="Layer_2" data-name="Layer 2"><g id="Layer_1-2" data-name="Layer 1"><path class="cls-1" d="M22.49,49,13.37,34.05a2.29,2.29,0,0,0-3.91,0L.34,49a2.29,2.29,0,0,0,2,3.48H20.54A2.29,2.29,0,0,0,22.49,49Z"/><path class="cls-2" d="M12.57,4.15h.74V9.68a.56.56,0,1,0,1.12,0V3.59A.57.57,0,0,0,13.87,3h-1.3a.58.58,0,0,0-.57.57A.57.57,0,0,0,12.57,4.15Z"/><path class="cls-3" d="M23.6,0H10.45A2.09,2.09,0,0,0,8.37,2.09v9.14a2.09,2.09,0,0,0,2.08,2.09H36a2.1,2.1,0,0,0,2.09-2.09V2.09A2.1,2.1,0,0,0,36,0H26.91a.56.56,0,0,0,0,1.12H36a1,1,0,0,1,1,1v9.14a1,1,0,0,1-1,1H18.64V1.12h5A.56.56,0,1,0,23.6,0ZM17.51,12.2H10.45a1,1,0,0,1-1-1V2.09a1,1,0,0,1,1-1h7.06Z"/><path class="cls-2" d="M35,6.66a.57.57,0,0,0-.57-.56H21.13a.56.56,0,1,0,0,1.12H34.46A.57.57,0,0,0,35,6.66Z"/><path class="cls-2" d="M34.46,3.05H21.13a.56.56,0,1,0,0,1.12H34.46a.56.56,0,1,0,0-1.12Z"/><path class="cls-2" d="M21.13,9.15a.56.56,0,1,0,0,1.12H31.61a.56.56,0,1,0,0-1.12Z"/><path class="cls-2" d="M22.85,20.67a.52.52,0,0,0,.42-.09.53.53,0,0,0,.24-.36,1,1,0,0,1,.95-.77,1,1,0,0,1,1,1c0,.34-.15.58-.56,1.21l-2.11,3a.55.55,0,0,0-.05.59.56.56,0,0,0,.5.31h3a.56.56,0,1,0,0-1.12H24.29l.16-.23,1.33-1.9a3.22,3.22,0,0,0,.76-1.85,2.08,2.08,0,0,0-4.13-.4.52.52,0,0,0,.09.42A.54.54,0,0,0,22.85,20.67Z"/><path class="cls-3" d="M31.66,18.87a.56.56,0,0,0,.56.56H45.56a.56.56,0,1,0,0-1.12H32.22A.56.56,0,0,0,31.66,18.87Z"/><path class="cls-2" d="M13.5,39.62a1,1,0,0,1-.95-.82.66.66,0,0,1,0-.14.56.56,0,0,0-1.12,0,1.37,1.37,0,0,0,0,.29A2.09,2.09,0,1,0,15,37.24l-.1-.1L15,37a2.09,2.09,0,0,0-1.53-3.51,2.08,2.08,0,0,0-2,1.68.56.56,0,0,0,1.1.22,1,1,0,0,1,1.91.18,1,1,0,0,1-1,1,.56.56,0,1,0,0,1.12,1,1,0,1,1,0,1.92Z"/><path class="cls-2" d="M35,37.16a.57.57,0,0,0-.57-.56H21.13a.56.56,0,1,0,0,1.12H34.46A.57.57,0,0,0,35,37.16Z"/><path class="cls-2" d="M34.46,33.55H21.13a.56.56,0,0,0-.57.56.57.57,0,0,0,.57.57H34.46a.58.58,0,0,0,.57-.57A.57.57,0,0,0,34.46,33.55Z"/><path class="cls-2" d="M21.13,39.65a.56.56,0,1,0,0,1.12H31.61a.56.56,0,0,0,0-1.12Z"/><path class="cls-3" d="M54.06,32.06H54a2.36,2.36,0,0,0-1.25.35l-.15.09-.06-.16a2.38,2.38,0,0,0-2.12-1.47,2.22,2.22,0,0,0-1.43.41l-.13.09-.08-.14a2.37,2.37,0,0,0-2-1.28,2.54,2.54,0,0,0-1.15.25l-.21.1V28.58h1.69a2.1,2.1,0,0,0,2.09-2.09V17.34a2.09,2.09,0,0,0-2.09-2.08H40.92a.56.56,0,1,0,0,1.12h6.16a1,1,0,0,1,1,1v9.15a1,1,0,0,1-1,1H45.39v-3.7A2.39,2.39,0,0,0,43,21.36H32.22a.56.56,0,0,0,0,1.12H41l-.1.21a2.3,2.3,0,0,0-.25,1.06v.65H32.22a.57.57,0,0,0-.56.57.56.56,0,0,0,.56.56h8.39v1.92H29.73V16.38h7.88a.56.56,0,1,0,0-1.12H21.55a2.09,2.09,0,0,0-2.09,2.08v9.15a2.1,2.1,0,0,0,2.09,2.09H40.61v5.83l-1.67.84a3.2,3.2,0,0,0-.63.4l-.23.18V32.59A2.1,2.1,0,0,0,36,30.5H24.45a.56.56,0,0,0-.56.56.57.57,0,0,0,.56.57H36a1,1,0,0,1,1,1v9.15a1,1,0,0,1-1,1H18.64V31.63h2.5a.57.57,0,0,0,.56-.57.56.56,0,0,0-.56-.56H10.45a2.09,2.09,0,0,0-2.08,2.09v9.15a2.08,2.08,0,0,0,2.08,2.08H36a2,2,0,0,0,.8-.16l.17-.07,0,.19a3.6,3.6,0,0,0,1,2l2,2a.56.56,0,0,0,.8-.79l-2-2a2.46,2.46,0,0,1-.73-1.75V38.46a2.48,2.48,0,0,1,1.37-2.21l1.17-.58v2.87l-.6.6a.56.56,0,0,0,0,.79.59.59,0,0,0,.8,0l.76-.76a.59.59,0,0,0,.16-.4v-15a1.27,1.27,0,0,1,2.54,0V35.14a.56.56,0,1,0,1.12,0v-2.8a1.35,1.35,0,0,1,.41-.93,1.28,1.28,0,0,1,.91-.33,1.3,1.3,0,0,1,1.22,1.31v2.75a.56.56,0,1,0,1.12,0V33.26a1.21,1.21,0,0,1,.37-.9,1.33,1.33,0,0,1,.94-.37,1.3,1.3,0,0,1,1.22,1.31v1.84a.57.57,0,0,0,.57.56.56.56,0,0,0,.56-.56v-.69A1.28,1.28,0,0,1,54,33.18h0a1.3,1.3,0,0,1,1.22,1.31V47.44a.57.57,0,0,0,.57.56.56.56,0,0,0,.56-.56V34.49A2.4,2.4,0,0,0,54.06,32.06ZM28.61,27.45H21.55a1,1,0,0,1-1-1V17.34a1,1,0,0,1,1-1h7.06ZM17.51,42.7H10.45a1,1,0,0,1-1-1V32.59a1,1,0,0,1,1-1h7.06Z"/></g></g></svg>