<svg xmlns="http://www.w3.org/2000/svg" viewBox="0 0 59.27 44.7"><defs><style>.cls-1{fill:#d9d5f4;}.cls-2{fill:#4531cb;}.cls-3{fill:#0c0c0c;}</style></defs><title>Package</title><g id="Layer_2" data-name="Layer 2"><g id="Layer_1-2" data-name="Layer 1"><path class="cls-1" d="M22.49,41.22,13.37,26.31a2.29,2.29,0,0,0-3.91,0L.34,41.22a2.28,2.28,0,0,0,2,3.48H20.54A2.28,2.28,0,0,0,22.49,41.22Z"/><path class="cls-2" d="M57.86,9.14a3.52,3.52,0,0,0-2.11-.7H38.46L36.58,5.63H55.75a2.1,2.1,0,0,1,2.11,2.1V9.14Zm0,28.13a2.1,2.1,0,0,1-2.11,2.1h-41a2.1,2.1,0,0,1-2.1-2.1V3.52a2.1,2.1,0,0,1,2.1-2.11H29.64a5.16,5.16,0,0,1,3.79,2L34.68,5.3v0L37.5,9.53a.69.69,0,0,0,.58.31H55.75A2.11,2.11,0,0,1,57.86,12V37.27ZM55.75,4.22H35.65l-1-1.57a6.58,6.58,0,0,0-5-2.65H14.78a3.52,3.52,0,0,0-3.51,3.52V37.27a3.52,3.52,0,0,0,3.51,3.51h41a3.52,3.52,0,0,0,3.52-3.51V7.73a3.52,3.52,0,0,0-3.52-3.51Z"/><path class="cls-3" d="M55.75,34.16h-41a.7.7,0,0,0,0,1.4h41a.7.7,0,1,0,0-1.4Z"/><path class="cls-3" d="M45.75,29.45h-21a.71.71,0,0,0,0,1.41h21a.71.71,0,1,0,0-1.41Z"/></g></g></svg>