<svg xmlns="http://www.w3.org/2000/svg" viewBox="0 0 57.92 49.09"><defs><style>.cls-1{fill:#d9d5f4;}.cls-2{fill:#0c0c0c;}.cls-3{fill:#4531cb;}</style></defs><title>Perception</title><g id="Layer_2" data-name="Layer 2"><g id="Layer_1-2" data-name="Layer 1"><path class="cls-1" d="M22.49,45.61,13.37,30.7a2.29,2.29,0,0,0-3.91,0L.34,45.61a2.29,2.29,0,0,0,2,3.48H20.54A2.29,2.29,0,0,0,22.49,45.61Z"/><path class="cls-2" d="M14.72,15.09a.53.53,0,0,0,.63-.36,12.48,12.48,0,0,1,8.86-8.86.53.53,0,0,0,.31-.24.49.49,0,0,0,.05-.39.49.49,0,0,0-.24-.31.48.48,0,0,0-.39,0,13.52,13.52,0,0,0-9.58,9.59A.5.5,0,0,0,14.72,15.09Z"/><path class="cls-2" d="M57.92,18a.52.52,0,0,0-.52-.52H49.09l2.13-2.12a.51.51,0,0,0,.15-.37.51.51,0,0,0-.87-.36l-3,3a.51.51,0,0,0-.15.36.55.55,0,0,0,.15.36l3,3a.53.53,0,0,0,.72,0,.51.51,0,0,0,0-.72l-2.13-2.13H57.4A.51.51,0,0,0,57.92,18Z"/><path class="cls-2" d="M24.21,30a12.51,12.51,0,0,1-8.86-8.87.53.53,0,0,0-.24-.31.59.59,0,0,0-.26-.07l-.13,0a.49.49,0,0,0-.31.24.48.48,0,0,0-.05.39A13.54,13.54,0,0,0,23.94,31a.52.52,0,0,0,.63-.37.46.46,0,0,0-.05-.38A.49.49,0,0,0,24.21,30Z"/><path class="cls-3" d="M57.4,25.54,45,22.2,45,22a15.44,15.44,0,0,0,.66-7c0-.38-.12-.77-.21-1.18l0-.23.22-.06L57.4,10.36a.52.52,0,0,0-.26-1l-12,3.21-.07-.22a17.07,17.07,0,0,0-2.17-4.51A17.76,17.76,0,0,0,36.6,2.2a19,19,0,0,0-9-2.2A18,18,0,0,0,14.86,30.78l.07.08v14a.52.52,0,0,0,.52.52H39.23a.51.51,0,0,0,.51-.52V39.73h1.5a4.46,4.46,0,0,0,4.34-4.34V32.84h5a.5.5,0,0,0,.45-.27.51.51,0,0,0,0-.52l-5.59-8.66,11.72,3.14a.5.5,0,0,0,.62-.36v0a.45.45,0,0,0-.06-.36A.49.49,0,0,0,57.4,25.54ZM44.51,14.08A14.57,14.57,0,0,1,44,21.71l-.07.22L29.09,18l15.37-4.12ZM27,18.44l8.67,2.33-.1.25a8.69,8.69,0,1,1,0-6.15l.1.26L27,17.45a.51.51,0,0,0-.38.5A.5.5,0,0,0,27,18.44ZM49.64,31.82H45.06a.51.51,0,0,0-.51.51v3.06a3.44,3.44,0,0,1-3.31,3.31h-2a.51.51,0,0,0-.52.51v5.17H16V30.64a.55.55,0,0,0-.16-.38A17,17,0,0,1,27.57,1,17.22,17.22,0,0,1,42.09,8.42a15.94,15.94,0,0,1,2,4.17l.08.24-3.87,1-.08-.22a13.63,13.63,0,0,0-9.34-8.77.48.48,0,0,0-.39,0,.49.49,0,0,0-.24.31.49.49,0,0,0,0,.39.53.53,0,0,0,.31.24,12.63,12.63,0,0,1,8.61,8l.08.25-2.69.72-.08-.21a9.72,9.72,0,1,0,0,6.59l.08-.21,2.69.73-.08.24a12.52,12.52,0,0,1-8.61,8,.51.51,0,0,0,.27,1,13.68,13.68,0,0,0,9.34-8.78l.08-.22,3.61,1,.05.08Z"/></g></g></svg>