<svg xmlns="http://www.w3.org/2000/svg" viewBox="0 0 45.62 53.05"><defs><style>.cls-1{fill:#d9d5f4;}.cls-2{fill:#4531cb;}.cls-3{fill:#0c0c0c;}</style></defs><title>Range Finder Sensor</title><g id="Layer_2" data-name="Layer 2"><g id="Layer_1-2" data-name="Layer 1"><path class="cls-1" d="M23.2,49.57,14.07,34.66a2.28,2.28,0,0,0-3.9,0L1.05,49.57a2.28,2.28,0,0,0,2,3.48H21.25A2.29,2.29,0,0,0,23.2,49.57Z"/><path class="cls-2" d="M23.38,26.42l.1,0a3.57,3.57,0,0,0,1.87-1,3.53,3.53,0,0,0,1.06-2.54,3.6,3.6,0,1,0-7.2,0,3.53,3.53,0,0,0,1.05,2.54,3.65,3.65,0,0,0,1.78,1l.09,0v10h1.25Zm-.63-1.2a2.39,2.39,0,1,1,1.72-.7,2.31,2.31,0,0,1-1.66.7Z"/><path class="cls-2" d="M29,12.57a.62.62,0,0,0-.41.27.65.65,0,0,0,.18.87,10.86,10.86,0,0,1,3.07,3,11,11,0,0,1,1.67,3.94,10.88,10.88,0,0,1-.71,6.65,11.17,11.17,0,0,1-4.5,5,.6.6,0,0,0-.29.37.61.61,0,0,0,.06.46.6.6,0,0,0,.38.3.65.65,0,0,0,.47-.06,12.29,12.29,0,0,0,5-5.56,12.11,12.11,0,0,0-4.48-15.1A.56.56,0,0,0,29,12.57Z"/><path class="cls-2" d="M33.6,41.49a.57.57,0,0,0-.29.37.62.62,0,0,0,.06.48.63.63,0,0,0,.85.23,23.07,23.07,0,0,0,9.41-10.44A22.71,22.71,0,0,0,35.21,3.72a.58.58,0,0,0-.33-.1.62.62,0,0,0-.52.27.63.63,0,0,0,.18.87h0a21.55,21.55,0,0,1-.94,36.73Z"/><path class="cls-3" d="M26.09,28.48a.63.63,0,0,0-.22.85.62.62,0,0,0,.84.23A7.65,7.65,0,0,0,29.92,26a7.74,7.74,0,0,0,.52-4.75,7.66,7.66,0,0,0-1.19-2.8,7.47,7.47,0,0,0-2.2-2.14.64.64,0,0,0-.33-.1l-.13,0a.6.6,0,0,0-.39.27.62.62,0,0,0-.09.46.63.63,0,0,0,.27.4,6.33,6.33,0,0,1,1.83,1.78,6.52,6.52,0,0,1-2.12,9.34Z"/><path class="cls-3" d="M31.44,8.38a.64.64,0,0,0,.19.86,16.21,16.21,0,0,1,6,20.2,16.32,16.32,0,0,1-6.7,7.41A.63.63,0,0,0,31.08,38a.62.62,0,0,0,.46-.07,17.5,17.5,0,0,0,7.2-8A17.42,17.42,0,0,0,32.31,8.2.64.64,0,0,0,31.44,8.38Z"/><path class="cls-2" d="M10.75,3.62a.59.59,0,0,0-.34.1h0A22.44,22.44,0,0,0,4,10,23,23,0,0,0,.48,18.19,22.63,22.63,0,0,0,2,32.13,23.07,23.07,0,0,0,11.4,42.57a.63.63,0,0,0,.85-.23.64.64,0,0,0,.06-.49.61.61,0,0,0-.29-.36,21.64,21.64,0,0,1-8.89-9.88,21.5,21.5,0,0,1,8-26.85.64.64,0,0,0,.19-.87A.62.62,0,0,0,10.75,3.62Z"/><path class="cls-3" d="M17.4,19.14a6.5,6.5,0,0,1,1.84-1.78.6.6,0,0,0,.27-.4.58.58,0,0,0-.08-.46.6.6,0,0,0-.39-.27l-.14,0a.67.67,0,0,0-.33.1h0a7.86,7.86,0,0,0-2.2,2.14,8,8,0,0,0-1.19,2.8A7.74,7.74,0,0,0,15.7,26a7.64,7.64,0,0,0,3.21,3.56.62.62,0,0,0,.62-1.08,6.52,6.52,0,0,1-3.13-7A6.76,6.76,0,0,1,17.4,19.14Z"/><path class="cls-3" d="M13.31,8.2A17.68,17.68,0,0,0,8.39,13a17.48,17.48,0,0,0-1.52,17,17.58,17.58,0,0,0,7.21,8,.56.56,0,0,0,.47.06.57.57,0,0,0,.37-.29.56.56,0,0,0,.07-.45.64.64,0,0,0-.3-.4A16.23,16.23,0,0,1,8,29.44a16.2,16.2,0,0,1,6-20.2.63.63,0,0,0,.18-.86A.62.62,0,0,0,13.31,8.2Z"/><path class="cls-2" d="M16.66,12.57h-.12a.61.61,0,0,0-.33.1h0A11.73,11.73,0,0,0,12.79,16a12,12,0,0,0-1.06,11.78,12.14,12.14,0,0,0,5,5.55.61.61,0,0,0,.85-.23.6.6,0,0,0-.23-.83,11,11,0,0,1-4.49-5,10.78,10.78,0,0,1-.72-6.65,11,11,0,0,1,1.67-3.94,11.1,11.1,0,0,1,3.06-3,.64.64,0,0,0,.19-.87A.62.62,0,0,0,16.66,12.57Z"/><path class="cls-2" d="M12.52,16.65a.63.63,0,0,0,1.14.23,10.8,10.8,0,0,1,6.91-4.74,10.8,10.8,0,0,1,6.65.71,11,11,0,0,1,5,4.5.64.64,0,0,0,.37.29.62.62,0,0,0,.76-.44.59.59,0,0,0-.06-.47,12.16,12.16,0,0,0-5.55-5,12,12,0,0,0-7.42-.8,12,12,0,0,0-7.69,5.28A.6.6,0,0,0,12.52,16.65Z"/><path class="cls-2" d="M41.44,12a.62.62,0,0,0,.38.29.64.64,0,0,0,.47-.06.63.63,0,0,0,.23-.85A23.09,23.09,0,0,0,32.08,2,22.74,22.74,0,0,0,3.67,10.4a.61.61,0,0,0-.1.34.64.64,0,0,0,.27.52.63.63,0,0,0,.87-.19h0A21.55,21.55,0,0,1,31.57,3.12,21.63,21.63,0,0,1,41.44,12Z"/><path class="cls-3" d="M28.43,19.52a.62.62,0,0,0,1.08-.62A7.76,7.76,0,0,0,26,15.69a7.8,7.8,0,0,0-7.55.68,7.53,7.53,0,0,0-2.13,2.19.59.59,0,0,0-.1.34.62.62,0,0,0,0,.13.6.6,0,0,0,.27.39.59.59,0,0,0,.47.08.6.6,0,0,0,.39-.27,6.59,6.59,0,0,1,4.14-2.84,6.63,6.63,0,0,1,4,.43A6.55,6.55,0,0,1,28.43,19.52Z"/><path class="cls-3" d="M8.34,14.17A.62.62,0,0,0,9.19,14a16.15,16.15,0,0,1,4.45-4.57,16.37,16.37,0,0,1,5.85-2.49A16.16,16.16,0,0,1,36.8,14.7.63.63,0,0,0,38,14.54a.57.57,0,0,0-.07-.46,17.47,17.47,0,0,0-8-7.21A17.24,17.24,0,0,0,19.24,5.71a17.51,17.51,0,0,0-6.3,2.69,17.24,17.24,0,0,0-4.79,4.91A.63.63,0,0,0,8.34,14.17Z"/><path class="cls-3" d="M22.81,21.77a.64.64,0,0,0,0,1.27.63.63,0,0,0,.63-.63A.64.64,0,0,0,22.81,21.77Z"/><path class="cls-2" d="M19.93,36.28l0,0a2.07,2.07,0,0,0-.62,1.48V49.49a1.37,1.37,0,0,0,.37.93l0,0a1.32,1.32,0,0,0,.95.41H25a1.34,1.34,0,0,0,1-.41l.05,0a1.39,1.39,0,0,0,.36-.93V37.8a2.12,2.12,0,0,0-.62-1.48l0,0a2.15,2.15,0,0,0-1.46-.59H21.39A2.12,2.12,0,0,0,19.93,36.28Zm5.16,13.33H20.52v-2.3h4.57Zm-.25-12.42a.88.88,0,0,1,.25.61v8.27H20.52V37.8a.87.87,0,0,1,.25-.6l0,0a.85.85,0,0,1,.58-.22h2.84A.84.84,0,0,1,24.84,37.19Z"/></g></g></svg>