<svg xmlns="http://www.w3.org/2000/svg" viewBox="0 0 46.44 47.36"><defs><style>.cls-1{fill:#d9d5f4;}.cls-2{fill:#0c0c0c;}.cls-3{fill:#4531cb;}</style></defs><title>Setting</title><g id="Layer_2" data-name="Layer 2"><g id="Layer_1-2" data-name="Layer 1"><path class="cls-1" d="M22.49,43.88,13.37,29a2.29,2.29,0,0,0-3.91,0L.34,43.88a2.29,2.29,0,0,0,2,3.48H20.54A2.29,2.29,0,0,0,22.49,43.88Z"/><path class="cls-2" d="M13,26.55a6.93,6.93,0,1,0,13.85,0,.63.63,0,0,0-1.25,0,5.68,5.68,0,1,1-5.67-5.67.63.63,0,0,0,0-1.25A6.94,6.94,0,0,0,13,26.55Z"/><path class="cls-3" d="M33.78,28.68l-2.31.4a.67.67,0,0,0-.5.46,11.72,11.72,0,0,1-1.13,2.74.61.61,0,0,0,0,.67l1.35,1.93a1.14,1.14,0,0,1-.13,1.48L29.7,37.75a1.15,1.15,0,0,1-1.49.13l-1.93-1.35a.62.62,0,0,0-.67,0,11.34,11.34,0,0,1-2.74,1.14.61.61,0,0,0-.45.49L22,40.45a1.17,1.17,0,0,1-1.14,1h-2a1.17,1.17,0,0,1-1.14-1l-.41-2.32a.61.61,0,0,0-.45-.49,11.34,11.34,0,0,1-2.74-1.14.63.63,0,0,0-.67,0l-1.93,1.35a1.14,1.14,0,0,1-1.48-.13L8.69,36.36a1.14,1.14,0,0,1-.13-1.48L9.91,33a.63.63,0,0,0,0-.67A11.68,11.68,0,0,1,8.8,29.54a.62.62,0,0,0-.49-.46L6,28.68a1.17,1.17,0,0,1-1-1.14v-2a1.16,1.16,0,0,1,1-1.14L8.31,24a.61.61,0,0,0,.49-.45,11.34,11.34,0,0,1,1.14-2.74.63.63,0,0,0,0-.67L8.56,18.23a1.14,1.14,0,0,1,.13-1.48l1.39-1.4a1.15,1.15,0,0,1,1.48-.12l1.93,1.35a.63.63,0,0,0,.67,0,11.75,11.75,0,0,1,2.74-1.14.62.62,0,0,0,.46-.49l.4-2.32a.62.62,0,0,0-.1-.46.62.62,0,0,0-1.13.25l-.33,1.93-.28.09a12.48,12.48,0,0,0-1.77.74l-.26.13-1.61-1.13a2.39,2.39,0,0,0-3.08.27L7.8,15.87A2.38,2.38,0,0,0,7.54,19l1.12,1.6-.13.26a12.6,12.6,0,0,0-.74,1.78l-.09.27-1.93.34a2.39,2.39,0,0,0-2,2.37v2a2.39,2.39,0,0,0,2,2.37h0l1.93.34.09.27a12.43,12.43,0,0,0,.73,1.77l.14.26L7.54,34.16a2.4,2.4,0,0,0,.26,3.08l1.4,1.39a2.39,2.39,0,0,0,3.08.27l1.6-1.13.26.14a12.93,12.93,0,0,0,1.77.73l.28.1.34,1.93a2.38,2.38,0,0,0,2.36,2h2a2.39,2.39,0,0,0,2.37-2l.34-1.93.27-.09a12,12,0,0,0,1.77-.74l.26-.13,1.61,1.13a2.4,2.4,0,0,0,3.08-.27L32,37.24a2.41,2.41,0,0,0,.27-3.09l-1.13-1.6.13-.26A12,12,0,0,0,32,30.52l.09-.27L34,29.91a.58.58,0,0,0,.4-.26.59.59,0,0,0,.11-.46.63.63,0,0,0-.26-.41A.65.65,0,0,0,33.78,28.68Z"/><path class="cls-3" d="M44.76,10.05l-1.44-.26-.09-.27a10.59,10.59,0,0,0-.49-1.16l-.13-.26.85-1.2a2,2,0,0,0-.23-2.59L42.14,3.2A2,2,0,0,0,39.53,3l-1.19.84-.26-.13a11.64,11.64,0,0,0-1.17-.49l-.27-.09-.25-1.43A2,2,0,0,0,34.4,0H32.84a2,2,0,0,0-2,1.68l-.26,1.44-.27.09a10.59,10.59,0,0,0-1.16.49l-.26.13L27.7,3a2,2,0,0,0-2.6.22L24,4.3a2,2,0,0,0-.23,2.6l.84,1.2-.13.26A12,12,0,0,0,24,9.53l-.09.27-1.44.25a2,2,0,0,0-1.67,2v1.55a2,2,0,0,0,1.68,2l1.44.25.09.27a10,10,0,0,0,.49,1.17l.12.26-.84,1.2a2,2,0,0,0,.23,2.6l1.09,1.09a2,2,0,0,0,2.6.23l1.2-.84.26.12a10,10,0,0,0,1.17.49l.27.1L30.85,24a2,2,0,0,0,2,1.68H34.4a2,2,0,0,0,2-1.68l.25-1.44.27-.09a10,10,0,0,0,1.17-.49l.26-.13,1.2.85a2,2,0,0,0,2.6-.23l1.09-1.09a2,2,0,0,0,.23-2.6l-.84-1.2.12-.26a8.52,8.52,0,0,0,.49-1.17l.1-.27,1.44-.25a2,2,0,0,0,1.67-2V12A2,2,0,0,0,44.76,10.05Zm.43,3.55a.77.77,0,0,1-.64.77l-1.83.32a.61.61,0,0,0-.49.45,9.24,9.24,0,0,1-.89,2.13.63.63,0,0,0,0,.67l1.07,1.52a.78.78,0,0,1-.09,1l-1.09,1.1a.81.81,0,0,1-1,.08l-1.52-1.07a.63.63,0,0,0-.67,0,8.72,8.72,0,0,1-2.12.88.62.62,0,0,0-.45.5l-.32,1.83a.79.79,0,0,1-.77.65H32.84a.79.79,0,0,1-.77-.65l-.32-1.83a.61.61,0,0,0-.45-.49,8.82,8.82,0,0,1-2.13-.89.63.63,0,0,0-.67,0L27,21.64a.79.79,0,0,1-1-.09l-1.09-1.09a.79.79,0,0,1-.09-1l1.07-1.52a.63.63,0,0,0,0-.67A8.66,8.66,0,0,1,25,15.13a.6.6,0,0,0-.49-.44l-1.83-.33a.78.78,0,0,1-.65-.77V12a.79.79,0,0,1,.65-.77L24.52,11A.63.63,0,0,0,25,10.5a9,9,0,0,1,.88-2.13.61.61,0,0,0,0-.67L24.8,6.18a.78.78,0,0,1,.09-1L26,4.08A.79.79,0,0,1,27,4l1.52,1.06a.62.62,0,0,0,.67,0,9,9,0,0,1,2.13-.88.63.63,0,0,0,.45-.49l.32-1.83a.8.8,0,0,1,.76-.65h1.55a.78.78,0,0,1,.77.65l.32,1.83a.62.62,0,0,0,.46.49,8.59,8.59,0,0,1,2.12.89.62.62,0,0,0,.67,0L40.26,4a.78.78,0,0,1,1,.09l1.1,1.09a.8.8,0,0,1,.08,1L41.37,7.7a.64.64,0,0,0,0,.68,8.59,8.59,0,0,1,.89,2.12.62.62,0,0,0,.49.46l1.83.32a.77.77,0,0,1,.64.77Z"/><path class="cls-2" d="M33.62,8a4.81,4.81,0,1,0,4.81,4.81A4.82,4.82,0,0,0,33.62,8Zm0,8.37a3.57,3.57,0,0,1,0-7.13l.36,0a3.56,3.56,0,0,1-.36,7.1Z"/></g></g></svg>