<svg xmlns="http://www.w3.org/2000/svg" viewBox="0 0 59.24 50.29"><defs><style>.cls-1{fill:#d9d5f4;}.cls-2{fill:#4531cb;}.cls-3{fill:#0c0c0c;}</style></defs><title>Software</title><g id="Layer_2" data-name="Layer 2"><g id="Layer_1-2" data-name="Layer 1"><path class="cls-1" d="M.34,46.8,9.46,31.89a2.3,2.3,0,0,1,3.91,0L22.49,46.8a2.29,2.29,0,0,1-1.95,3.49H2.29A2.29,2.29,0,0,1,.34,46.8Z"/><path class="cls-2" d="M6.59,2V37.71a2,2,0,0,0,1.95,2h5v5a2,2,0,0,0,2,2H57.29a2,2,0,0,0,2-2V8.92a2,2,0,0,0-2-1.95h-5V2a2,2,0,0,0-2-1.95H8.54A2,2,0,0,0,6.59,2ZM57.76,15H52.27V8.45h5a.46.46,0,0,1,.46.47ZM15,39.68H50.32a2,2,0,0,0,2-2V16.45h5.49V44.69a.46.46,0,0,1-.46.47H15.5a.46.46,0,0,1-.47-.47Zm-7-30.19H50.8V37.72a.46.46,0,0,1-.47.47H8.53a.47.47,0,0,1-.47-.47Zm0-7.55a.46.46,0,0,1,.47-.46h41.8a.46.46,0,0,1,.47.46V8H8.06Z"/><path class="cls-3" d="M43.46,3.83h3.08a.78.78,0,0,1,.79.67.74.74,0,0,1-.74.8H43.41a.74.74,0,0,1-.74-.8A.78.78,0,0,1,43.46,3.83Z"/><path class="cls-3" d="M12.63,3.83H39.27a.78.78,0,0,1,.79.67.74.74,0,0,1-.74.8H12.58a.74.74,0,0,1-.74-.8A.78.78,0,0,1,12.63,3.83Z"/><path class="cls-3" d="M35.46,19.23l6.6,3.37a.82.82,0,0,1,.45.74.84.84,0,0,1-.45.74l-6.6,3.4a.6.6,0,1,1-.54-1.07l6.07-3s0,0,0,0l-6.07-3a.6.6,0,0,1-.34-.54h0A.61.61,0,0,1,35.46,19.23Z"/><path class="cls-3" d="M27.35,16.3h0a.61.61,0,0,1,.57.39l4.22,11a.61.61,0,0,1-.57.82.62.62,0,0,1-.56-.39l-4.26-11A.6.6,0,0,1,27.35,16.3Z"/><path class="cls-3" d="M16.93,22.6l6.6-3.37a.61.61,0,0,1,.88.54h0a.6.6,0,0,1-.34.54l-6.12,3s0,0,0,0l6.12,3a.6.6,0,1,1-.54,1.07l-6.6-3.4a.84.84,0,0,1-.45-.74A.82.82,0,0,1,16.93,22.6Z"/></g></g></svg>