<svg xmlns="http://www.w3.org/2000/svg" viewBox="0 0 59.39 50.57"><defs><style>.cls-1{fill:#d9d5f4;}.cls-2{fill:#4531cb;}.cls-3{fill:#0c0c0c;}</style></defs><title>Terminal</title><g id="Layer_2" data-name="Layer 2"><g id="Layer_1-2" data-name="Layer 1"><path class="cls-1" d="M22.49,47.09,13.37,32.18a2.29,2.29,0,0,0-3.91,0L.34,47.09a2.28,2.28,0,0,0,2,3.48H20.54A2.28,2.28,0,0,0,22.49,47.09Z"/><path class="cls-2" d="M54.71,0H16.08a4.69,4.69,0,0,0-4.69,4.68V43.32A4.69,4.69,0,0,0,16.08,48H54.71a4.69,4.69,0,0,0,4.68-4.68V4.68A4.69,4.69,0,0,0,54.71,0Zm3.36,43.32a3.37,3.37,0,0,1-3.36,3.36H16.08a3.37,3.37,0,0,1-3.37-3.36V11H58.07Zm0-33.66H12.71v-5a3.37,3.37,0,0,1,3.37-3.36H54.71a3.37,3.37,0,0,1,3.36,3.36Z"/><path class="cls-2" d="M16.88,3.22a2.27,2.27,0,1,0,2.27,2.27A2.27,2.27,0,0,0,16.88,3.22Zm0,3.22a1,1,0,1,1,.95-1A1,1,0,0,1,16.88,6.44Z"/><path class="cls-2" d="M23.32,3.22a2.27,2.27,0,1,0,2.27,2.27A2.27,2.27,0,0,0,23.32,3.22Zm0,3.22a1,1,0,1,1,.95-1A1,1,0,0,1,23.32,6.44Z"/><path class="cls-2" d="M29.76,3.22A2.27,2.27,0,1,0,32,5.49,2.27,2.27,0,0,0,29.76,3.22Zm0,3.22a1,1,0,1,1,.95-1A.95.95,0,0,1,29.76,6.44Z"/><path class="cls-2" d="M53.9,3.22h-8a2.27,2.27,0,0,0,0,4.54h8a2.27,2.27,0,1,0,0-4.54Zm0,3.22h-8a1,1,0,0,1,0-1.9h8a1,1,0,1,1,0,1.9Z"/><path class="cls-3" d="M16.88,34.32H34.59a.66.66,0,0,0,0-1.32H16.88a.66.66,0,0,0,0,1.32Z"/><path class="cls-3" d="M16.88,38.34h4.83a.66.66,0,0,0,0-1.32H16.88a.66.66,0,0,0,0,1.32Z"/><path class="cls-3" d="M16.88,42.37h9.66a.66.66,0,0,0,0-1.32H16.88a.66.66,0,1,0,0,1.32Z"/><path class="cls-3" d="M37.15,33.66a.66.66,0,0,0,.66.66h5.63a.66.66,0,0,0,0-1.32H37.81A.65.65,0,0,0,37.15,33.66Z"/><path class="cls-3" d="M46.66,34.32H53.9a.66.66,0,0,0,0-1.32H46.66a.66.66,0,0,0,0,1.32Z"/><path class="cls-3" d="M27.34,37H24.93a.66.66,0,0,0,0,1.32h2.41a.66.66,0,1,0,0-1.32Z"/><path class="cls-3" d="M30.56,38.34h9.66a.66.66,0,0,0,0-1.32H30.56a.66.66,0,1,0,0,1.32Z"/><path class="cls-3" d="M53.9,38.34a.66.66,0,0,0,0-1.32H43.44a.66.66,0,0,0,0,1.32Z"/><path class="cls-3" d="M45.05,41.05H29.76a.66.66,0,0,0,0,1.32H45.05a.66.66,0,0,0,0-1.32Z"/><path class="cls-3" d="M53.9,41.05H48.27a.66.66,0,1,0,0,1.32H53.9a.66.66,0,1,0,0-1.32Z"/><path class="cls-3" d="M17.12,26.75A.66.66,0,0,0,18,27l8-4.83a.65.65,0,0,0,.32-.56.67.67,0,0,0-.32-.57l-8-4.83a.66.66,0,0,0-.68,1.13l7.1,4.27-7.1,4.26A.65.65,0,0,0,17.12,26.75Z"/><path class="cls-3" d="M29,27.07h9.66a.66.66,0,1,0,0-1.32H29a.66.66,0,0,0,0,1.32Z"/></g></g></svg>