<svg xmlns="http://www.w3.org/2000/svg" viewBox="0 0 56.29 49"><defs><style>.cls-1{fill:#d9d5f4;}.cls-2{fill:#4531cb;}.cls-3{fill:#0c0c0c;}</style></defs><title>Visualisation</title><g id="Layer_2" data-name="Layer 2"><g id="Layer_1-2" data-name="Layer 1"><path class="cls-1" d="M22.49,45.52,13.37,30.61a2.29,2.29,0,0,0-3.91,0L.34,45.52a2.29,2.29,0,0,0,2,3.48H20.54A2.29,2.29,0,0,0,22.49,45.52Z"/><path class="cls-2" d="M55.77,0H13.14a.52.52,0,0,0-.52.52v45.2a.52.52,0,0,0,.52.53H55.77a.52.52,0,0,0,.52-.53V.52A.52.52,0,0,0,55.77,0Zm-.53,1.06V45.19H13.67V1.06Z"/><path class="cls-3" d="M34.45,30.5a5.38,5.38,0,1,0,5.38,5.37A5.38,5.38,0,0,0,34.45,30.5Zm1.68,8.06a1.68,1.68,0,1,1-1.68-1.67A1.68,1.68,0,0,1,36.13,38.56Zm-4.36,0a2.35,2.35,0,0,0,.06.51l.05.32-.24-.21a4.37,4.37,0,1,1,5.63,0l-.24.21.06-.32a2.94,2.94,0,0,0,0-.51,2.69,2.69,0,0,0-5.37,0Z"/><path class="cls-2" d="M44.37,32.4l1.59-2a.51.51,0,1,0-.8-.62l-1.55,2-.09-.07a14.12,14.12,0,0,0-1.81-1.26l-.09,0,1-2.13a.51.51,0,0,0-.93-.42l-.93,2.08-.11-.05A14.27,14.27,0,0,0,38.55,29l-.1,0,.44-2.16a.51.51,0,0,0-.07-.38.54.54,0,0,0-.33-.22.52.52,0,0,0-.38.08.51.51,0,0,0-.21.32l-.43,2.11-.11,0A13.62,13.62,0,0,0,35,28.45h-.11V26.39a.51.51,0,0,0-1,0v2.05H33.8a15.14,15.14,0,0,0-2.27.28l-.11,0L31,26.69a.47.47,0,0,0-.21-.32.52.52,0,0,0-.38-.08.49.49,0,0,0-.32.22.46.46,0,0,0-.08.38L30.44,29l-.1,0a13.63,13.63,0,0,0-2.07.8l-.1.05-.94-2.12a.52.52,0,0,0-.67-.26.51.51,0,0,0-.25.67l1,2.18-.09.05a14.91,14.91,0,0,0-1.84,1.29l-.09.08-1.48-2.19a.5.5,0,0,0-.42-.22.47.47,0,0,0-.28.09.52.52,0,0,0-.22.32.56.56,0,0,0,.08.38l1.55,2.3-.07.06A14.73,14.73,0,0,0,22,35.62a.57.57,0,0,0,0,.51,14.4,14.4,0,0,0,24.93,0,.52.52,0,0,0,0-.51,14.42,14.42,0,0,0-2.48-3.15Zm1.52,3.47,0,.06a13.37,13.37,0,0,1-22.8,0l0-.06,0-.06a13.39,13.39,0,0,1,22.8,0Z"/><path class="cls-2" d="M48.45,24.41h4.26a.5.5,0,0,0,.5-.51V6.76a.5.5,0,0,0-.5-.51H48.45a.51.51,0,0,0-.51.51V23.9A.51.51,0,0,0,48.45,24.41Zm.5-1V7.27H52.2V23.4Z"/><path class="cls-2" d="M41.16,24.41h4.27a.51.51,0,0,0,.5-.51V11.27a.51.51,0,0,0-.5-.51H41.16a.5.5,0,0,0-.5.51V23.9A.5.5,0,0,0,41.16,24.41Zm.51-1V11.77h3.25V23.4Z"/><path class="cls-2" d="M38.15,24.41a.5.5,0,0,0,.5-.51V17.14a.5.5,0,0,0-.5-.51H33.88a.5.5,0,0,0-.5.51V23.9a.5.5,0,0,0,.5.51Zm-.51-6.77V23.4H34.39V17.64Z"/><path class="cls-3" d="M33.35,14.94h0a.51.51,0,0,0,.33-.13L45,4.75l-.09,1.71a.49.49,0,0,0,.13.36A.5.5,0,0,0,46,6.51l.15-2.93A.52.52,0,0,0,46,3.29l0,0h0V3.21h0l0,0a.52.52,0,0,0-.27-.1l-2.92-.14a.45.45,0,0,0-.36.12.49.49,0,0,0-.17.36.49.49,0,0,0,.13.36.51.51,0,0,0,.35.17L44.33,4l-11.28,10a.51.51,0,0,0-.17.34.5.5,0,0,0,.13.37A.49.49,0,0,0,33.35,14.94Z"/><path class="cls-2" d="M22.61,21.65a6.92,6.92,0,0,0,6.9-6.91.5.5,0,0,0-.5-.51h-5.9V8.34a.51.51,0,0,0-.5-.51,6.91,6.91,0,0,0,0,13.82Zm0-6.4h5.87v.12A5.9,5.9,0,1,1,22,8.88l.13,0v5.88A.51.51,0,0,0,22.61,15.25Z"/><path class="cls-3" d="M24.75,13.1h6.4a.5.5,0,0,0,.51-.5v-.08a7,7,0,0,0-6.91-6.83.51.51,0,0,0-.51.5V12.6A.5.5,0,0,0,24.75,13.1Zm.51-1V6.72h.12A5.93,5.93,0,0,1,30.61,12v.12Z"/></g></g></svg>