<svg id="Layer_1" data-name="Layer 1" xmlns="http://www.w3.org/2000/svg" viewBox="0 0 466 290"><defs><style>.cls-1{fill:#8b89fd;}</style></defs><title>EdReate</title><path class="cls-1" d="M286.11,71l26.37-14V233H286.11V211.07A48.21,48.21,0,0,1,269.89,227q-10,6-23.44,6a64.58,64.58,0,0,1-25.86-5.19A67.94,67.94,0,0,1,185,192.19a67.05,67.05,0,0,1,0-51.78,67.8,67.8,0,0,1,35.61-35.67,64.41,64.41,0,0,1,25.86-5.2q13.43,0,23.44,6a48.77,48.77,0,0,1,16.22,15.78ZM246.7,207.53A34.65,34.65,0,0,0,266.22,202a37,37,0,0,0,13-14.89,49,49,0,0,0-.07-41.7,37.7,37.7,0,0,0-13-14.89A34.37,34.37,0,0,0,246.7,125a37.56,37.56,0,0,0-20.09,5.58,41.52,41.52,0,0,0-14.45,15,41,41,0,0,0-5.38,20.78,40.15,40.15,0,0,0,5.51,20.86A42.13,42.13,0,0,0,226.86,202,37.43,37.43,0,0,0,246.7,207.53Z"/><path class="cls-1" d="M331.58,233V106.26H358v13.43a47.13,47.13,0,0,1,16.22-12.42A48,48,0,0,1,395,102.7,53.11,53.11,0,0,1,409,104.61L398.5,131.22a27.49,27.49,0,0,0-9.88-1.9,29.64,29.64,0,0,0-15.34,4.12,31.5,31.5,0,0,0-11.15,11.09A29.46,29.46,0,0,0,358,160v73Z"/><path class="cls-1" d="M89,155.44v20.15h77a74.72,74.72,0,0,0-2.41-29.22A68.94,68.94,0,0,0,150.91,122a61.87,61.87,0,0,0-20.78-16.6,61.57,61.57,0,0,0-51.34-.83A63.49,63.49,0,0,0,58.58,119,68.32,68.32,0,0,0,40,166.33,67.31,67.31,0,0,0,71.51,224a58.88,58.88,0,0,0,31.88,9,58.66,58.66,0,0,0,34.34-10.7,66.4,66.4,0,0,0,22.94-27.58l-26.74-6.21a38,38,0,0,1-13,13.31,33.07,33.07,0,0,1-17.55,4.82,34.93,34.93,0,0,1-16.55-4.18A35.83,35.83,0,0,1,82,199.2c-9.38-6.59-15.76-19.56-15.76-34.48s6.4-27.92,15.8-34.51A38.69,38.69,0,0,1,86.72,127a34.45,34.45,0,0,1,33.46.07A38.73,38.73,0,0,1,133,138.89a37.9,37.9,0,0,1,6.4,16.55Z"/><path class="cls-1" d="M412.81,206.64A13.18,13.18,0,1,0,426,219.82,13.19,13.19,0,0,0,412.81,206.64Z"/></svg>