<svg id="Layer_1" data-name="Layer 1" xmlns="http://www.w3.org/2000/svg" viewBox="0 0 1000 366"><defs><style>.cls-1{fill:#8b89fd;}.cls-2{fill:#fff;}</style></defs><title>EdReate</title><path class="cls-1" d="M306.93,63.41l26.46-14V226H306.93V204a48.5,48.5,0,0,1-16.27,16q-10.05,6-23.53,6a64.84,64.84,0,0,1-25.94-5.21,68.17,68.17,0,0,1-35.74-35.74,67.36,67.36,0,0,1,0-51.95,68,68,0,0,1,35.74-35.8,64.84,64.84,0,0,1,25.94-5.21q13.47,0,23.53,6A48.88,48.88,0,0,1,306.93,114Zm-39.55,137A34.86,34.86,0,0,0,287,194.92,37.22,37.22,0,0,0,300,180a49.17,49.17,0,0,0-.06-41.83,37.86,37.86,0,0,0-13-14.95,34.51,34.51,0,0,0-19.52-5.53,37.7,37.7,0,0,0-20.15,5.6,41.71,41.71,0,0,0-14.5,15,41.06,41.06,0,0,0-5.4,20.86A40.28,40.28,0,0,0,232.86,180a42.36,42.36,0,0,0,14.62,14.88A37.65,37.65,0,0,0,267.38,200.45Z"/><path class="cls-1" d="M352.55,226V98.84H379v13.48a47.32,47.32,0,0,1,16.27-12.47,48.17,48.17,0,0,1,20.86-4.58,53.43,53.43,0,0,1,14.11,1.91L419.7,123.89a27.46,27.46,0,0,0-9.92-1.91,29.76,29.76,0,0,0-15.39,4.13,31.73,31.73,0,0,0-11.19,11.13A29.66,29.66,0,0,0,379,152.76V226Z"/><path class="cls-2" d="M677.35,95.81H703.8V226H677.22l-1-21.74A44.2,44.2,0,0,1,661.07,220q-9.54,6-22.51,6a66.14,66.14,0,0,1-26.32-5.28,67.76,67.76,0,0,1-21.69-14.68A68.69,68.69,0,0,1,576,184.36,66.67,66.67,0,0,1,570.78,158,65.67,65.67,0,0,1,590,111.3,66.81,66.81,0,0,1,610.9,97.12,63.54,63.54,0,0,1,636.4,92a47.06,47.06,0,0,1,24.48,6.3,57.17,57.17,0,0,1,17.61,16.08ZM637.92,200.45a34.86,34.86,0,0,0,19.59-5.53,37.22,37.22,0,0,0,13-14.95,49.08,49.08,0,0,0-.06-41.83,37.86,37.86,0,0,0-13-14.95,34.51,34.51,0,0,0-19.52-5.53,38.06,38.06,0,0,0-20.22,5.6,41.15,41.15,0,0,0-14.5,15,41.62,41.62,0,0,0-5.33,20.86A40.28,40.28,0,0,0,603.4,180,42.36,42.36,0,0,0,618,194.92,37.65,37.65,0,0,0,637.92,200.45Z"/><path class="cls-2" d="M769.21,179.07V117.46h32.64V95.81H720.73v21.65h22.56v63.65c0,27.85,17,44.9,44.66,44.9h19.27V202.46H792.84C777.57,202.46,769.21,194.1,769.21,179.07Z"/><polygon class="cls-1" points="781.39 82.45 756.96 49.41 732.53 82.45 781.39 82.45"/><path class="cls-2" d="M475.24,148.18V168.4h77.23a74.61,74.61,0,0,0-2.42-29.31,69.27,69.27,0,0,0-12.72-24.42A62.1,62.1,0,0,0,516.48,98,61.86,61.86,0,0,0,465,97.18a63.81,63.81,0,0,0-20.28,14.44,68.47,68.47,0,0,0-18.63,47.49A67.58,67.58,0,0,0,457.66,217a60.9,60.9,0,0,0,66.45-1.71,66.54,66.54,0,0,0,23-27.67l-26.82-6.23a38.28,38.28,0,0,1-13,13.35,33.18,33.18,0,0,1-17.61,4.84,34.91,34.91,0,0,1-16.6-4.2,35.42,35.42,0,0,1-4.85-3.26c-9.41-6.62-15.81-19.63-15.81-34.6s6.42-28,15.85-34.63a38.88,38.88,0,0,1,4.68-3.18,33.69,33.69,0,0,1,16.73-4.32,33.33,33.33,0,0,1,16.84,4.39,38.82,38.82,0,0,1,12.85,11.82,37.88,37.88,0,0,1,6.42,16.6Z"/><path class="cls-1" d="M109.18,148.18V168.4h77.23A74.61,74.61,0,0,0,184,139.09a69.25,69.25,0,0,0-12.71-24.42A62.23,62.23,0,0,0,150.42,98a61.86,61.86,0,0,0-51.51-.83,63.81,63.81,0,0,0-20.28,14.44A68.47,68.47,0,0,0,60,159.11,67.58,67.58,0,0,0,91.6,217a60.9,60.9,0,0,0,66.45-1.71,66.64,66.64,0,0,0,23-27.67l-26.83-6.23a38.2,38.2,0,0,1-13,13.35,33.18,33.18,0,0,1-17.61,4.84,34.91,34.91,0,0,1-16.6-4.2,35.42,35.42,0,0,1-4.85-3.26c-9.41-6.62-15.81-19.63-15.81-34.6s6.42-28,15.85-34.63a38.88,38.88,0,0,1,4.68-3.18,33.72,33.72,0,0,1,16.73-4.32,33.33,33.33,0,0,1,16.84,4.39,38.82,38.82,0,0,1,12.85,11.82,37.88,37.88,0,0,1,6.42,16.6Z"/><path class="cls-2" d="M862.3,148.18V168.4h77.22a74.8,74.8,0,0,0-2.41-29.31,69.43,69.43,0,0,0-12.72-24.42A62.23,62.23,0,0,0,903.53,98a61.84,61.84,0,0,0-51.5-.83,63.59,63.59,0,0,0-20.28,14.44,68.54,68.54,0,0,0-18.64,47.49A67.56,67.56,0,0,0,844.72,217a60.89,60.89,0,0,0,66.44-1.71,66.57,66.57,0,0,0,23-27.67l-26.83-6.23a38.11,38.11,0,0,1-13,13.35,33.15,33.15,0,0,1-17.61,4.84,34.87,34.87,0,0,1-16.59-4.2,35.42,35.42,0,0,1-4.85-3.26c-9.41-6.62-15.82-19.63-15.82-34.6s6.42-28,15.86-34.63a38.1,38.1,0,0,1,4.68-3.18,34.52,34.52,0,0,1,33.57.07,38.88,38.88,0,0,1,12.84,11.82,37.9,37.9,0,0,1,6.43,16.6Z"/><path class="cls-2" d="M189.2,267.49l-9.75,33.33h-9.09l-6.07-23.28-6.08,23.28h-9.15l-9.8-33.33h8.54l5.89,25.39,6.38-25.39H169l6.25,25.33,5.9-25.33Z"/><path class="cls-2" d="M223.69,286.68H199.32a8.27,8.27,0,0,0,2.52,5.66,7.82,7.82,0,0,0,5.48,2,6.88,6.88,0,0,0,6.68-4h9.08a15.11,15.11,0,0,1-5.53,7.91,16.15,16.15,0,0,1-10.05,3.1,17.45,17.45,0,0,1-8.64-2.13,15.07,15.07,0,0,1-6-6.05,18.6,18.6,0,0,1-2.14-9,18.79,18.79,0,0,1,2.11-9.08,14.67,14.67,0,0,1,5.89-6,17.74,17.74,0,0,1,8.73-2.11A17.53,17.53,0,0,1,216,269a14.39,14.39,0,0,1,5.84,5.81,17.5,17.5,0,0,1,2.08,8.63A20,20,0,0,1,223.69,286.68ZM215.2,281a6.68,6.68,0,0,0-2.34-5.2,8.37,8.37,0,0,0-5.6-2,7.68,7.68,0,0,0-5.27,1.9,8.34,8.34,0,0,0-2.61,5.26Z"/><path class="cls-2" d="M275.13,286.68H250.76a8.32,8.32,0,0,0,2.53,5.66,7.8,7.8,0,0,0,5.48,2,6.89,6.89,0,0,0,6.68-4h9.08a15.13,15.13,0,0,1-5.54,7.91,16.1,16.1,0,0,1-10,3.1,17.45,17.45,0,0,1-8.64-2.13,15.09,15.09,0,0,1-6-6.05,18.6,18.6,0,0,1-2.13-9,18.9,18.9,0,0,1,2.1-9.08,14.69,14.69,0,0,1,5.9-6,18.9,18.9,0,0,1,17.24-.06,14.45,14.45,0,0,1,5.84,5.81,17.6,17.6,0,0,1,2.07,8.63A20,20,0,0,1,275.13,286.68ZM266.65,281a6.69,6.69,0,0,0-2.35-5.2,8.33,8.33,0,0,0-5.6-2,7.66,7.66,0,0,0-5.26,1.9,8.3,8.3,0,0,0-2.62,5.26Z"/><path class="cls-2" d="M281.53,275.07a14.53,14.53,0,0,1,13.27-8.13,14.2,14.2,0,0,1,6.19,1.42,12.35,12.35,0,0,1,4.7,3.76V259.24h8.54v41.58h-8.54v-4.93a11.47,11.47,0,0,1-4.4,4,13.77,13.77,0,0,1-6.56,1.5,14.37,14.37,0,0,1-7.7-2.16,15.12,15.12,0,0,1-5.5-6.11,19.56,19.56,0,0,1-2-9.06A19.2,19.2,0,0,1,281.53,275.07Zm23,3.82a8.44,8.44,0,0,0-3.25-3.37,8.7,8.7,0,0,0-4.39-1.17,8.45,8.45,0,0,0-7.55,4.48,10.47,10.47,0,0,0-1.23,5.2,10.85,10.85,0,0,0,1.23,5.27,8.91,8.91,0,0,0,3.25,3.46,8.27,8.27,0,0,0,4.3,1.2,8.7,8.7,0,0,0,4.39-1.17,8.44,8.44,0,0,0,3.25-3.37,12.15,12.15,0,0,0,0-10.53Z"/><path class="cls-2" d="M353.72,267.49v33.33h-8.49v-4.21A11.07,11.07,0,0,1,341,300a13.18,13.18,0,0,1-5.68,1.23,14.13,14.13,0,0,1-6.92-1.65,11.64,11.64,0,0,1-4.72-4.88A16,16,0,0,1,322,287V267.49h8.42v18.35a8.68,8.68,0,0,0,2,6.11,7,7,0,0,0,5.41,2.13,7.12,7.12,0,0,0,5.48-2.13,8.67,8.67,0,0,0,2-6.11V267.49Z"/><path class="cls-2" d="M362,275.1a15,15,0,0,1,5.84-6,16.92,16.92,0,0,1,8.54-2.14A16.43,16.43,0,0,1,386.6,270a15.08,15.08,0,0,1,5.45,8.7H383a6.61,6.61,0,0,0-2.43-3.4,7.12,7.12,0,0,0-4.25-1.24,7,7,0,0,0-5.71,2.62c-1.41,1.75-2.11,4.22-2.11,7.43s.7,5.63,2.11,7.37a6.93,6.93,0,0,0,5.71,2.62q5.12,0,6.68-4.57h9.09a15.33,15.33,0,0,1-5.48,8.6,16.12,16.12,0,0,1-10.23,3.19,16.91,16.91,0,0,1-8.54-2.13,15.11,15.11,0,0,1-5.84-6,20.57,20.57,0,0,1,0-18.11Z"/><path class="cls-2" d="M397.9,275.07a14.44,14.44,0,0,1,13.2-8.13,13.6,13.6,0,0,1,6.53,1.51,13.18,13.18,0,0,1,4.48,3.79v-4.75h8.49v33.33h-8.49V296a12.47,12.47,0,0,1-4.48,3.88,13.72,13.72,0,0,1-6.58,1.53,14.2,14.2,0,0,1-7.68-2.16,15.2,15.2,0,0,1-5.47-6.11,19.56,19.56,0,0,1-2-9.06A19.2,19.2,0,0,1,397.9,275.07Zm23,3.82a8.44,8.44,0,0,0-3.25-3.37,8.7,8.7,0,0,0-4.39-1.17,8.45,8.45,0,0,0-7.55,4.48,10.47,10.47,0,0,0-1.23,5.2,10.85,10.85,0,0,0,1.23,5.27,8.91,8.91,0,0,0,3.25,3.46,8.27,8.27,0,0,0,4.3,1.2,8.7,8.7,0,0,0,4.39-1.17,8.44,8.44,0,0,0,3.25-3.37,12.15,12.15,0,0,0,0-10.53Z"/><path class="cls-2" d="M448.5,274.41v16.12a3.2,3.2,0,0,0,.82,2.44,4,4,0,0,0,2.74.75H456v7.1h-5.3q-10.65,0-10.65-10.35V274.41h-4v-6.92h4v-8.25h8.48v8.25H456v6.92Z"/><path class="cls-2" d="M492.33,286.68H468a8.28,8.28,0,0,0,2.53,5.66,7.79,7.79,0,0,0,5.47,2,6.87,6.87,0,0,0,6.68-4h9.09a15.19,15.19,0,0,1-5.54,7.91,16.15,16.15,0,0,1-10.05,3.1,17.42,17.42,0,0,1-8.63-2.13,15.09,15.09,0,0,1-6-6.05,18.6,18.6,0,0,1-2.13-9,18.9,18.9,0,0,1,2.1-9.08,14.69,14.69,0,0,1,5.9-6,18.9,18.9,0,0,1,17.24-.06,14.37,14.37,0,0,1,5.83,5.81,17.5,17.5,0,0,1,2.08,8.63A20,20,0,0,1,492.33,286.68ZM483.84,281a6.68,6.68,0,0,0-2.34-5.2,8.35,8.35,0,0,0-5.6-2,7.66,7.66,0,0,0-5.26,1.9A8.3,8.3,0,0,0,468,281Z"/><path class="cls-2" d="M497.91,299.83a4.95,4.95,0,0,1,0-7,5.23,5.23,0,0,1,3.76-1.42,5,5,0,0,1,3.67,1.42,5,5,0,0,1,0,7,5,5,0,0,1-3.67,1.41A5.22,5.22,0,0,1,497.91,299.83Z"/><path class="cls-2" d="M559.8,267.49l-20.64,49.1h-9L537.41,300l-13.35-32.49h9.44l8.61,23.28,8.72-23.28Z"/><path class="cls-2" d="M568.84,299.23a15.37,15.37,0,0,1-6.05-6.05,18.08,18.08,0,0,1-2.2-9,17.76,17.76,0,0,1,2.26-9,15.67,15.67,0,0,1,6.17-6.05,18.86,18.86,0,0,1,17.45,0,15.67,15.67,0,0,1,6.17,6.05,17.76,17.76,0,0,1,2.25,9,17.34,17.34,0,0,1-2.32,9,16.07,16.07,0,0,1-6.25,6.05,18.26,18.26,0,0,1-8.82,2.13A17.56,17.56,0,0,1,568.84,299.23Zm13-6.32a8.05,8.05,0,0,0,3.22-3.34,11.16,11.16,0,0,0,1.21-5.42c0-3.17-.84-5.6-2.5-7.31a8.21,8.21,0,0,0-6.11-2.55,8.05,8.05,0,0,0-6,2.55c-1.62,1.71-2.43,4.14-2.43,7.31s.79,5.61,2.37,7.31a7.84,7.84,0,0,0,6,2.56A8.75,8.75,0,0,0,581.8,292.91Z"/><path class="cls-2" d="M632.3,267.49v33.33h-8.49v-4.21a11.15,11.15,0,0,1-4.24,3.4,13.22,13.22,0,0,1-5.69,1.23,14.16,14.16,0,0,1-6.92-1.65,11.7,11.7,0,0,1-4.72-4.88,16.11,16.11,0,0,1-1.71-7.67V267.49H609v18.35a8.67,8.67,0,0,0,2,6.11,8,8,0,0,0,10.89,0,8.63,8.63,0,0,0,2-6.11V267.49Z"/><path class="cls-2" d="M654.86,275.1a15,15,0,0,1,5.83-6,17,17,0,0,1,8.55-2.14A16.47,16.47,0,0,1,679.5,270a15.12,15.12,0,0,1,5.44,8.7h-9.08a6.68,6.68,0,0,0-2.44-3.4,7.09,7.09,0,0,0-4.24-1.24,7,7,0,0,0-5.72,2.62c-1.4,1.75-2.1,4.22-2.1,7.43s.7,5.63,2.1,7.37a6.93,6.93,0,0,0,5.72,2.62c3.41,0,5.63-1.52,6.68-4.57h9.08a15.33,15.33,0,0,1-5.48,8.6,16.07,16.07,0,0,1-10.22,3.19,17,17,0,0,1-8.55-2.13,15.09,15.09,0,0,1-5.83-6,20.48,20.48,0,0,1,0-18.11Z"/><path class="cls-2" d="M703.48,268.51a11.78,11.78,0,0,1,6-1.5v8.84h-2.22q-4,0-6,1.87c-1.35,1.24-2,3.41-2,6.49v16.61h-8.42V267.49h8.42v5.17A11.89,11.89,0,0,1,703.48,268.51Z"/><path class="cls-2" d="M745.47,286.68H721.09a8.32,8.32,0,0,0,2.53,5.66,7.82,7.82,0,0,0,5.48,2,6.89,6.89,0,0,0,6.68-4h9.08a15.17,15.17,0,0,1-5.53,7.91,16.15,16.15,0,0,1-10.05,3.1,17.45,17.45,0,0,1-8.64-2.13,15.15,15.15,0,0,1-6-6.05,18.6,18.6,0,0,1-2.13-9,18.79,18.79,0,0,1,2.11-9.08,14.67,14.67,0,0,1,5.89-6,18.9,18.9,0,0,1,17.24-.06,14.45,14.45,0,0,1,5.84,5.81,17.6,17.6,0,0,1,2.08,8.63A21.14,21.14,0,0,1,745.47,286.68ZM737,281a6.69,6.69,0,0,0-2.35-5.2,8.32,8.32,0,0,0-5.59-2,7.67,7.67,0,0,0-5.27,1.9,8.34,8.34,0,0,0-2.61,5.26Z"/><path class="cls-2" d="M751.86,275.07a14.44,14.44,0,0,1,13.21-8.13,13.59,13.59,0,0,1,6.52,1.51,13.31,13.31,0,0,1,4.49,3.79v-4.75h8.48v33.33h-8.48V296a12.59,12.59,0,0,1-4.49,3.88,13.72,13.72,0,0,1-6.58,1.53,14.23,14.23,0,0,1-7.68-2.16,15.2,15.2,0,0,1-5.47-6.11,19.56,19.56,0,0,1-2-9.06A19.2,19.2,0,0,1,751.86,275.07Zm23,3.82a8.44,8.44,0,0,0-3.25-3.37,8.67,8.67,0,0,0-4.39-1.17,8.54,8.54,0,0,0-4.33,1.14,8.64,8.64,0,0,0-3.22,3.34,10.47,10.47,0,0,0-1.23,5.2,10.85,10.85,0,0,0,1.23,5.27,8.91,8.91,0,0,0,3.25,3.46,8.27,8.27,0,0,0,4.3,1.2,8.67,8.67,0,0,0,4.39-1.17,8.44,8.44,0,0,0,3.25-3.37,12.06,12.06,0,0,0,0-10.53Z"/><path class="cls-2" d="M802.47,274.41v16.12a3.2,3.2,0,0,0,.81,2.44,4,4,0,0,0,2.74.75h3.91v7.1h-5.3q-10.65,0-10.65-10.35V274.41h-4v-6.92h4v-8.25h8.49v8.25h7.46v6.92Z"/><path class="cls-2" d="M846.29,286.68H821.92a8.28,8.28,0,0,0,2.53,5.66,7.78,7.78,0,0,0,5.47,2,6.88,6.88,0,0,0,6.68-4h9.08a15.11,15.11,0,0,1-5.53,7.91,16.15,16.15,0,0,1-10,3.1,17.42,17.42,0,0,1-8.63-2.13,15,15,0,0,1-6-6.05,18.6,18.6,0,0,1-2.14-9,18.79,18.79,0,0,1,2.11-9.08,14.67,14.67,0,0,1,5.89-6,18.92,18.92,0,0,1,17.25-.06,14.43,14.43,0,0,1,5.83,5.81,17.5,17.5,0,0,1,2.08,8.63A20,20,0,0,1,846.29,286.68ZM837.8,281a6.68,6.68,0,0,0-2.34-5.2,8.35,8.35,0,0,0-5.6-2,7.66,7.66,0,0,0-5.26,1.9A8.3,8.3,0,0,0,822,281Z"/><path class="cls-2" d="M851.87,299.83a4.95,4.95,0,0,1,0-7,5.23,5.23,0,0,1,3.76-1.42,5,5,0,0,1,3.67,1.42,5,5,0,0,1,0,7,5,5,0,0,1-3.67,1.41A5.22,5.22,0,0,1,851.87,299.83Z"/></svg>