<svg xmlns="http://www.w3.org/2000/svg" viewBox="0 0 62.97 71.88"><defs><style>.cls-1{font-size:14px;font-family:Poppins-Regular, Poppins;letter-spacing:0.02em;}.cls-2{fill:#d9d5f4;}.cls-3{fill:#4531cb;}.cls-4{fill:#0c0c0c;}</style></defs><title>Actuator</title><g id="Layer_2" data-name="Layer 2"><g id="Layer_1-2" data-name="Layer 1"><text class="cls-1" transform="translate(0 63.88)">Actuator</text><path class="cls-2" d="M25.79,39.78,16.67,24.87a2.29,2.29,0,0,0-3.9,0L3.64,39.78a2.3,2.3,0,0,0,1.95,3.49H23.84A2.29,2.29,0,0,0,25.79,39.78Z"/><path class="cls-3" d="M8.68,13.65V28.54a5,5,0,0,0,5,5h3.68v3.21H14.94a2.21,2.21,0,1,0,0,4.42H39.39a2.21,2.21,0,0,0,0-4.42H37V33.52h7.46a1.89,1.89,0,0,0,1.89-1.89v-7H51.1a2.26,2.26,0,0,0,2.26-2.26V19.85a2.26,2.26,0,0,0-2.26-2.26H46.32v-7a1.9,1.9,0,0,0-1.89-1.9H33.82V6.52h1.11A2.54,2.54,0,0,0,37.47,4V2.53A2.54,2.54,0,0,0,34.93,0H26.26a2.54,2.54,0,0,0-2.54,2.53V4a2.54,2.54,0,0,0,2.54,2.53h1.11V8.66H13.67A5,5,0,0,0,8.68,13.65Zm37.64,5H51.1a1.2,1.2,0,0,1,1.2,1.2v2.49a1.21,1.21,0,0,1-1,1.19H46.32ZM26.26,5.46A1.47,1.47,0,0,1,24.79,4V2.53a1.46,1.46,0,0,1,1.47-1.46h8.67A1.46,1.46,0,0,1,36.4,2.53V4a1.46,1.46,0,0,1-1.46,1.47Zm6.51,1.06V8.66H28.43V6.52Zm7.44,3.21h4.22a.83.83,0,0,1,.83.83V31.63a.83.83,0,0,1-.83.83H40.21Zm-.82,28.05a1.16,1.16,0,0,1,0,2.31H14.94a1.15,1.15,0,0,1-1.16-1.15,1.17,1.17,0,0,1,1.15-1.16Zm-6.14-1.05V33.52h2.66v3.21Zm-11.12,0V33.52H32.19v3.21Zm-3.72,0V33.52h2.66v3.21ZM15.85,9.85h23.3V32.46H15.85Zm-6.11,3.8a3.93,3.93,0,0,1,3.92-3.92h1.13V32.46H13.66a3.93,3.93,0,0,1-3.92-3.92Z"/><path class="cls-4" d="M18.35,14.38a2.07,2.07,0,0,0,2.06,2.07H34.59a2.07,2.07,0,0,0,0-4.13H20.41A2.07,2.07,0,0,0,18.35,14.38Zm1.06,0a1,1,0,0,1,1-1H34.59a1,1,0,0,1,0,2H20.41A1,1,0,0,1,19.41,14.38Z"/><path class="cls-4" d="M18.35,21.09a2.06,2.06,0,0,0,2.06,2.06H34.59a2.06,2.06,0,0,0,0-4.12H20.41A2.06,2.06,0,0,0,18.35,21.09Zm1.06,0a1,1,0,0,1,1-1H34.59a1,1,0,0,1,0,2H20.41A1,1,0,0,1,19.41,21.09Z"/><path class="cls-4" d="M18.35,27.79a2.07,2.07,0,0,0,2.06,2.07H34.59a2.07,2.07,0,0,0,0-4.13H20.41A2.07,2.07,0,0,0,18.35,27.79Zm1.06,0a1,1,0,0,1,1-1H34.59a1,1,0,0,1,0,2H20.41A1,1,0,0,1,19.41,27.79Z"/></g></g></svg>