<svg xmlns="http://www.w3.org/2000/svg" viewBox="0 0 57.91 66.12"><defs><style>.cls-1{font-size:14px;font-family:Poppins-Regular, Poppins;letter-spacing:0.02em;}.cls-2{fill:#d9d5f4;}.cls-3{fill:#4531cb;}.cls-4{fill:#0c0c0c;}</style></defs><title>Battery</title><g id="Layer_2" data-name="Layer 2"><g id="Layer_1-2" data-name="Layer 1"><text class="cls-1" transform="translate(5.93 58.11)">Battery</text><path class="cls-2" d="M22.49,35.74,13.37,20.83a2.29,2.29,0,0,0-3.91,0L.34,35.74a2.29,2.29,0,0,0,2,3.48H20.54A2.29,2.29,0,0,0,22.49,35.74Z"/><path class="cls-3" d="M12.1,35.66H45a.62.62,0,0,0,0-1.24H12.1a2.83,2.83,0,0,1-2.82-2.83V18.28a.62.62,0,1,0-1.24,0V31.59A4.07,4.07,0,0,0,12.1,35.66Z"/><path class="cls-4" d="M12.72,20.83a.62.62,0,1,0-1.24,0V31.59a.62.62,0,0,0,.62.62H48.46a.61.61,0,0,0,.62-.62V16.17a.62.62,0,0,0-.62-.62H28.36a.62.62,0,1,0,0,1.24h1.3V31H21.81V21.66a.62.62,0,1,0-1.24,0V31H12.72Zm27.27-4h7.85V31H40Zm-9.09,0h7.85V31H30.9Z"/><path class="cls-3" d="M53.45,18h-.92V16.17a4.07,4.07,0,0,0-4.07-4.06H29.82a.62.62,0,0,0,0,1.24H48.46a2.83,2.83,0,0,1,2.83,2.82V31.59a2.83,2.83,0,0,1-2.83,2.83.62.62,0,0,0,0,1.24,4.07,4.07,0,0,0,4.07-4.07V29.74h.92A2.35,2.35,0,0,0,55.8,27.4v-7A2.36,2.36,0,0,0,53.45,18Zm1.11,9.38a1.11,1.11,0,0,1-1.11,1.1h-.92V19.27h.92a1.11,1.11,0,0,1,1.11,1.1Z"/><path class="cls-3" d="M17.71,0a9.67,9.67,0,1,0,6.83,2.84A9.71,9.71,0,0,0,17.71,0Zm5.95,15.63a8.42,8.42,0,1,1,1.83-9.18A8.43,8.43,0,0,1,23.66,15.63Z"/><path class="cls-4" d="M21.71,9.05H18.32V4.17a.62.62,0,0,0-1.24,0v5.5a.62.62,0,0,0,.62.62h4a.56.56,0,0,0,.46-.19.63.63,0,0,0,.16-.43A.59.59,0,0,0,21.71,9.05Z"/></g></g></svg>