<svg xmlns="http://www.w3.org/2000/svg" viewBox="0 0 58.21 70.66"><defs><style>.cls-1{font-size:14px;font-family:Poppins-Regular, Poppins;letter-spacing:0.02em;}.cls-2{fill:#d9d5f4;}.cls-3{fill:#4531cb;}.cls-4{fill:#0c0c0c;}</style></defs><title>Bugs</title><g id="Layer_2" data-name="Layer 2"><g id="Layer_1-2" data-name="Layer 1"><text class="cls-1" transform="translate(16.51 62.65)">Bugs</text><path class="cls-2" d="M22.49,38.62,13.37,23.71a2.29,2.29,0,0,0-3.91,0L.34,38.62a2.29,2.29,0,0,0,2,3.48H20.54A2.29,2.29,0,0,0,22.49,38.62Z"/><path class="cls-3" d="M15.11,2.78a2,2,0,1,0,2,2A2,2,0,0,0,15.11,2.78Zm0,2.82a.83.83,0,1,1,.82-.82A.83.83,0,0,1,15.11,5.6Z"/><path class="cls-3" d="M21.21,2.78a2,2,0,1,0,2,2A2,2,0,0,0,21.21,2.78Zm0,2.82A.83.83,0,1,1,22,4.78.82.82,0,0,1,21.21,5.6Z"/><path class="cls-3" d="M27.15,2.78a2,2,0,1,0,2,2A2,2,0,0,0,27.15,2.78Zm0,2.82A.83.83,0,1,1,28,4.78.83.83,0,0,1,27.15,5.6Z"/><path class="cls-3" d="M53.19,2.78H43.32a.59.59,0,0,0,0,1.17h9.87a.83.83,0,0,1,0,1.65H33.45a.83.83,0,0,1,0-1.65h6.61a.59.59,0,1,0,0-1.17H33.45a2,2,0,0,0,0,4H53.19a2,2,0,0,0,0-4Z"/><path class="cls-4" d="M44.71,19.79l.95-1.69a.59.59,0,0,0-.22-.79.59.59,0,0,0-.45-.06.57.57,0,0,0-.35.28l-1,1.68a3.12,3.12,0,0,1-1.87,1.49l-.41.14,0-.13a3.39,3.39,0,0,0-2-2.25l-.06,0v-.08a4.38,4.38,0,0,0-1.76-3.2l-.11-.08,1.75-1.75a.58.58,0,0,0,.17-.41.59.59,0,0,0-.17-.42.6.6,0,0,0-.83,0l-2,2-.07,0a7.84,7.84,0,0,0-3.73,0l-.07,0,0,0-2-2a.6.6,0,0,0-.83,0,.59.59,0,0,0,0,.83l1.75,1.75-.11.08a4.36,4.36,0,0,0-1.76,3.2v.07l-.07,0a3.4,3.4,0,0,0-2,2.36l0,.13-.74-.24a3.16,3.16,0,0,1-1.89-1.5l-.94-1.68a.59.59,0,0,0-.36-.28.56.56,0,0,0-.44.06.55.55,0,0,0-.28.35.56.56,0,0,0,.06.44l.94,1.69a4.34,4.34,0,0,0,2.55,2l.93.3v.1a15.54,15.54,0,0,0-.06,1.63V24l-.1,0-3.39.71a.54.54,0,0,0-.37.25.58.58,0,0,0-.09.44.53.53,0,0,0,.26.37.56.56,0,0,0,.43.09l3.34-.7v.13a12.91,12.91,0,0,0,.63,2.81l0,.11-.39.13a4.34,4.34,0,0,0-2.56,2L24,32a.53.53,0,0,0-.05.44A.58.58,0,0,0,25,32.6L26,30.92a3.18,3.18,0,0,1,1.86-1.49l.5-.16,0,.09a9,9,0,0,0,.81,1.4,6.38,6.38,0,0,0,5.21,3.08,5.44,5.44,0,0,0,2.81-.79.58.58,0,0,0,.21-.8.59.59,0,0,0-.8-.21,4.33,4.33,0,0,1-2.22.63c-2.12,0-4.06-1.6-5.18-4.27a12.39,12.39,0,0,1-.92-4.79,12.92,12.92,0,0,1,.22-2.43,2.22,2.22,0,0,1,1.7-1.75,19.08,19.08,0,0,1,8.34,0,2.26,2.26,0,0,1,1.7,1.75,12.6,12.6,0,0,1,.23,2.44,11.63,11.63,0,0,1-1.73,6.32.58.58,0,0,0,.16.81.62.62,0,0,0,.44.08.54.54,0,0,0,.37-.25,8.81,8.81,0,0,0,.68-1.21l0-.09.48.16a3.16,3.16,0,0,1,1.88,1.49l.95,1.68a.57.57,0,0,0,.35.28.63.63,0,0,0,.45-.05.67.67,0,0,0,.28-.36.57.57,0,0,0-.06-.44l-.94-1.68a4.35,4.35,0,0,0-2.55-2l-.4-.13,0-.11a12.91,12.91,0,0,0,.63-2.81l0-.13,3.33.7a.56.56,0,0,0,.43-.09.53.53,0,0,0,.26-.37.59.59,0,0,0-.46-.69L41.68,24v-.1a11.67,11.67,0,0,0-.08-1.74V22l.57-.19A4.31,4.31,0,0,0,44.71,19.79ZM37.94,18.1a20.86,20.86,0,0,0-7,0l-.18,0,0-.18a3.2,3.2,0,0,1,3.1-2.48H35A3.2,3.2,0,0,1,38.08,18l0,.18Z"/><path class="cls-3" d="M13.65,37.8H54.8a3.41,3.41,0,0,0,3.41-3.41V31.33a.59.59,0,1,0-1.17,0v3.06a2.25,2.25,0,0,1-2.24,2.24H13.65a2.24,2.24,0,0,1-2.23-2.24V16.54a.59.59,0,0,0-1.18,0V34.39A3.41,3.41,0,0,0,13.65,37.8Z"/><path class="cls-3" d="M10.83,13.83a.59.59,0,0,0,.59-.58V9.6H57V28a.59.59,0,1,0,1.17,0V3.41A3.41,3.41,0,0,0,54.8,0H13.65a3.41,3.41,0,0,0-3.41,3.41v9.84A.59.59,0,0,0,10.83,13.83Zm.59-10.42a2.24,2.24,0,0,1,2.23-2.24H54.8A2.25,2.25,0,0,1,57,3.41v5H11.42Z"/></g></g></svg>