<svg xmlns="http://www.w3.org/2000/svg" viewBox="0 0 62.42 66.43"><defs><style>.cls-1{font-size:14px;font-family:Poppins-Regular, Poppins;letter-spacing:0.02em;}.cls-2{fill:#d9d5f4;}.cls-3{fill:#0c0c0c;}.cls-4{fill:#4531cb;}</style></defs><title>Camera</title><g id="Layer_2" data-name="Layer 2"><g id="Layer_1-2" data-name="Layer 1"><text class="cls-1" transform="translate(2.68 58.42)">Camera</text><path class="cls-2" d="M22.49,35.39,13.37,20.48a2.29,2.29,0,0,0-3.91,0L.34,35.39a2.29,2.29,0,0,0,2,3.48H20.54A2.29,2.29,0,0,0,22.49,35.39Z"/><path class="cls-3" d="M7.77,20.56A.79.79,0,1,0,7,19.78.78.78,0,0,0,7.77,20.56Z"/><path class="cls-4" d="M53.23,4.55H47.35a1.68,1.68,0,0,1-1.17-.49L43,.85a2.82,2.82,0,0,0-2-.85H29.17a2.86,2.86,0,0,0-2,.84L23.92,4.06a1.74,1.74,0,0,1-1.18.49h-3V2.88A2.89,2.89,0,0,0,16.86,0H14.59a2.88,2.88,0,0,0-2.88,2.88V4.55H10A2.88,2.88,0,0,0,7.16,7.43v9.09a.61.61,0,1,0,1.22,0V12.59h16.4l-.39.76A12,12,0,0,0,41.9,28.59L42,28.5H54.89v3.93a1.66,1.66,0,0,1-1.66,1.66H10a1.66,1.66,0,0,1-1.66-1.66V28.5H22.54a.62.62,0,1,0,0-1.23H8.38V23.34a.61.61,0,1,0-1.22,0v9.09A2.88,2.88,0,0,0,10,35.31H53.23a2.88,2.88,0,0,0,2.88-2.88v-25A2.88,2.88,0,0,0,53.23,4.55ZM12.93,2.88a1.66,1.66,0,0,1,1.66-1.66h2.27a1.66,1.66,0,0,1,1.66,1.66V4.55H12.93ZM35,29.55A10.76,10.76,0,1,1,45.8,18.79,10.79,10.79,0,0,1,35,29.55ZM54.89,11.36H48.68a.62.62,0,0,0,0,1.23h6.21V27.27H43.56l.71-.86A12,12,0,0,0,25.81,11.17l-.15.19H8.38V7.43A1.66,1.66,0,0,1,10,5.77h12.7a2.9,2.9,0,0,0,2-.85L28,1.71a1.72,1.72,0,0,1,1.17-.49H40.92a1.68,1.68,0,0,1,1.17.49l3.22,3.21a2.86,2.86,0,0,0,2,.85h5.89a1.66,1.66,0,0,1,1.66,1.66Z"/><path class="cls-3" d="M51,8a.61.61,0,0,0-.61.61.62.62,0,0,0,.61.61.61.61,0,0,0,.61-.61A.61.61,0,0,0,51,8Z"/><path class="cls-3" d="M14.59,8H12.32a.61.61,0,0,0-.61.61.61.61,0,0,0,.61.61h2.27a.61.61,0,0,0,.61-.61A.61.61,0,0,0,14.59,8Z"/><path class="cls-3" d="M35,24.65a5.74,5.74,0,1,1,5.74-5.73A5.74,5.74,0,0,1,35,24.65Zm0-10.34a4.61,4.61,0,1,0,4.61,4.61A4.6,4.6,0,0,0,35,14.31Z"/></g></g></svg>