<svg xmlns="http://www.w3.org/2000/svg" viewBox="0 0 76.12 67.36"><defs><style>.cls-1{font-size:14px;font-family:Poppins-Regular, Poppins;letter-spacing:0.02em;}.cls-2{fill:#d9d5f4;}.cls-3{fill:#4531cb;}.cls-4{fill:#0c0c0c;}</style></defs><title>Certificate</title><g id="Layer_2" data-name="Layer 2"><g id="Layer_1-2" data-name="Layer 1"><text class="cls-1" transform="translate(0 59.35)">Certificate</text><path class="cls-2" d="M26.45,37.15,17.33,22.24a2.28,2.28,0,0,0-3.9,0L4.3,37.15a2.29,2.29,0,0,0,2,3.48H24.5A2.28,2.28,0,0,0,26.45,37.15Z"/><path class="cls-3" d="M58.18,0H17.94a3.88,3.88,0,0,0-3.88,3.88v29a3.88,3.88,0,0,0,3.88,3.88H42.23V40.9a.66.66,0,0,0,1.12.47l2.76-2.75,2.75,2.75a.66.66,0,0,0,.72.14A.65.65,0,0,0,50,40.9V36.73h8.19a3.88,3.88,0,0,0,3.88-3.88v-29A3.88,3.88,0,0,0,58.18,0Zm-15,20.71a1.91,1.91,0,0,0-1.83-1.83.58.58,0,0,1-.45-.25.57.57,0,0,1-.06-.52,1.93,1.93,0,0,0-1-2.38.54.54,0,0,1-.32-.41.55.55,0,0,1,.14-.5,1.92,1.92,0,0,0,0-2.57.54.54,0,0,1-.14-.5.56.56,0,0,1,.32-.41,1.91,1.91,0,0,0,1-2.38.58.58,0,0,1,.06-.51.56.56,0,0,1,.46-.26,1.91,1.91,0,0,0,1.82-1.82.55.55,0,0,1,.25-.45A.57.57,0,0,1,44,5.86a1.9,1.9,0,0,0,2.38-1,.57.57,0,0,1,.9-.18,1.91,1.91,0,0,0,2.58,0,.57.57,0,0,1,.5-.14.61.61,0,0,1,.41.32,1.89,1.89,0,0,0,2.37,1,.57.57,0,0,1,.52.06.59.59,0,0,1,.26.45,1.91,1.91,0,0,0,1.82,1.82.59.59,0,0,1,.45.26.55.55,0,0,1,.07.51,1.91,1.91,0,0,0,1,2.38.56.56,0,0,1,.32.41.57.57,0,0,1-.14.5,1.92,1.92,0,0,0,0,2.57.58.58,0,0,1,.14.5.54.54,0,0,1-.32.41,1.89,1.89,0,0,0-1,2.38.57.57,0,0,1-.07.52.58.58,0,0,1-.45.25,1.91,1.91,0,0,0-1.82,1.83.58.58,0,0,1-.78.51,1.88,1.88,0,0,0-2.37,1,.61.61,0,0,1-.41.32H50.2a.54.54,0,0,1-.39-.15,1.91,1.91,0,0,0-2.58,0,.57.57,0,0,1-.5.14.59.59,0,0,1-.41-.33,1.88,1.88,0,0,0-2.37-1,.57.57,0,0,1-.52-.06A.55.55,0,0,1,43.18,20.71Zm5.49,18.6-2.1-2.09a.67.67,0,0,0-.93,0l-2.09,2.09V22.55h.15a1.73,1.73,0,0,0,.71-.11.59.59,0,0,1,.72.3,1.89,1.89,0,0,0,1.34,1.07,1.66,1.66,0,0,0,.44,0h.15v9a.66.66,0,0,0,1.12.47l.49-.48Zm-.29-8V23.2h.14a.54.54,0,0,1,.39.15,1.91,1.91,0,0,0,1.66.47,1.87,1.87,0,0,0,1.34-1.07.57.57,0,0,1,.72-.29,1.91,1.91,0,0,0,.71.1h.15v8.7L51.4,29.17a.67.67,0,0,0-.93,0Zm12.36,1.59a2.56,2.56,0,0,1-2.56,2.56H50V31.52l.95-.95,2.75,2.75a.66.66,0,0,0,1.12-.47V21.79l0,0a1.79,1.79,0,0,0,.34-1,.58.58,0,0,1,.56-.55,1.89,1.89,0,0,0,1.7-2.55.57.57,0,0,1,.29-.72,1.88,1.88,0,0,0,.6-3,.58.58,0,0,1,0-.78,1.9,1.9,0,0,0-.59-3,.56.56,0,0,1-.3-.72,1.89,1.89,0,0,0-1.7-2.55.59.59,0,0,1-.56-.55,1.89,1.89,0,0,0-2.54-1.7.57.57,0,0,1-.72-.3,1.91,1.91,0,0,0-3-.6.58.58,0,0,1-.78,0,1.88,1.88,0,0,0-1.65-.46,1.85,1.85,0,0,0-1.35,1.06.58.58,0,0,1-.73.3,1.89,1.89,0,0,0-2.54,1.7.57.57,0,0,1-.55.55A1.89,1.89,0,0,0,39.6,9.42a.56.56,0,0,1-.29.72,1.89,1.89,0,0,0-.6,3,.58.58,0,0,1,0,.78,1.88,1.88,0,0,0,.6,3,.57.57,0,0,1,.29.72,1.9,1.9,0,0,0,1.71,2.55.58.58,0,0,1,.55.55,1.79,1.79,0,0,0,.34,1l0,0V35.41H17.94a2.56,2.56,0,0,1-2.56-2.56v-29a2.56,2.56,0,0,1,2.56-2.56H58.18a2.56,2.56,0,0,1,2.56,2.56Z"/><path class="cls-3" d="M37.25,6.44H22.77a3.88,3.88,0,0,0-3.88,3.88V26.41a3.88,3.88,0,0,0,3.88,3.88H38.06a.66.66,0,0,0,0-1.32H22.77a2.56,2.56,0,0,1-2.56-2.56V10.32a2.56,2.56,0,0,1,2.56-2.56H37.25a.66.66,0,1,0,0-1.32Z"/><path class="cls-4" d="M23.57,19H34.84a.66.66,0,1,0,0-1.32H23.57a.66.66,0,0,0,0,1.32Z"/><path class="cls-4" d="M23.57,15.81H34.84a.66.66,0,0,0,0-1.32H23.57a.66.66,0,0,0,0,1.32Z"/><path class="cls-4" d="M23.57,12.59H34.84a.66.66,0,1,0,0-1.32H23.57a.66.66,0,0,0,0,1.32Z"/><path class="cls-4" d="M23,26.68a.65.65,0,0,0,.6.39h0a.53.53,0,0,0,.25-.05,6,6,0,0,0,2-1.2,3.35,3.35,0,0,0,.54-.7l.11-.16.13.14a3.8,3.8,0,0,0,1,.84,2,2,0,0,0,1.77.23,1.64,1.64,0,0,0,.59-.39l.08-.08.1.06a3.55,3.55,0,0,0,1.14.46l.61.14a11.92,11.92,0,0,0,3.79.51.69.69,0,0,0,.54-.37.68.68,0,0,0-.05-.66.64.64,0,0,0-.59-.29,11.11,11.11,0,0,1-3.39-.47l-.62-.15c-.81-.19-1-.53-1.12-.78a.66.66,0,0,0-1.28.28.57.57,0,0,1-.24.5l-.06,0a.86.86,0,0,1-.64-.17A3.43,3.43,0,0,1,26.81,23a.66.66,0,0,0-1.27.28,2.25,2.25,0,0,1-.67,1.64,4.83,4.83,0,0,1-1.57.93.67.67,0,0,0-.34.36.64.64,0,0,0,0,.51Z"/><path class="cls-3" d="M48.52,19.83a6.3,6.3,0,1,0-6.29-6.29A6.29,6.29,0,0,0,48.52,19.83Zm0-11.27a5,5,0,1,1-5,5A5,5,0,0,1,48.52,8.56Z"/></g></g></svg>