<svg xmlns="http://www.w3.org/2000/svg" viewBox="0 0 75.68 76.94"><defs><style>.cls-1{font-size:14px;font-family:Poppins-Regular, Poppins;letter-spacing:0.02em;}.cls-2{fill:#d9d5f4;}.cls-3{fill:#4531cb;}.cls-4{fill:#0c0c0c;}</style></defs><title>Config Files</title><g id="Layer_2" data-name="Layer 2"><g id="Layer_1-2" data-name="Layer 1"><text class="cls-1" transform="translate(0 68.93)">Config File</text><path class="cls-2" d="M31.39,48,22.26,33.07a2.28,2.28,0,0,0-3.9,0L9.24,48a2.28,2.28,0,0,0,1.95,3.48H29.44A2.29,2.29,0,0,0,31.39,48Z"/><path class="cls-3" d="M46.54.76A3,3,0,0,0,44.63,0H22.12a2.79,2.79,0,0,0-2.79,2.79V45.21A2.79,2.79,0,0,0,22.12,48H53.56a2.79,2.79,0,0,0,2.79-2.79v-34a2.84,2.84,0,0,0-.88-2Zm-.92.53c.08.06.17.11.25.18l8.85,8.36H45.81a.18.18,0,0,1-.19-.19Zm9.75,43.92A1.81,1.81,0,0,1,53.56,47H22.12a1.81,1.81,0,0,1-1.81-1.81V2.79A1.81,1.81,0,0,1,22.12,1H44.64V9.64a1.17,1.17,0,0,0,1.17,1.18h9.51a1.84,1.84,0,0,1,0,.41Z"/><path class="cls-3" d="M48.55,30.3l-1.77-.36a9.65,9.65,0,0,0-.83-2l1-1.49A1.14,1.14,0,0,0,46.8,25l-1.56-1.55a1.16,1.16,0,0,0-1.44-.15l-1.51,1a9.35,9.35,0,0,0-2-.83l-.36-1.77a1.14,1.14,0,0,0-1.12-.93H36.6a1.15,1.15,0,0,0-1.13.93l-.35,1.77a9.26,9.26,0,0,0-2,.83l-1.52-1a1.15,1.15,0,0,0-1.43.15L28.6,25a1.15,1.15,0,0,0-.14,1.43l1,1.51a9.25,9.25,0,0,0-.83,2l-1.77.36a1.14,1.14,0,0,0-.93,1.12v2.21a1.13,1.13,0,0,0,.92,1.11l1.77.36a9.41,9.41,0,0,0,.85,2l-1,1.5a1.15,1.15,0,0,0,.13,1.44l1.56,1.56a1.15,1.15,0,0,0,1.43.14l1.52-1a8.79,8.79,0,0,0,2,.83l.36,1.78a1.14,1.14,0,0,0,1.12.92h2.2a1.14,1.14,0,0,0,1.12-.92l.36-1.78a8.43,8.43,0,0,0,2-.83l1.52,1a1.16,1.16,0,0,0,1.43-.15l1.55-1.55A1.14,1.14,0,0,0,47,38.62l-1-1.51a10.49,10.49,0,0,0,.83-2l1.77-.35a1.15,1.15,0,0,0,.92-1.12V31.42A1.15,1.15,0,0,0,48.55,30.3Zm-.19,3.48-2.06.42a.5.5,0,0,0-.38.35,9.4,9.4,0,0,1-1,2.33.49.49,0,0,0,0,.52l1.17,1.76a.17.17,0,0,1,0,.21l-1.56,1.55a.18.18,0,0,1-.21,0l-1.77-1.17a.47.47,0,0,0-.52,0,7.67,7.67,0,0,1-2.31,1,.5.5,0,0,0-.36.38L39,43.18a.17.17,0,0,1-.16.13H36.6a.18.18,0,0,1-.17-.14L36,41.09a.51.51,0,0,0-.36-.38,7.91,7.91,0,0,1-2.31-.94.49.49,0,0,0-.25-.08.5.5,0,0,0-.27.08l-1.78,1.17a.17.17,0,0,1-.2,0l-1.56-1.55a.16.16,0,0,1,0-.21l1.16-1.76a.49.49,0,0,0,0-.52,8.4,8.4,0,0,1-1-2.32.48.48,0,0,0-.38-.36L27,33.78a.17.17,0,0,1-.13-.16v-2.2a.16.16,0,0,1,.13-.16l2.07-.42a.48.48,0,0,0,.38-.36,9,9,0,0,1,1-2.34.49.49,0,0,0,0-.52l-1.16-1.75a.17.17,0,0,1,0-.2l1.56-1.55a.15.15,0,0,1,.2,0l1.78,1.16a.49.49,0,0,0,.52,0,8.22,8.22,0,0,1,2.31-.95.48.48,0,0,0,.36-.38l.41-2.07a.18.18,0,0,1,.17-.14h2.2a.16.16,0,0,1,.16.13l.42,2.08a.47.47,0,0,0,.36.38,8,8,0,0,1,2.31,1,.49.49,0,0,0,.52,0l1.77-1.17a.17.17,0,0,1,.21,0l1.55,1.55a.16.16,0,0,1,0,.21L45,27.63a.49.49,0,0,0,0,.52,9.56,9.56,0,0,1,1,2.33.49.49,0,0,0,.37.36l2.06.42h0a.15.15,0,0,1,.12.16v2.21h0A.15.15,0,0,1,48.36,33.78Z"/><path class="cls-4" d="M37.7,27.84a4.68,4.68,0,1,0,4.68,4.67A4.69,4.69,0,0,0,37.7,27.84Zm0,8.38a3.7,3.7,0,1,1,3.7-3.71A3.72,3.72,0,0,1,37.7,36.22Z"/><path class="cls-4" d="M26.06,7.94H39.87a.49.49,0,1,0,0-1H26.06a.49.49,0,0,0,0,1Z"/><path class="cls-4" d="M26.06,12.44H39.87a.49.49,0,0,0,0-1H26.06a.49.49,0,0,0,0,1Z"/><path class="cls-4" d="M49.62,16H26.06a.49.49,0,1,0,0,1H49.62a.49.49,0,1,0,0-1Z"/></g></g></svg>