<svg xmlns="http://www.w3.org/2000/svg" viewBox="0 0 64.13 67.12"><defs><style>.cls-1{font-size:14px;font-family:Poppins-Regular, Poppins;letter-spacing:0.02em;}.cls-2{fill:#d9d5f4;}.cls-3{fill:#4531cb;}.cls-4{fill:#0c0c0c;}</style></defs><title>Course</title><g id="Layer_2" data-name="Layer 2"><g id="Layer_1-2" data-name="Layer 1"><text class="cls-1" transform="translate(12.51 59.11)">Course</text><path class="cls-2" d="M22.49,37.84,13.37,22.93a2.29,2.29,0,0,0-3.91,0L.34,37.84a2.29,2.29,0,0,0,2,3.48H20.54A2.29,2.29,0,0,0,22.49,37.84Z"/><path class="cls-3" d="M57.1,0H21.69a3.84,3.84,0,0,0-3.77,3.13l0,.13-.13,0A3.87,3.87,0,0,0,14.7,6.35l0,.13-.13,0a3.84,3.84,0,0,0-3.13,3.77V34.41a3.85,3.85,0,0,0,3.83,3.84H50.66a3.84,3.84,0,0,0,3.76-3.14l0-.13.13,0a3.86,3.86,0,0,0,3.06-3.07l0-.13.13,0A3.83,3.83,0,0,0,60.93,28V3.83A3.84,3.84,0,0,0,57.1,0ZM53.27,34.41A2.61,2.61,0,0,1,50.66,37H15.25a2.61,2.61,0,0,1-2.61-2.61V12.49H53.27Zm0-23.14H12.64v-1a2.61,2.61,0,0,1,2.61-2.61H50.66a2.61,2.61,0,0,1,2.61,2.61ZM56.49,31.2a2.61,2.61,0,0,1-1.74,2.45l-.26.09V10.27a3.84,3.84,0,0,0-3.83-3.83H15.92L16,6.18a2.61,2.61,0,0,1,2.46-1.74H53.88a2.62,2.62,0,0,1,2.61,2.61ZM59.71,28A2.61,2.61,0,0,1,58,30.43l-.26.1V7.05a3.84,3.84,0,0,0-3.83-3.83H19.14L19.23,3a2.61,2.61,0,0,1,2.46-1.74H57.1a2.62,2.62,0,0,1,2.61,2.61Z"/><path class="cls-3" d="M15.25,8.85a.62.62,0,0,0,0,1.23.62.62,0,0,0,0-1.23Z"/><path class="cls-3" d="M18.47,8.85a.62.62,0,1,0,.61.61A.62.62,0,0,0,18.47,8.85Z"/><path class="cls-3" d="M21.69,8.85a.62.62,0,1,0,.61.61A.62.62,0,0,0,21.69,8.85Z"/><path class="cls-4" d="M24.1,29.39H41.81a.61.61,0,0,0,.61-.61V15.9a.62.62,0,0,0-.61-.61H24.1a.61.61,0,0,0-.61.61V28.78A.61.61,0,0,0,24.1,29.39Zm.61-12.88H41.19V28.17H24.71Z"/><path class="cls-4" d="M35.59,20.21,31.66,17.8a.6.6,0,0,0-.62,0,.63.63,0,0,0-.31.54v4.83a.61.61,0,0,0,.31.53.62.62,0,0,0,.62,0l3.93-2.42a.61.61,0,0,0,0-1ZM34.14,21l-2.26,1.4a.24.24,0,0,1-.36-.2v-3a.23.23,0,0,1,.36-.19l2.26,1.39A.35.35,0,0,1,34.14,21Z"/><path class="cls-4" d="M27.32,26.17h8.24v.2a.62.62,0,0,0,.61.61.61.61,0,0,0,.61-.61v-.2h1.81a.61.61,0,0,0,0-1.22H36.78v-.19a.61.61,0,0,0-.61-.61.61.61,0,0,0-.61.61V25H27.32a.61.61,0,0,0,0,1.22Z"/><path class="cls-4" d="M24.1,31.81H41.81a.62.62,0,0,0,0-1.23H24.1a.62.62,0,0,0,0,1.23Z"/><path class="cls-4" d="M24.1,34.22H35.37a.61.61,0,0,0,0-1.22H24.1a.61.61,0,1,0,0,1.22Z"/><path class="cls-4" d="M38.59,33h-.81a.61.61,0,0,0,0,1.22h.81a.61.61,0,0,0,0-1.22Z"/></g></g></svg>