<svg xmlns="http://www.w3.org/2000/svg" viewBox="0 0 88.66 74.11"><defs><style>.cls-1{font-size:14px;font-family:Poppins-Regular, Poppins;letter-spacing:0.02em;}.cls-2{fill:#d9d5f4;}.cls-3{fill:#4531cb;}</style></defs><title>Edge Device</title><g id="Layer_2" data-name="Layer 2"><g id="Layer_1-2" data-name="Layer 1"><text class="cls-1" transform="translate(0 66.1)">Edge Device</text><path class="cls-2" d="M35.18,42,26.05,27.1a2.29,2.29,0,0,0-3.9,0L13,42a2.3,2.3,0,0,0,2,3.49H33.22A2.3,2.3,0,0,0,35.18,42Z"/><path class="cls-3" d="M28.91,3A2.1,2.1,0,1,0,31,5.07,2.1,2.1,0,0,0,28.91,3Zm.86,2.1a.87.87,0,1,1-.86-.87A.87.87,0,0,1,29.77,5.07Z"/><path class="cls-3" d="M58.57,7.17a2.1,2.1,0,1,0-2.1-2.1A2.11,2.11,0,0,0,58.57,7.17Zm-.87-2.1a.87.87,0,1,1,.87.86A.87.87,0,0,1,57.7,5.07Z"/><path class="cls-3" d="M28.91,34.11a2.1,2.1,0,1,0,2.1,2.1A2.1,2.1,0,0,0,28.91,34.11Zm.86,2.1a.87.87,0,1,1-.86-.87A.87.87,0,0,1,29.77,36.21Z"/><path class="cls-3" d="M58.57,38.31a2.1,2.1,0,1,0-2.1-2.1A2.1,2.1,0,0,0,58.57,38.31Zm-.87-2.1a.87.87,0,1,1,.87.87A.87.87,0,0,1,57.7,36.21Z"/><path class="cls-3" d="M48.19,14.83h-8.9a1.36,1.36,0,0,0-1.36,1.36v8.9a1.36,1.36,0,0,0,1.36,1.36h8.9a1.36,1.36,0,0,0,1.36-1.36v-8.9A1.36,1.36,0,0,0,48.19,14.83Zm.12,10.38H39.16V16.06h9.15Z"/><path class="cls-3" d="M34.84,2.59a.3.3,0,0,0-.11-.06.61.61,0,0,0-.15,0,.76.76,0,0,0-.69.2.78.78,0,0,0-.21.53.63.63,0,0,0,.06.27,1,1,0,0,0,.15.25h0a1.2,1.2,0,0,0,.24.15.94.94,0,0,0,.29.06,1.18,1.18,0,0,0,.27-.06A.8.8,0,0,0,35,3.71a.85.85,0,0,0,.13-.22,1,1,0,0,0,.07-.29.78.78,0,0,0-.23-.53A.44.44,0,0,0,34.84,2.59Z"/><path class="cls-3" d="M35.12,6.67A.59.59,0,0,0,35,6.51l-.11-.12a.79.79,0,0,0-1.06,0l-.06.08a.75.75,0,0,0-.11.27.68.68,0,0,0,0,.15.67.67,0,0,0,.06.28,1,1,0,0,0,.15.24h0a.61.61,0,0,0,.24.15.72.72,0,0,0,.29.06.81.81,0,0,0,.27,0,.7.7,0,0,0,.4-.39,1.08,1.08,0,0,0,.07-.31s0-.09,0-.13A1,1,0,0,0,35.12,6.67Z"/><path class="cls-3" d="M37.62,3.73h0a1,1,0,0,0,.24.15.88.88,0,0,0,.29.06.74.74,0,0,0,.52-.22.87.87,0,0,0,.15-.24.72.72,0,0,0,.06-.29.74.74,0,1,0-1.48,0,.68.68,0,0,0,.05.29A.91.91,0,0,0,37.62,3.73Z"/><path class="cls-3" d="M38.42,7.62a.72.72,0,0,0,.41-.39.85.85,0,0,0,.06-.31.74.74,0,0,0-.22-.52.78.78,0,0,0-1.06,0,.73.73,0,0,0-.2.52.67.67,0,0,0,.06.28.72.72,0,0,0,.14.24h0a.61.61,0,0,0,.24.15.67.67,0,0,0,.28.06A.76.76,0,0,0,38.42,7.62Z"/><path class="cls-3" d="M41.34,3.72v0a1,1,0,0,0,.24.15.94.94,0,0,0,.29.06.77.77,0,0,0,.53-.22,1.2,1.2,0,0,0,.15-.24.72.72,0,0,0,.06-.29.75.75,0,0,0-.23-.53.44.44,0,0,0-.1-.08l-.11-.06a.47.47,0,0,0-.14,0,.77.77,0,0,0-.7.2.78.78,0,0,0-.21.53.75.75,0,0,0,.06.29A1,1,0,0,0,41.34,3.72Z"/><path class="cls-3" d="M41.34,7.45h0a.65.65,0,0,0,.23.15.75.75,0,0,0,.29.06.86.86,0,0,0,.27,0,.7.7,0,0,0,.4-.39.87.87,0,0,0,.07-.31,1.37,1.37,0,0,0,0-.16l-.05-.12a.31.31,0,0,0-.07-.14l-.09-.11-.1-.08-.11,0a.29.29,0,0,0-.15,0,.63.63,0,0,0-.43,0,1.17,1.17,0,0,0-.26.17.76.76,0,0,0-.21.52.72.72,0,0,0,.06.29A.9.9,0,0,0,41.34,7.45Z"/><path class="cls-3" d="M45.07,3.73h0A.74.74,0,0,0,45.6,4a.75.75,0,0,0,.53-.22.79.79,0,0,0,.15-.25.64.64,0,0,0,.06-.28.74.74,0,0,0-.21-.53.76.76,0,0,0-.53-.21.75.75,0,0,0-.53.22.78.78,0,0,0-.21.52.75.75,0,0,0,.06.29A1,1,0,0,0,45.07,3.73Z"/><path class="cls-3" d="M45.07,7.45h0a.61.61,0,0,0,.24.15.68.68,0,0,0,.29.06.72.72,0,0,0,.51-.22.6.6,0,0,0,.16-.24.71.71,0,0,0-.15-.8.58.58,0,0,0-.12-.1l-.1,0a.46.46,0,0,0-.16-.06.76.76,0,0,0-.68.21.35.35,0,0,0-.09.11l0,.1a.82.82,0,0,0-.06.16s0,.1,0,.15a.71.71,0,0,0,.06.28A1,1,0,0,0,45.07,7.45Z"/><path class="cls-3" d="M48.8,2.68a.73.73,0,0,0-.22.52.68.68,0,0,0,.06.29,1,1,0,0,0,.16.24.72.72,0,0,0,.5.22h.06a.67.67,0,0,0,.24-.07.91.91,0,0,0,.27-.18A.88.88,0,0,0,50,3.48a.67.67,0,0,0,.06-.28.79.79,0,0,0-.22-.53A.77.77,0,0,0,48.8,2.68Z"/><path class="cls-3" d="M48.79,6.41a.79.79,0,0,0-.21.52,1.27,1.27,0,0,0,.06.28,1,1,0,0,0,.15.24h0a.65.65,0,0,0,.23.15.72.72,0,0,0,.29.06.76.76,0,0,0,.27,0,.66.66,0,0,0,.4-.4.66.66,0,0,0,.07-.3.74.74,0,0,0-.22-.52A.77.77,0,0,0,48.79,6.41Z"/><path class="cls-3" d="M53.05,2.46a.74.74,0,0,0-.74.75.63.63,0,0,0,.06.27,1,1,0,0,0,.16.25h0a.76.76,0,0,0,.52.21.75.75,0,0,0,.53-.22.87.87,0,0,0,.15-.24,1,1,0,0,0,.07-.29A.75.75,0,0,0,53.05,2.46Z"/><path class="cls-3" d="M53.75,6.67a.91.91,0,0,0-.09-.17l-.1-.11-.09-.08-.11,0a.43.43,0,0,0-.15,0,.58.58,0,0,0-.29,0,.24.24,0,0,0-.12,0l-.16.07-.13.1a.77.77,0,0,0-.2.52.72.72,0,0,0,.06.29.84.84,0,0,0,.16.24.79.79,0,0,0,.24.15.75.75,0,0,0,.29.06.86.86,0,0,0,.27,0,.7.7,0,0,0,.4-.39,1.08,1.08,0,0,0,.07-.31s0-.09,0-.15Z"/><path class="cls-3" d="M64.5,11.12h-.87v-9A2.1,2.1,0,0,0,61.54,0H25.94a2.11,2.11,0,0,0-2.1,2.1V14.83H23a1.36,1.36,0,0,0-1.35,1.36v8.9A1.36,1.36,0,0,0,23,26.45h.87V39.18a2.11,2.11,0,0,0,2.1,2.1h7.54v.86a1.36,1.36,0,0,0,1.36,1.36h7.42a1.36,1.36,0,0,0,1.35-1.36v-.86h1.74v.86a2.1,2.1,0,0,0,2.1,2.1H51.9a2.11,2.11,0,0,0,2.1-2.1v-.86h7.54a2.1,2.1,0,0,0,2.09-2.1V22h.87a1.36,1.36,0,0,0,1.36-1.36V12.48A1.37,1.37,0,0,0,64.5,11.12Zm.13,9.64H55.48v-8.4h9.15Zm-12,7.42H46.71a1.36,1.36,0,0,0-1.36,1.36V40H43.61V34.73a1.36,1.36,0,0,0-1.35-1.36H34.84a1.36,1.36,0,0,0-1.36,1.36V40H25.94a.87.87,0,0,1-.87-.86V26.45h1.74v3.09a.61.61,0,0,0,.61.61h5.2a.61.61,0,0,0,.61-.61.61.61,0,0,0-.61-.62H31V27.19h1.61a.61.61,0,0,0,.61-.62.61.61,0,0,0-.61-.61H31V24.22h1.61a.61.61,0,0,0,.61-.61.61.61,0,0,0-.61-.62H31V21.26h1.61a.62.62,0,0,0,0-1.24H31V18.29h1.61a.61.61,0,0,0,.61-.62.61.61,0,0,0-.61-.61H31V15.32h1.61a.61.61,0,0,0,.61-.61.61.61,0,0,0-.61-.62H31V12.36h1.61a.62.62,0,0,0,0-1.24h-5.2a.61.61,0,0,0-.61.62v3.09H25.07V2.1a.88.88,0,0,1,.87-.87h35.6a.87.87,0,0,1,.86.87v9H55.6a1.37,1.37,0,0,0-1.35,1.36v8.16A1.36,1.36,0,0,0,55.6,22h6.8V39.18a.86.86,0,0,1-.86.86H54V29.54A1.37,1.37,0,0,0,52.64,28.18ZM29.77,12.36V28.92H28V12.36Zm-3,3.7v9.15h-4V16.06ZM42.38,42.27H34.72V34.6h7.66Zm7.29-8.9a.62.62,0,0,0-.62.62v3.09H46.58V29.41h6.18v7.67H50.29V34A.62.62,0,0,0,49.67,33.37Zm-3.09,4.94h6.18v3.83a.87.87,0,0,1-.86.87H47.45a.87.87,0,0,1-.87-.87Z"/><path class="cls-3" d="M37.06,39.79a.61.61,0,0,0,.62-.61V37.69a.61.61,0,0,0-.62-.61.61.61,0,0,0-.61.61v1.49A.61.61,0,0,0,37.06,39.79Z"/><path class="cls-3" d="M40,39.79a.61.61,0,0,0,.62-.61V37.69a.62.62,0,0,0-1.24,0v1.49A.61.61,0,0,0,40,39.79Z"/><path class="cls-3" d="M57.83,15.32h3a.61.61,0,0,0,.62-.61.62.62,0,0,0-.62-.62h-3a.62.62,0,0,0-.62.62A.61.61,0,0,0,57.83,15.32Z"/><path class="cls-3" d="M57.83,19h3a.62.62,0,0,0,.62-.62.61.61,0,0,0-.62-.61h-3a.61.61,0,0,0-.62.61A.62.62,0,0,0,57.83,19Z"/></g></g></svg>