<svg xmlns="http://www.w3.org/2000/svg" viewBox="0 0 62.59 78.32"><defs><style>.cls-1{font-size:14px;font-family:Poppins-Regular, Poppins;letter-spacing:0.02em;}.cls-2{fill:#d9d5f4;}.cls-3{fill:#4531cb;}.cls-4{fill:#0c0c0c;}</style></defs><title>Fun-fact</title><g id="Layer_2" data-name="Layer 2"><g id="Layer_1-2" data-name="Layer 1"><text class="cls-1" transform="translate(0 70.32)">Fun-fact</text><path class="cls-2" d="M33.29,46.23,24.16,31.31a2.29,2.29,0,0,0-3.9,0L11.14,46.23a2.28,2.28,0,0,0,1.95,3.48H31.34A2.29,2.29,0,0,0,33.29,46.23Z"/><path class="cls-3" d="M25.54,44.12c0,2.18,1.42,3.36,2.76,3.36h6a2.83,2.83,0,0,0,2.76-2.76v-4.6a7.52,7.52,0,0,1,2.89-5.78A13.19,13.19,0,0,0,45,23.74a14,14,0,0,0-4.12-9.82A13.75,13.75,0,0,0,31.1,10,13.93,13.93,0,0,0,17.55,23.55a13.63,13.63,0,0,0,5.3,11,7.13,7.13,0,0,1,2.69,5.38Zm10,.6A1.19,1.19,0,0,1,34.29,46h-6c-.82,0-1.24-.62-1.24-1.84V41.48h8.47ZM23.75,33.32a11.91,11.91,0,0,1-4.68-9.78,12.56,12.56,0,0,1,12.23-12A12,12,0,0,1,39.86,15a12.17,12.17,0,0,1,3.67,8.76A11.83,11.83,0,0,1,39,33.12a9.52,9.52,0,0,0-3.48,6.62V40h-8.5v-.23A8.53,8.53,0,0,0,23.75,33.32Z"/><path class="cls-4" d="M32.06,4.76v-4a.76.76,0,0,0-1.52,0v4a.76.76,0,1,0,1.52,0Z"/><path class="cls-3" d="M47.38,6.89a.8.8,0,0,0-.53.23l-2.8,2.8a.74.74,0,0,0,0,1.06c.13.13.48.13.63.13a1.57,1.57,0,0,0,.46-.16l2.77-2.77a.74.74,0,0,0,.23-.53.75.75,0,0,0-.23-.53A.78.78,0,0,0,47.38,6.89Z"/><path class="cls-4" d="M54.28,23h-4a.76.76,0,1,0,0,1.52h4a.76.76,0,0,0,0-1.52Z"/><path class="cls-3" d="M46.85,40.55c.13.13.48.13.63.13h.37v0l.06-.09a.72.72,0,0,0,.23-.53.75.75,0,0,0-.23-.53l-2.8-2.79a.72.72,0,0,0-.53-.23.75.75,0,0,0-.53.23.77.77,0,0,0-.22.53.79.79,0,0,0,.22.53Z"/><path class="cls-3" d="M15.11,40.68c.2,0,.31,0,.43-.13l2.8-2.79a.75.75,0,0,0,.23-.53.74.74,0,0,0-.23-.53.72.72,0,0,0-1.06,0l-2.8,2.79a.75.75,0,0,0-.23.53.72.72,0,0,0,.23.53C14.61,40.68,15,40.68,15.11,40.68Z"/><path class="cls-4" d="M12.31,24.5a.76.76,0,1,0,0-1.52h-4a.76.76,0,0,0,0,1.52Z"/><path class="cls-3" d="M17.91,11.11c.1,0,.3-.2.43-.33a.73.73,0,0,0,0-1.06l-2.8-2.8a.73.73,0,0,0-1.06,0,.72.72,0,0,0,0,1.06l2.8,3C17.41,11.11,17.76,11.11,17.91,11.11Z"/><path class="cls-4" d="M31.3,16.51a7.33,7.33,0,0,1,7.23,7.23.76.76,0,1,0,1.52,0A8.76,8.76,0,0,0,31.3,15a.76.76,0,0,0,0,1.52Z"/></g></g></svg>