<svg xmlns="http://www.w3.org/2000/svg" viewBox="0 0 70.92 76.28"><defs><style>.cls-1{font-size:14px;font-family:Poppins-Regular, Poppins;letter-spacing:0.02em;}.cls-2{fill:#d9d5f4;}.cls-3{fill:#4531cb;}.cls-4{fill:#0c0c0c;}</style></defs><title>Hardware</title><g id="Layer_2" data-name="Layer 2"><g id="Layer_1-2" data-name="Layer 1"><text class="cls-1" transform="translate(0 68.27)">Hardware</text><path class="cls-2" d="M28.87,44.24,19.75,29.33a2.28,2.28,0,0,0-3.9,0L6.72,44.24a2.29,2.29,0,0,0,2,3.48H26.92A2.28,2.28,0,0,0,28.87,44.24Z"/><path class="cls-3" d="M52.87,44.44H19.54a.25.25,0,0,1-.25-.25V42.71a.25.25,0,0,1,.25-.25H31.39a.49.49,0,0,0,.49-.49V33.08a.49.49,0,0,0-.49-.49H24a.49.49,0,0,0,0,1h6.67a.25.25,0,0,1,.25.25V35.3a.25.25,0,0,1-.25.25H14.35a.25.25,0,0,1-.25-.25V33.82a.25.25,0,0,1,.25-.25H21a.49.49,0,1,0,0-1H19.54a.25.25,0,0,1-.25-.25V22.71a.25.25,0,0,1,.25-.25H21a.49.49,0,0,0,.49-.49V14.56a.49.49,0,0,0-.49-.49H19.54a.25.25,0,0,1-.25-.25V12.34a.25.25,0,0,1,.25-.25H21a.49.49,0,0,0,.49-.49V4.19A.49.49,0,0,0,21,3.7H19.54a.25.25,0,0,1-.25-.25V1.23A.25.25,0,0,1,19.54,1H21a.49.49,0,1,0,0-1H18.8a.49.49,0,0,0-.49.49v3a.25.25,0,0,1-.25.25H16.58a.49.49,0,0,0-.49.49v.74a.25.25,0,0,1-.25.25H13.61a.49.49,0,0,0-.49.49v4.45a.49.49,0,0,0,.49.49h2.23a.25.25,0,0,1,.25.25v.74a.49.49,0,0,0,.49.49h1.48a.25.25,0,0,1,.25.25v1.48a.25.25,0,0,1-.25.25H16.58a.49.49,0,0,0-.49.49v.74a.25.25,0,0,1-.25.25H13.61a.49.49,0,0,0-.49.49v4.45a.49.49,0,0,0,.49.49h2.23a.25.25,0,0,1,.25.25V22a.49.49,0,0,0,.49.49h1.48a.25.25,0,0,1,.25.25v9.63a.25.25,0,0,1-.25.25H13.61a.49.49,0,0,0-.49.49V42a.49.49,0,0,0,.49.49h4.45a.25.25,0,0,1,.25.25v2.22a.49.49,0,0,0,.49.49H52.87a.49.49,0,0,0,0-1ZM16.09,9.38a.25.25,0,0,1-.25.25H14.35a.25.25,0,0,1-.25-.25v-3a.25.25,0,0,1,.25-.25h1.49a.25.25,0,0,1,.25.25Zm0,10.37a.26.26,0,0,1-.25.25H14.35a.26.26,0,0,1-.25-.25v-3a.26.26,0,0,1,.25-.25h1.49a.26.26,0,0,1,.25.25Zm1.23-8.64a.25.25,0,0,1-.25-.25V4.93a.25.25,0,0,1,.25-.25h3a.25.25,0,0,1,.25.25v5.93a.25.25,0,0,1-.25.25Zm0,10.37a.25.25,0,0,1-.25-.25V15.3a.25.25,0,0,1,.25-.25h3a.25.25,0,0,1,.25.25v5.93a.25.25,0,0,1-.25.25ZM14.1,36.78a.25.25,0,0,1,.25-.25h16.3a.25.25,0,0,1,.25.25v1.48a.25.25,0,0,1-.25.25H14.35a.25.25,0,0,1-.25-.25Zm.25,4.69a.25.25,0,0,1-.25-.25V39.74a.26.26,0,0,1,.25-.25h16.3a.25.25,0,0,1,.25.25v1.48a.25.25,0,0,1-.25.25Z"/><path class="cls-3" d="M58.05,0H24a.49.49,0,0,0,0,1H57.31a.25.25,0,0,1,.25.25v43a.25.25,0,0,1-.25.25H55.83a.49.49,0,1,0,0,1h2.22a.49.49,0,0,0,.49-.49V.49A.49.49,0,0,0,58.05,0Z"/><path class="cls-4" d="M27.19,15.3v1.48a.25.25,0,0,1-.25.25H25.46a.5.5,0,0,0,0,1h1.48a.25.25,0,0,1,.25.25v2.22a.49.49,0,0,0,.49.49h2.23a.25.25,0,0,1,.25.25v1.48a.49.49,0,0,0,1,0V21.23a.25.25,0,0,1,.25-.25h1.48a.25.25,0,0,1,.25.25v1.48a.49.49,0,0,0,1,0V21.23a.25.25,0,0,1,.25-.25h1.48a.25.25,0,0,1,.25.25v1.48a.49.49,0,0,0,1,0V21.23a.25.25,0,0,1,.25-.25h1.48a.25.25,0,0,1,.25.25v1.48a.5.5,0,0,0,1,0V21.23a.25.25,0,0,1,.25-.25H42.5a.49.49,0,0,0,.49-.49V18.27a.25.25,0,0,1,.25-.25h1.48a.5.5,0,0,0,0-1H43.24a.25.25,0,0,1-.25-.25V15.3a.25.25,0,0,1,.25-.25h1.48a.49.49,0,1,0,0-1H43.24a.25.25,0,0,1-.25-.25V12.34a.25.25,0,0,1,.25-.25h1.48a.49.49,0,1,0,0-1H43.24a.25.25,0,0,1-.25-.25V9.38a.25.25,0,0,1,.25-.25h1.48a.49.49,0,1,0,0-1H43.24A.25.25,0,0,1,43,7.9V5.67a.49.49,0,0,0-.49-.49H40.28A.25.25,0,0,1,40,4.93V3.45a.5.5,0,0,0-1,0V4.93a.25.25,0,0,1-.25.25H37.31a.25.25,0,0,1-.25-.25V3.45a.49.49,0,1,0-1,0V4.93a.25.25,0,0,1-.25.25H34.35a.25.25,0,0,1-.25-.25V3.45a.49.49,0,1,0-1,0V4.93a.25.25,0,0,1-.25.25H31.39a.25.25,0,0,1-.25-.25V3.45a.49.49,0,0,0-1,0V4.93a.25.25,0,0,1-.25.25H27.68a.49.49,0,0,0-.49.49V7.9a.25.25,0,0,1-.25.25H25.46a.49.49,0,0,0,0,1h1.48a.25.25,0,0,1,.25.25v1.48a.25.25,0,0,1-.25.25H25.46a.49.49,0,0,0,0,1h1.48a.25.25,0,0,1,.25.25v1.48a.25.25,0,0,1-.25.25H25.46a.49.49,0,1,0,0,1h1.48A.25.25,0,0,1,27.19,15.3Zm1-8.88a.25.25,0,0,1,.25-.25H41.76a.25.25,0,0,1,.25.25V19.75a.26.26,0,0,1-.25.25H28.43a.25.25,0,0,1-.25-.25Z"/><path class="cls-4" d="M38.05,9.63H36.57a.49.49,0,0,0,0,1h.74a.25.25,0,0,1,.25.25V15.3a.25.25,0,0,1-.25.25H32.87a.25.25,0,0,1-.25-.25V10.86a.25.25,0,0,1,.25-.25h.74a.49.49,0,1,0,0-1H32.13a.49.49,0,0,0-.49.49V16a.49.49,0,0,0,.49.49h5.92a.49.49,0,0,0,.49-.49V10.12A.49.49,0,0,0,38.05,9.63Z"/><path class="cls-3" d="M46.94,21.72h1.48a.25.25,0,0,1,.25.25V41.22a.25.25,0,0,1-.25.25H46.94a.25.25,0,0,1-.25-.25V26.41a.49.49,0,0,0-1,0V42a.49.49,0,0,0,.49.49h3a.49.49,0,0,0,.49-.49V21.23a.49.49,0,0,0-.49-.49h-3a.49.49,0,0,0-.49.49v2.22a.49.49,0,1,0,1,0V22A.25.25,0,0,1,46.94,21.72Z"/><path class="cls-3" d="M52.13,42.46h3a.49.49,0,0,0,.49-.49V21.23a.49.49,0,0,0-.49-.49h-3a.48.48,0,0,0-.49.49V42A.48.48,0,0,0,52.13,42.46ZM52.62,22a.25.25,0,0,1,.25-.25h1.48a.25.25,0,0,1,.25.25V41.22a.25.25,0,0,1-.25.25H52.87a.25.25,0,0,1-.25-.25Z"/><path class="cls-3" d="M49.16,3h-3a.49.49,0,0,0-.49.49v3a.49.49,0,0,0,.49.49h3a.49.49,0,0,0,.49-.49v-3A.49.49,0,0,0,49.16,3Zm-.49,2.71a.25.25,0,0,1-.25.25H46.94a.25.25,0,0,1-.25-.25V4.19a.25.25,0,0,1,.25-.25h1.48a.25.25,0,0,1,.25.25Z"/><path class="cls-3" d="M52.13,6.91h3a.49.49,0,0,0,.49-.49v-3A.49.49,0,0,0,55.09,3h-3a.48.48,0,0,0-.49.49v3A.48.48,0,0,0,52.13,6.91Zm.49-2.72a.25.25,0,0,1,.25-.25h1.48a.25.25,0,0,1,.25.25V5.67a.25.25,0,0,1-.25.25H52.87a.25.25,0,0,1-.25-.25Z"/><path class="cls-3" d="M53.61,12.83a2,2,0,1,0-2-2A2,2,0,0,0,53.61,12.83Zm0-3a1,1,0,1,1-1,1A1,1,0,0,1,53.61,9.87Z"/><path class="cls-3" d="M53.61,18.76a2,2,0,0,0,0-4,.49.49,0,1,0,0,1,1,1,0,1,1-1,1,.49.49,0,0,0-.49-.49.48.48,0,0,0-.49.49A2,2,0,0,0,53.61,18.76Z"/><path class="cls-3" d="M23.24,28.88H21.76a.5.5,0,0,0,0,1h1.48a.5.5,0,0,0,0-1Z"/><path class="cls-3" d="M23.24,25.92H21.76a.49.49,0,0,0,0,1h1.48a.49.49,0,1,0,0-1Z"/><path class="cls-3" d="M27.68,25.92H26.2a.49.49,0,0,0,0,1h1.48a.49.49,0,1,0,0-1Z"/><path class="cls-3" d="M27.68,28.88H26.2a.5.5,0,0,0,0,1h1.48a.5.5,0,1,0,0-1Z"/><path class="cls-3" d="M37.31,38.51h-3a.49.49,0,0,0-.49.49v3a.49.49,0,0,0,.49.49h3A.49.49,0,0,0,37.8,42V39A.49.49,0,0,0,37.31,38.51Zm-.49,2.71a.25.25,0,0,1-.25.25H35.09a.25.25,0,0,1-.25-.25V39.74a.25.25,0,0,1,.25-.25h1.48a.25.25,0,0,1,.25.25Z"/><path class="cls-3" d="M37.31,32.59h-3a.49.49,0,0,0-.49.49v3a.49.49,0,0,0,.49.49h3A.49.49,0,0,0,37.8,36v-3A.49.49,0,0,0,37.31,32.59Zm-.49,2.71a.25.25,0,0,1-.25.25H35.09a.25.25,0,0,1-.25-.25V33.82a.25.25,0,0,1,.25-.25h1.48a.25.25,0,0,1,.25.25Z"/><path class="cls-3" d="M43.24,38.51h-3a.49.49,0,0,0-.49.49v3a.49.49,0,0,0,.49.49h3a.49.49,0,0,0,.49-.49V39A.49.49,0,0,0,43.24,38.51Zm-.49,2.71a.25.25,0,0,1-.25.25H41a.25.25,0,0,1-.25-.25V39.74a.25.25,0,0,1,.25-.25H42.5a.25.25,0,0,1,.25.25Z"/><path class="cls-3" d="M43.24,32.59h-3a.49.49,0,0,0-.49.49v3a.49.49,0,0,0,.49.49h3a.49.49,0,0,0,.49-.49v-3A.49.49,0,0,0,43.24,32.59Zm-.49,2.71a.25.25,0,0,1-.25.25H41a.25.25,0,0,1-.25-.25V33.82a.25.25,0,0,1,.25-.25H42.5a.25.25,0,0,1,.25.25Z"/></g></g></svg>