<svg xmlns="http://www.w3.org/2000/svg" viewBox="0 0 80.33 76.94"><defs><style>.cls-1{font-size:14px;font-family:Poppins-Regular, Poppins;letter-spacing:0.02em;}.cls-2{fill:#d9d5f4;}.cls-3{fill:#4531cb;}.cls-4{fill:#0c0c0c;}</style></defs><title>Launch Files</title><g id="Layer_2" data-name="Layer 2"><g id="Layer_1-2" data-name="Layer 1"><text class="cls-1" transform="translate(0 68.93)">Launch File</text><path class="cls-2" d="M38.12,48,29,33.07a2.28,2.28,0,0,0-3.9,0L16,48a2.28,2.28,0,0,0,2,3.48H36.17A2.29,2.29,0,0,0,38.12,48Z"/><path class="cls-3" d="M53.27.76A3,3,0,0,0,51.36,0H28.85a2.8,2.8,0,0,0-2.79,2.79V45.21A2.8,2.8,0,0,0,28.85,48H60.29a2.79,2.79,0,0,0,2.79-2.79v-34a2.84,2.84,0,0,0-.88-2Zm-.92.53c.08.06.17.11.25.18l8.85,8.36h-8.9a.19.19,0,0,1-.2-.19ZM62.1,45.21A1.81,1.81,0,0,1,60.29,47H28.85A1.82,1.82,0,0,1,27,45.21V2.79A1.82,1.82,0,0,1,28.85,1H51.37V9.64a1.17,1.17,0,0,0,1.17,1.18h9.51a1.84,1.84,0,0,1,.05.41Z"/><path class="cls-4" d="M32.79,7.94H46.6a.49.49,0,0,0,0-1H32.79a.49.49,0,1,0,0,1Z"/><path class="cls-4" d="M32.79,12.44H46.6a.49.49,0,1,0,0-1H32.79a.49.49,0,1,0,0,1Z"/><path class="cls-3" d="M55.65,44.16a4.56,4.56,0,0,0-2,.44l-.39.18-.17-.39a4.78,4.78,0,0,0-2.87-2.59l-.17,0a.43.43,0,0,0-.43.39.44.44,0,0,0,.31.49h0a3.89,3.89,0,0,1,2.61,3,.44.44,0,0,0,.71.27,3.86,3.86,0,0,1,5.9,1.38h1A4.72,4.72,0,0,0,55.65,44.16Z"/><path class="cls-3" d="M38.73,41.77a.47.47,0,0,0-.17,0,4.78,4.78,0,0,0-2.87,2.59l-.18.39-.38-.18a4.64,4.64,0,0,0-2-.44,4.7,4.7,0,0,0-4.45,3.11h1a3.85,3.85,0,0,1,5.89-1.38A.47.47,0,0,0,36,46a.46.46,0,0,0,.29-.34,3.88,3.88,0,0,1,2.6-3,.45.45,0,0,0-.11-.88Z"/><path class="cls-4" d="M52.65,37.87a.45.45,0,0,0,.85-.2,12.68,12.68,0,0,0-1.81-7.18,6.42,6.42,0,0,0-1.53-1.62l-.12-.1,0-.2V28.5c0-.43,0-.83,0-1.23,0-7.08-5.31-11.56-5.36-11.61a.46.46,0,0,0-.25-.1.51.51,0,0,0-.32.1c-.05.05-5.36,4.56-5.36,11.61,0,.4,0,.8,0,1.24v.16l-.13.16a6.57,6.57,0,0,0-1.58,1.66,12.76,12.76,0,0,0-1.81,7.18.45.45,0,0,0,.85.2,6.2,6.2,0,0,1,3.76-2.95l.35-.1.15.32a14,14,0,0,0,1.06,2,.45.45,0,0,0,.35.16H47a.47.47,0,0,0,.36-.18,13.89,13.89,0,0,0,1-1.93l.15-.32.35.09A6.28,6.28,0,0,1,52.65,37.87ZM42.19,19.24A14.5,14.5,0,0,1,44,17l.41-.39.34.31a14.57,14.57,0,0,1,1.86,2.29l.44.65H41.75Zm-2.7,14.87A7.45,7.45,0,0,0,37,35.42l-.87.72L36.36,35a10.35,10.35,0,0,1,1.46-4,7.26,7.26,0,0,1,.46-.59l.58-.7.15.89a18.11,18.11,0,0,0,.76,3l.14.41Zm7.32,2.07-.12.18H42.15L42,36.23c-.58-.82-2.36-3.73-2.36-9A14,14,0,0,1,41.17,21l.12-.23h6.19l.12.23a14,14,0,0,1,1.54,6.25C49.14,32.5,47.36,35.41,46.81,36.18ZM49,33.57a18.11,18.11,0,0,0,.76-3l.15-.9.59.7c.15.19.29.36.45.6a10.26,10.26,0,0,1,1.46,4l.2,1.12-.88-.72a7.53,7.53,0,0,0-2.45-1.31L48.87,34Z"/><path class="cls-4" d="M46.57,27.27a2.18,2.18,0,1,0-2.19,2.18A2.19,2.19,0,0,0,46.57,27.27Zm-2.19,1.29a1.29,1.29,0,1,1,1.29-1.29A1.27,1.27,0,0,1,44.38,28.56Z"/><path class="cls-4" d="M47.43,40.27a.45.45,0,1,0-.89,0,6,6,0,0,1-1.83,4.34l-.26.25-.31-.19a6,6,0,0,1-1.9-4.4.43.43,0,0,0-.45-.45.43.43,0,0,0-.45.45,7.08,7.08,0,0,0,2.8,5.58.5.5,0,0,0,.5,0A7.09,7.09,0,0,0,47.43,40.27Z"/></g></g></svg>