<svg xmlns="http://www.w3.org/2000/svg" viewBox="0 0 56.89 68.89"><defs><style>.cls-1{font-size:14px;font-family:Poppins-Regular, Poppins;letter-spacing:0.02em;}.cls-2{fill:#d9d5f4;}.cls-3{fill:#4531cb;}.cls-4{fill:#0c0c0c;}</style></defs><title>Lesson</title><g id="Layer_2" data-name="Layer 2"><g id="Layer_1-2" data-name="Layer 1"><text class="cls-1" transform="translate(7.94 60.88)">Lesson</text><path class="cls-2" d="M22.49,39.61,13.37,24.7a2.29,2.29,0,0,0-3.91,0L.34,39.61a2.28,2.28,0,0,0,2,3.48H20.54A2.28,2.28,0,0,0,22.49,39.61Z"/><path class="cls-3" d="M46.84,6.89v-1a1.09,1.09,0,0,0-1.09-1.09H44.44V1.09A1.1,1.1,0,0,0,44,.2a1.12,1.12,0,0,0-1-.14L40.76.83a.56.56,0,0,0-.06,1,.58.58,0,0,0,.43,0l2.18-.75V18.46l-.1,0L33,22V4.71l5.3-1.83a.56.56,0,0,0,.34-.72.55.55,0,0,0-.71-.34l-5.49,1.9-.05,0L21.84.06a1.12,1.12,0,0,0-1,.14,1.13,1.13,0,0,0-.46.89v3.7H19.08A1.09,1.09,0,0,0,18,5.88v1H14a2.44,2.44,0,0,0-2.44,2.44v2.52a.56.56,0,0,0,1.12,0V9.33A1.32,1.32,0,0,1,14,8h4V9.72H15a.54.54,0,0,0-.4.16.54.54,0,0,0-.17.4V32.91a.56.56,0,0,0,.56.56H49.86a.54.54,0,0,0,.4-.16.54.54,0,0,0,.17-.4V10.28a.58.58,0,0,0-.57-.57h-3V8h4a1.32,1.32,0,0,1,1.32,1.32V33.85a1.33,1.33,0,0,1-1.32,1.33H14a1.32,1.32,0,0,1-1.32-1.32v-19a.56.56,0,1,0-1.12,0v19A2.51,2.51,0,0,0,11.84,35l.11.21H10.3a1.88,1.88,0,0,0-1.88,1.88v2.08A1.88,1.88,0,0,0,10.3,41H38.42a.56.56,0,1,0,0-1.12H10.3a.76.76,0,0,1-.76-.76V37.06a.76.76,0,0,1,.76-.76H27.8V37a1.63,1.63,0,0,0,1.62,1.62h6A1.62,1.62,0,0,0,37,37V36.3h17.5a.76.76,0,0,1,.76.76v2.08a.76.76,0,0,1-.76.76h-13a.56.56,0,0,0,0,1.12h13a1.89,1.89,0,0,0,1.89-1.88V37.06a1.89,1.89,0,0,0-1.89-1.88H52.88L53,35a2.4,2.4,0,0,0,.27-1.12V9.33a2.45,2.45,0,0,0-2.45-2.44ZM43.7,19.51a1.09,1.09,0,0,0,.74-1V5.91h1.28V22.26h-10ZM21.52,1.14l.19.07,10.14,3.5V22L31.66,22l-10.14-3.5ZM19.11,5.91h1.28V18.48a1.09,1.09,0,0,0,.74,1l7.94,2.75h-10ZM49.3,10.84V32.35H15.53V10.84H18V22.29a1.09,1.09,0,0,0,1.09,1.09H45.75a1.09,1.09,0,0,0,1.09-1.09V10.84ZM35.91,37a.49.49,0,0,1-.5.49h-6a.5.5,0,0,1-.5-.49V36.3h7Z"/><path class="cls-4" d="M41.71,25.69H23.12a.56.56,0,0,0-.56.56.57.57,0,0,0,.56.57H41.71a.57.57,0,0,0,.56-.57A.56.56,0,0,0,41.71,25.69Z"/><path class="cls-4" d="M35.18,28.69H23.12a.56.56,0,0,0-.56.56.57.57,0,0,0,.56.57H35.18a.57.57,0,0,0,.56-.57A.56.56,0,0,0,35.18,28.69Z"/></g></g></svg>