<svg xmlns="http://www.w3.org/2000/svg" viewBox="0 0 86.45 73.21"><defs><style>.cls-1{font-size:14px;font-family:Poppins-Regular, Poppins;letter-spacing:0.02em;}.cls-2{fill:#d9d5f4;}.cls-3{fill:#4531cb;}</style></defs><title>Localisation</title><g id="Layer_2" data-name="Layer 2"><g id="Layer_1-2" data-name="Layer 1"><text class="cls-1" transform="translate(0 65.21)">Localisation</text><path class="cls-2" d="M43,44.26,33.91,29.34a2.29,2.29,0,0,0-3.9,0L20.88,44.26a2.29,2.29,0,0,0,1.95,3.48H41.08A2.28,2.28,0,0,0,43,44.26Z"/><path class="cls-3" d="M40.17,0A16.27,16.27,0,0,0,23.92,16.25c0,3.67,1.3,7.85,4,12.77a123.75,123.75,0,0,0,8,12.25l0,0c1.28,1.81,2.5,3.51,3.56,5.1a.81.81,0,0,0,1.3,0c1.06-1.58,2.26-3.27,3.53-5l.06-.09a123.65,123.65,0,0,0,8-12.24c2.68-4.92,4-9.1,4-12.77A16.27,16.27,0,0,0,40.17,0ZM54.86,16.25c0,3.41-1.24,7.34-3.79,12a122.69,122.69,0,0,1-8,12.14c-.85,1.19-1.66,2.32-2.42,3.42l-.51.74-.51-.74c-.76-1.1-1.57-2.23-2.44-3.44a125.23,125.23,0,0,1-7.94-12.12c-2.56-4.68-3.8-8.61-3.8-12a14.69,14.69,0,1,1,29.38,0Z"/><path class="cls-3" d="M40.17,8.44A7.81,7.81,0,1,0,48,16.25,7.81,7.81,0,0,0,40.17,8.44Zm6.25,7.81A6.25,6.25,0,1,1,40.17,10,6.25,6.25,0,0,1,46.42,16.25Z"/></g></g></svg>