<svg xmlns="http://www.w3.org/2000/svg" viewBox="0 0 95.07 97.92"><defs><style>.cls-1{font-size:14px;font-family:Poppins-Regular, Poppins;letter-spacing:0.02em;}.cls-2{fill:#d9d5f4;}.cls-3{fill:#0c0c0c;}.cls-4{fill:#4531cb;}</style></defs><title>Manipulation Arm Robot</title><g id="Layer_2" data-name="Layer 2"><g id="Layer_1-2" data-name="Layer 1"><text class="cls-1" transform="translate(0 73.48)">Manipulation<tspan x="9.37" y="16.44">Arm Robot</tspan></text><path class="cls-2" d="M38.39,49.44,29.27,34.53a2.3,2.3,0,0,0-3.91,0L16.24,49.44a2.29,2.29,0,0,0,2,3.49H36.44A2.29,2.29,0,0,0,38.39,49.44Z"/><path class="cls-3" d="M39.58,35.59a2.14,2.14,0,1,0-2.14-2.14A2.14,2.14,0,0,0,39.58,35.59Zm0-3.1a1,1,0,1,1-1,1A1,1,0,0,1,39.58,32.49Z"/><path class="cls-3" d="M33.12,19.93A2.14,2.14,0,1,0,31,22.07,2.13,2.13,0,0,0,33.12,19.93Zm-3.1,0a1,1,0,1,1,1,1A1,1,0,0,1,30,19.93Z"/><path class="cls-3" d="M49.58,7.21a2.14,2.14,0,1,0-2.13-2.14A2.14,2.14,0,0,0,49.58,7.21Zm0-3.1a1,1,0,1,1-1,1A1,1,0,0,1,49.58,4.11Z"/><path class="cls-4" d="M26.72,47.92H53.55a.59.59,0,0,0,.59-.59V44.14a2.91,2.91,0,0,0-2.92-2.91H48.34l-.05-.06-3.87-5.41,0-.08a4.61,4.61,0,0,0,.43-1.35,5.31,5.31,0,0,0-1.12-4.18L35.9,20.5l.11-.09,12.45-9.88.08,0,11.61,4.78,0,4.65,0,0a3.5,3.5,0,0,0-.26,4.18l0,.08-2.86,4.14a.59.59,0,0,0,0,.67L59,31.83a.6.6,0,0,0,.82.14.59.59,0,0,0,.15-.81l-1.65-2.39,2.47-3.59.12.08a3.64,3.64,0,0,0,4.18,0l.12-.08,2.47,3.59L66,31.16a.6.6,0,0,0,.16.82.6.6,0,0,0,.81-.15l1.88-2.73a.6.6,0,0,0,0-.67h0L66,24.29l0-.08A3.55,3.55,0,0,0,65.77,20l0,0V15.05l0,0a4.33,4.33,0,0,0,.37-.52,3.51,3.51,0,0,0-1-4.53L52.72,1A5.29,5.29,0,0,0,45,2.72a5.57,5.57,0,0,0-.58,1.57v.07l-.06,0,0,0,0,0L30.83,15.1h0a4.83,4.83,0,0,0-1.36,9.4l0,0,0,.06,5.4,11.2a6.31,6.31,0,0,0,.38.64l0,.08L32,41.23h-2.9a2.91,2.91,0,0,0-2.91,2.91v3.19A.58.58,0,0,0,26.72,47.92ZM63,24.76a2.47,2.47,0,1,1,2.46-2.46A2.47,2.47,0,0,1,63,24.76ZM61.32,19V15.82l.46.19a3.49,3.49,0,0,0,2.6,0l.19-.08V19l-.2-.08a3.62,3.62,0,0,0-2.85,0ZM46,3.3A4.13,4.13,0,0,1,52,2l12.42,9a2.32,2.32,0,0,1-1.34,4.19,2.23,2.23,0,0,1-.88-.18L48.08,9.09a4.11,4.11,0,0,1-2.32-2.44A4.06,4.06,0,0,1,46,3.3ZM44.38,5.86l0,.25a6.57,6.57,0,0,0,.23.93A5.26,5.26,0,0,0,47.05,9.9l.18.11L35.75,19.12l0-.23a4.84,4.84,0,0,0-3-3.48l-.24-.09ZM27.31,19.93A3.66,3.66,0,1,1,31,23.59,3.67,3.67,0,0,1,27.31,19.93Zm3.59,4.84h.22A4.8,4.8,0,0,0,35.34,22l.1-.21.15.18,7.26,8.91a4.17,4.17,0,0,1,.87,3.25A4.11,4.11,0,0,1,41.87,37a4.17,4.17,0,0,1-2.21.64,4,4,0,0,1-1.13-.16A4.13,4.13,0,0,1,36,35.27Zm5.22,12.64.12.11a5,5,0,0,0,2,1A5.32,5.32,0,0,0,42.49,38a5,5,0,0,0,1.12-1l.12-.14,3.16,4.4H33.39Zm-8.81,6.73a1.74,1.74,0,0,1,1.74-1.74H51.22A1.74,1.74,0,0,1,53,44.14v2.6H27.31Z"/></g></g></svg>