<svg xmlns="http://www.w3.org/2000/svg" viewBox="0 0 57.79 78.96"><defs><style>.cls-1{font-size:14px;font-family:Poppins-Regular, Poppins;letter-spacing:0.02em;}.cls-2{fill:#d9d5f4;}.cls-3{fill:#4531cb;}.cls-4{fill:#0c0c0c;}</style></defs><title>Map</title><g id="Layer_2" data-name="Layer 2"><g id="Layer_1-2" data-name="Layer 1"><text class="cls-1" transform="translate(13.93 70.95)">Map</text><path class="cls-2" d="M22.49,48.58,13.37,33.67a2.29,2.29,0,0,0-3.91,0L.34,48.58a2.29,2.29,0,0,0,2,3.48H20.54A2.29,2.29,0,0,0,22.49,48.58Z"/><path class="cls-3" d="M54.25,5.81H43.77V5.69a6.37,6.37,0,0,0-12.67,0v.12H11.57A3.58,3.58,0,0,0,8,9.34V46.21a3.54,3.54,0,0,0,3.53,3.54H54.25a3.74,3.74,0,0,0,3.54-3.54V9.34A3.58,3.58,0,0,0,54.25,5.81ZM37.42,1.21a5.16,5.16,0,0,1,5.16,5.15,17.83,17.83,0,0,1-2,7.28c-1.25,2.46-2.53,3.78-3.11,3.78s-1.73-1-3.14-3.92a18.39,18.39,0,0,1-2-7.14A5.16,5.16,0,0,1,37.42,1.21ZM9.25,9.34a2.37,2.37,0,0,1,.23-1l.08-.16.12.13,8.07,8.06-.09.09L9.25,24.86Zm2.32,39.2a2.33,2.33,0,0,1-2.32-2.33V34.13l0,0L22.38,21l.09.08L49.92,48.54Zm45-2.54-.21-.21L42.24,31.67l.08-.09L56.57,16.87Zm0-30.88,0,0L41,31.25a.61.61,0,0,0,0,.86L56.25,47.4l-.06.08a2.32,2.32,0,0,1-1.94,1.06H51.64l0,0L22.81,19.71a.6.6,0,0,0-.86,0L9.25,32.41V26.57l0,0L19,16.79a.61.61,0,0,0,.17-.43.63.63,0,0,0-.17-.43L10.42,7.32l.16-.08a2.27,2.27,0,0,1,1-.22h4.3l0,0L37.06,28.21a.62.62,0,0,0,.43.18h0a.58.58,0,0,0,.43-.18l9.26-9.44a.58.58,0,0,0,.18-.45.76.76,0,0,0-.2-.4.58.58,0,0,0-.85,0l-8.83,9-.09-.08L17.59,7H31.08v.11A21.63,21.63,0,0,0,33.19,14c2,4,3.49,4.6,4.23,4.6,1.75,0,3.51-3.11,4.19-4.45a19.94,19.94,0,0,0,2.15-7V7H54.25A2.32,2.32,0,0,1,56,7.84l.08.09L56,8l-6.8,6.93a.58.58,0,0,0,0,.85.56.56,0,0,0,.84,0l6.48-6.61Z"/><path class="cls-4" d="M37.42,9.83a3.31,3.31,0,1,0-3.29-3.3A3.3,3.3,0,0,0,37.42,9.83Zm0-5.39a2.09,2.09,0,1,1-2.08,2.09A2.09,2.09,0,0,1,37.42,4.44Z"/><path class="cls-4" d="M16.27,34.37a19.68,19.68,0,0,0,2.14,7.69c2,4,3.49,4.59,4.23,4.59,1.74,0,3.51-3.11,4.19-4.44A18.83,18.83,0,0,0,29,34.37a6.32,6.32,0,0,0-.66-2.83.61.61,0,0,0-1.09.55,5,5,0,0,1,.54,2.28,17.7,17.7,0,0,1-2.06,7.29c-1.24,2.45-2.52,3.78-3.1,3.78s-1.73-1-3.14-3.92a18.47,18.47,0,0,1-2-7.15,5.16,5.16,0,0,1,5.16-5.14,5.11,5.11,0,0,1,2.15.47.61.61,0,0,0,.51-1.1A6.25,6.25,0,0,0,22.64,28,6.37,6.37,0,0,0,16.27,34.37Z"/><path class="cls-4" d="M22.64,31.24a3.3,3.3,0,1,0,3.3,3.3A3.29,3.29,0,0,0,22.64,31.24Zm0,5.39a2.09,2.09,0,1,1,2.08-2.09A2.09,2.09,0,0,1,22.64,36.63Z"/></g></g></svg>