<svg xmlns="http://www.w3.org/2000/svg" viewBox="0 0 94.13 77.14"><defs><style>.cls-1{font-size:14px;font-family:Poppins-Regular, Poppins;letter-spacing:0.02em;}.cls-2{fill:#d9d5f4;}.cls-3{fill:#0c0c0c;}.cls-4{fill:#4531cb;}</style></defs><title>Mobile Robot</title><g id="Layer_2" data-name="Layer 2"><g id="Layer_1-2" data-name="Layer 1"><text class="cls-1" transform="translate(0 69.13)">Mobile Robot</text><path class="cls-2" d="M38.59,45.1,29.46,30.19a2.28,2.28,0,0,0-3.9,0L16.43,45.1a2.29,2.29,0,0,0,2,3.48H36.64A2.29,2.29,0,0,0,38.59,45.1Z"/><path class="cls-3" d="M34.57,30.62a5.88,5.88,0,1,0,5.88,5.88A5.88,5.88,0,0,0,34.57,30.62Zm0,10.72a4.85,4.85,0,1,1,4.85-4.84A4.84,4.84,0,0,1,34.57,41.34Z"/><path class="cls-3" d="M62.9,32.15A5.11,5.11,0,1,0,68,37.26,5.11,5.11,0,0,0,62.9,32.15Zm0,9.19A4.08,4.08,0,1,1,67,37.26,4.08,4.08,0,0,1,62.9,41.34Z"/><path class="cls-4" d="M52.18,41.34H46.05a.52.52,0,0,0,0,1h6.13a.52.52,0,0,0,0-1Z"/><path class="cls-4" d="M52.22,31.79h0l-6.12-.4h0a.52.52,0,0,0-.52.48.51.51,0,0,0,.13.37.47.47,0,0,0,.35.18l6.13.41a.55.55,0,0,0,.57-.5A.52.52,0,0,0,52.22,31.79Z"/><path class="cls-4" d="M68.27,31.12l-.3-.26.36-.16a2.07,2.07,0,0,0,1.21-1.86V24.25a5.9,5.9,0,0,0-5.88-5.88H56.21l-.07-.07L46,8.69h8.77l.06.16a2.06,2.06,0,0,0,1.92,1.37h9.95a1.29,1.29,0,0,0,1.13-.69l.06-.11.12,0a4.2,4.2,0,0,0,3-4.29A4.2,4.2,0,0,0,68,.82l-.12,0L67.85.69A1.28,1.28,0,0,0,66.72,0H56.77a2,2,0,0,0-1.92,1.36l-.06.17H38.4a5.11,5.11,0,0,0-.54,10.19H38l.06.09,4.72,6.55H28.45a2.81,2.81,0,0,0-2.81,2.81v5.38a2.82,2.82,0,0,0,1.7,2.59l1.39.59-.28.26a8.93,8.93,0,0,0,6.11,15.43H62.9a8.16,8.16,0,0,0,5.37-14.31ZM68,1.8l.37.22A3.36,3.36,0,0,1,70,5.12,3.36,3.36,0,0,1,68.38,8.2L68,8.42Zm-12.25.25a1,1,0,0,1,1-1H67V9.19H56.77a1,1,0,0,1-1-1Zm-1,.51v5.1H44.94L43.5,6.28V6.19A5.13,5.13,0,0,0,42,3l-.44-.43ZM34.32,6.64a4.08,4.08,0,1,1,4.08,4.08A4.08,4.08,0,0,1,34.32,6.64Zm4.89,5.05.37-.08A5.14,5.14,0,0,0,43.31,8l.11-.39,11.3,10.73H44l-.07-.1ZM27.75,28.2a1.78,1.78,0,0,1-1.08-1.64V21.18a1.78,1.78,0,0,1,1.78-1.78H63.66a4.87,4.87,0,0,1,4.85,4.85v4.59a1,1,0,0,1-1,1l-1.21,0a8.21,8.21,0,0,0-3.34-.74L35.51,27.61c-.33,0-.64-.05-.94-.05A8.77,8.77,0,0,0,29.8,29l-.11.07Zm6.54,16.19a7.91,7.91,0,0,1-5-13.77,8,8,0,0,1,6.11-2,7.91,7.91,0,0,1-.81,15.77Zm4.52,0,.69-.46a8.9,8.9,0,0,0,.4-14.6l-.67-.5,20,1.08-.67.42A8.15,8.15,0,0,0,58.22,44l.65.45Zm26.82-.54a7.31,7.31,0,0,1-2.74.54,7.13,7.13,0,1,1,2.74-.54Z"/><path class="cls-3" d="M61.36,4.09h3.07a.52.52,0,0,0,0-1H61.36a.52.52,0,0,0,0,1Z"/><path class="cls-3" d="M58.3,4.09a.52.52,0,1,0-.51-.51A.51.51,0,0,0,58.3,4.09Z"/></g></g></svg>