<svg xmlns="http://www.w3.org/2000/svg" viewBox="0 0 77.91 74.57"><defs><style>.cls-1{font-size:14px;font-family:Poppins-Regular, Poppins;letter-spacing:0.02em;}.cls-2{fill:#d9d5f4;}.cls-3{fill:#0c0c0c;}.cls-4{fill:#4531cb;}</style></defs><title>Perception</title><g id="Layer_2" data-name="Layer 2"><g id="Layer_1-2" data-name="Layer 1"><text class="cls-1" transform="translate(0 66.56)">Perception</text><path class="cls-2" d="M29.05,45.61,19.92,30.7a2.28,2.28,0,0,0-3.9,0L6.9,45.61a2.28,2.28,0,0,0,1.95,3.48H27.1A2.29,2.29,0,0,0,29.05,45.61Z"/><path class="cls-3" d="M21.28,15.09a.52.52,0,0,0,.62-.36,12.51,12.51,0,0,1,8.86-8.86.52.52,0,0,0,.32-.24.51.51,0,0,0-.19-.7.49.49,0,0,0-.39,0,13.53,13.53,0,0,0-9.59,9.59A.51.51,0,0,0,21.28,15.09Z"/><path class="cls-3" d="M64.47,18a.51.51,0,0,0-.51-.52H55.65l2.13-2.12a.52.52,0,0,0,0-.73.51.51,0,0,0-.37-.15.51.51,0,0,0-.36.15l-3,3a.48.48,0,0,0-.15.36.51.51,0,0,0,.15.36l3,3a.54.54,0,0,0,.73,0,.51.51,0,0,0,0-.72l-2.13-2.13H64A.51.51,0,0,0,64.47,18Z"/><path class="cls-3" d="M30.77,30a12.54,12.54,0,0,1-8.87-8.87.52.52,0,0,0-.23-.31.59.59,0,0,0-.26-.07l-.13,0A.49.49,0,0,0,21,21a.58.58,0,0,0-.05.39A13.55,13.55,0,0,0,30.5,31a.52.52,0,0,0,.63-.37.5.5,0,0,0-.05-.38A.49.49,0,0,0,30.77,30Z"/><path class="cls-4" d="M64,25.54,51.5,22.2l.08-.25a15.44,15.44,0,0,0,.67-7c0-.38-.12-.77-.21-1.18l0-.23.22-.06L64,10.36a.52.52,0,0,0-.27-1L51.74,12.57l-.07-.22a16.79,16.79,0,0,0-2.18-4.51A17.73,17.73,0,0,0,43.16,2.2a19,19,0,0,0-9-2.2A18,18,0,0,0,21.42,30.78l.07.08v14a.51.51,0,0,0,.51.52H45.78a.52.52,0,0,0,.52-.52V39.73h1.5a4.45,4.45,0,0,0,4.33-4.34V32.84h5a.5.5,0,0,0,.45-.27.51.51,0,0,0,0-.52L52,23.39l11.71,3.14a.51.51,0,0,0,.63-.36v0a.56.56,0,0,0-.06-.36A.49.49,0,0,0,64,25.54ZM51.07,14.08a14.57,14.57,0,0,1-.49,7.63l-.07.22L35.65,18,51,13.83ZM33.54,18.44l8.67,2.33-.1.25a8.69,8.69,0,1,1,0-6.15l.09.26-8.66,2.32a.51.51,0,0,0-.38.5A.5.5,0,0,0,33.54,18.44ZM56.2,31.82H51.62a.51.51,0,0,0-.51.51v3.06a3.45,3.45,0,0,1-3.32,3.31h-2a.51.51,0,0,0-.51.51v5.17H22.52V30.64a.55.55,0,0,0-.16-.38A17,17,0,0,1,34.13,1,17.18,17.18,0,0,1,48.64,8.42a15.66,15.66,0,0,1,2,4.17l.08.24-3.88,1-.07-.22a13.66,13.66,0,0,0-9.35-8.77.49.49,0,0,0-.39,0,.52.52,0,0,0-.23.31.49.49,0,0,0,0,.39.53.53,0,0,0,.31.24,12.65,12.65,0,0,1,8.61,8l.08.25-2.69.72-.08-.21a9.72,9.72,0,1,0,0,6.59L43.2,21l2.69.73-.08.24a12.52,12.52,0,0,1-8.61,8,.51.51,0,0,0,.26,1,13.69,13.69,0,0,0,9.35-8.78l.07-.22,3.62,1,0,.08Z"/></g></g></svg>