<svg xmlns="http://www.w3.org/2000/svg" viewBox="0 0 50.92 74.26"><defs><style>.cls-1{font-size:14px;font-family:Poppins-Regular, Poppins;letter-spacing:0.02em;}.cls-2{fill:#d9d5f4;}.cls-3{fill:#0c0c0c;}.cls-4{fill:#4531cb;}</style></defs><title>Setting</title><g id="Layer_2" data-name="Layer 2"><g id="Layer_1-2" data-name="Layer 1"><text class="cls-1" transform="translate(0 66.26)">Setting</text><path class="cls-2" d="M24.73,43.88,15.61,29a2.29,2.29,0,0,0-3.91,0L2.58,43.88a2.29,2.29,0,0,0,2,3.48H22.78A2.29,2.29,0,0,0,24.73,43.88Z"/><path class="cls-3" d="M15.2,26.55a6.93,6.93,0,1,0,13.85,0,.63.63,0,0,0-1.25,0,5.68,5.68,0,1,1-5.68-5.67.63.63,0,1,0,0-1.25A6.94,6.94,0,0,0,15.2,26.55Z"/><path class="cls-4" d="M36,28.68l-2.31.4a.65.65,0,0,0-.5.46,11.34,11.34,0,0,1-1.14,2.74.63.63,0,0,0,0,.67l1.36,1.93a1.15,1.15,0,0,1-.13,1.48l-1.39,1.39a1.16,1.16,0,0,1-1.49.13l-1.93-1.35a.63.63,0,0,0-.67,0,11.34,11.34,0,0,1-2.74,1.14.61.61,0,0,0-.45.49l-.41,2.32a1.17,1.17,0,0,1-1.14,1h-2a1.15,1.15,0,0,1-1.14-1l-.41-2.32a.61.61,0,0,0-.45-.49A11.34,11.34,0,0,1,16.4,36.5a.63.63,0,0,0-.67,0L13.8,37.88a1.16,1.16,0,0,1-1.49-.13l-1.39-1.39a1.17,1.17,0,0,1-.13-1.48L12.15,33a.63.63,0,0,0,0-.67A11.68,11.68,0,0,1,11,29.54a.64.64,0,0,0-.49-.46l-2.32-.4a1.16,1.16,0,0,1-1-1.14v-2a1.15,1.15,0,0,1,1-1.14L10.55,24a.63.63,0,0,0,.49-.45,11.34,11.34,0,0,1,1.14-2.74.63.63,0,0,0,0-.67L10.8,18.23a1.13,1.13,0,0,1,.13-1.48l1.39-1.4a1.15,1.15,0,0,1,1.48-.12l1.93,1.35a.63.63,0,0,0,.67,0,11.75,11.75,0,0,1,2.74-1.14.61.61,0,0,0,.45-.49L20,12.66a.62.62,0,0,0-.1-.46.63.63,0,0,0-.41-.26A.62.62,0,0,0,19,12a.63.63,0,0,0-.26.41l-.34,1.93-.27.09a12.48,12.48,0,0,0-1.77.74l-.26.13-1.61-1.13a2.39,2.39,0,0,0-3.08.27L10,15.87A2.4,2.4,0,0,0,9.77,19l1.13,1.6-.13.26A12.6,12.6,0,0,0,10,22.59l-.09.27L8,23.2a2.4,2.4,0,0,0-2,2.37v2a2.4,2.4,0,0,0,2,2.37H8l1.93.34.09.27a12.48,12.48,0,0,0,.74,1.77l.14.26L9.77,34.16A2.4,2.4,0,0,0,10,37.24l1.39,1.39a2.4,2.4,0,0,0,3.09.27l1.6-1.13.26.14a12.43,12.43,0,0,0,1.77.73l.28.1.33,1.93a2.4,2.4,0,0,0,2.37,2h2a2.39,2.39,0,0,0,2.37-2l.34-1.93.27-.09a12.48,12.48,0,0,0,1.77-.74l.26-.13,1.61,1.13a2.4,2.4,0,0,0,3.08-.27l1.39-1.39a2.4,2.4,0,0,0,.27-3.09l-1.12-1.6.13-.26a12,12,0,0,0,.74-1.77l.09-.27,1.93-.34a.61.61,0,0,0,.4-.26.64.64,0,0,0,.11-.46.63.63,0,0,0-.26-.41A.65.65,0,0,0,36,28.68Z"/><path class="cls-4" d="M47,10.05l-1.44-.26-.09-.27A10.59,10.59,0,0,0,45,8.36l-.13-.26.85-1.2a2,2,0,0,0-.23-2.59L44.37,3.2A2,2,0,0,0,41.77,3l-1.2.84-.25-.13a11.64,11.64,0,0,0-1.17-.49l-.27-.09-.25-1.43a2,2,0,0,0-2-1.68H35.08a2,2,0,0,0-2,1.68l-.26,1.44-.27.09a9.83,9.83,0,0,0-1.16.49l-.26.13L29.94,3a2,2,0,0,0-2.6.22L26.25,4.3A2,2,0,0,0,26,6.9l.84,1.2-.13.26a12,12,0,0,0-.49,1.17l-.09.27-1.44.25A2,2,0,0,0,23,12v1.55a2,2,0,0,0,1.67,2l1.44.25.1.27a8.52,8.52,0,0,0,.49,1.17l.12.26L26,18.74a2,2,0,0,0,.22,2.6l1.1,1.09a2,2,0,0,0,2.6.23l1.2-.84.26.12a10,10,0,0,0,1.17.49l.27.1L33.09,24a2,2,0,0,0,2,1.68h1.56a2,2,0,0,0,2-1.68l.25-1.44.27-.09a10,10,0,0,0,1.17-.49l.26-.13,1.19.85a2,2,0,0,0,2.6-.23l1.1-1.09a2,2,0,0,0,.23-2.6l-.84-1.2.12-.26a10,10,0,0,0,.49-1.17l.09-.27L47,15.59a2,2,0,0,0,1.68-2V12A2,2,0,0,0,47,10.05Zm.43,3.55a.78.78,0,0,1-.64.77L45,14.69a.64.64,0,0,0-.5.45,8.79,8.79,0,0,1-.88,2.13.63.63,0,0,0,0,.67l1.07,1.52a.78.78,0,0,1-.09,1l-1.1,1.1a.8.8,0,0,1-1,.08L41,20.57a.63.63,0,0,0-.67,0,8.63,8.63,0,0,1-2.13.88.66.66,0,0,0-.45.5l-.32,1.83a.78.78,0,0,1-.77.65H35.08a.79.79,0,0,1-.77-.65L34,21.92a.61.61,0,0,0-.45-.49,8.66,8.66,0,0,1-2.13-.89.63.63,0,0,0-.67,0l-1.52,1.07a.78.78,0,0,1-1-.09l-1.09-1.09a.79.79,0,0,1-.09-1l1.06-1.52a.61.61,0,0,0,0-.67,9,9,0,0,1-.88-2.13.61.61,0,0,0-.49-.44l-1.83-.33a.77.77,0,0,1-.65-.77V12a.79.79,0,0,1,.65-.77L26.76,11a.63.63,0,0,0,.49-.45,9,9,0,0,1,.88-2.13.63.63,0,0,0,0-.67L27,6.18a.78.78,0,0,1,.09-1l1.09-1.1a.79.79,0,0,1,1-.08l1.52,1.06a.62.62,0,0,0,.67,0,9,9,0,0,1,2.12-.88A.64.64,0,0,0,34,3.72l.32-1.83a.8.8,0,0,1,.76-.65h1.55a.78.78,0,0,1,.77.65l.32,1.83a.62.62,0,0,0,.46.49,8.75,8.75,0,0,1,2.12.89.62.62,0,0,0,.67,0L42.49,4a.79.79,0,0,1,1,.09l1.09,1.09a.79.79,0,0,1,.09,1L43.61,7.7a.64.64,0,0,0,0,.68,8.56,8.56,0,0,1,.88,2.12A.65.65,0,0,0,45,11l1.83.32a.77.77,0,0,1,.64.77Z"/><path class="cls-3" d="M35.86,8a4.81,4.81,0,1,0,4.8,4.81A4.82,4.82,0,0,0,35.86,8Zm0,8.37a3.57,3.57,0,0,1,0-7.13l.35,0a3.56,3.56,0,0,1-.35,7.1Z"/></g></g></svg>