<svg xmlns="http://www.w3.org/2000/svg" viewBox="0 0 63.96 78.84"><defs><style>.cls-1{font-size:14px;font-family:Poppins-Regular, Poppins;letter-spacing:0.02em;}.cls-2{fill:#d9d5f4;}.cls-3{fill:#4531cb;}.cls-4{fill:#0c0c0c;}</style></defs><title>Software</title><g id="Layer_2" data-name="Layer 2"><g id="Layer_1-2" data-name="Layer 1"><text class="cls-1" transform="translate(0 70.84)">Software</text><path class="cls-2" d="M2.7,46.8l9.13-14.91a2.29,2.29,0,0,1,3.9,0L24.85,46.8a2.29,2.29,0,0,1-2,3.49H4.65A2.3,2.3,0,0,1,2.7,46.8Z"/><path class="cls-3" d="M9,2V37.71a2,2,0,0,0,2,2h5v5a2,2,0,0,0,2,2H59.65a2,2,0,0,0,2-2V8.92a2,2,0,0,0-2-1.95h-5V2a2,2,0,0,0-2-1.95H10.9A2,2,0,0,0,9,2ZM60.13,15H54.64V8.45h5a.47.47,0,0,1,.47.47ZM17.39,39.68H52.68a2,2,0,0,0,2-2V16.45h5.49V44.69a.47.47,0,0,1-.47.47H17.86a.47.47,0,0,1-.47-.47Zm-7-30.19H53.16V37.72a.46.46,0,0,1-.47.47H10.89a.46.46,0,0,1-.46-.47Zm0-7.55a.45.45,0,0,1,.46-.46h41.8a.46.46,0,0,1,.47.46V8H10.43Z"/><path class="cls-4" d="M45.82,3.83H48.9a.78.78,0,0,1,.79.67.74.74,0,0,1-.74.8H45.77A.73.73,0,0,1,45,4.5.76.76,0,0,1,45.82,3.83Z"/><path class="cls-4" d="M15,3.83H41.63a.78.78,0,0,1,.79.67.74.74,0,0,1-.74.8H14.94a.74.74,0,0,1-.74-.8A.78.78,0,0,1,15,3.83Z"/><path class="cls-4" d="M37.82,19.23l6.6,3.37a.82.82,0,0,1,.45.74.84.84,0,0,1-.45.74l-6.6,3.4A.59.59,0,0,1,37,27a.6.6,0,0,1,.33-.54l6.08-3v0l-6.08-3a.6.6,0,0,1-.33-.54h0A.6.6,0,0,1,37.82,19.23Z"/><path class="cls-4" d="M29.71,16.3h0a.59.59,0,0,1,.56.39l4.22,11a.61.61,0,0,1-.56.82.6.6,0,0,1-.56-.39l-4.26-11A.6.6,0,0,1,29.71,16.3Z"/><path class="cls-4" d="M19.29,22.6l6.6-3.37a.61.61,0,0,1,.88.54h0a.6.6,0,0,1-.34.54l-6.12,3s0,0,0,0l6.12,3a.6.6,0,1,1-.54,1.07l-6.6-3.4a.83.83,0,0,1,0-1.48Z"/></g></g></svg>