<svg xmlns="http://www.w3.org/2000/svg" viewBox="0 0 92.4 77.62"><defs><style>.cls-1{font-size:14px;font-family:Poppins-Regular, Poppins;letter-spacing:0.02em;}.cls-2{fill:#d9d5f4;}.cls-3{fill:#4531cb;}.cls-4{fill:#0c0c0c;}</style></defs><title>Visualisation</title><g id="Layer_2" data-name="Layer 2"><g id="Layer_1-2" data-name="Layer 1"><text class="cls-1" transform="translate(0 69.61)">Visualisation</text><path class="cls-2" d="M36,45.52,26.92,30.61a2.28,2.28,0,0,0-3.9,0L13.89,45.52A2.29,2.29,0,0,0,15.84,49H34.09A2.28,2.28,0,0,0,36,45.52Z"/><path class="cls-3" d="M69.32,0H26.69a.52.52,0,0,0-.52.52v45.2a.52.52,0,0,0,.52.53H69.32a.53.53,0,0,0,.53-.53V.52A.52.52,0,0,0,69.32,0Zm-.53,1.06V45.19H27.22V1.06Z"/><path class="cls-4" d="M48,30.5a5.38,5.38,0,1,0,5.37,5.37A5.38,5.38,0,0,0,48,30.5Zm1.67,8.06A1.67,1.67,0,1,1,48,36.89,1.68,1.68,0,0,1,49.68,38.56Zm-4.35,0a2.32,2.32,0,0,0,.05.51l.06.32-.25-.21a4.37,4.37,0,1,1,5.63,0l-.24.21.06-.32a2.94,2.94,0,0,0,0-.51,2.68,2.68,0,1,0-5.36,0Z"/><path class="cls-3" d="M57.92,32.4l1.59-2a.51.51,0,0,0-.8-.62l-1.55,2-.09-.07a13.46,13.46,0,0,0-1.81-1.26l-.09,0,1-2.13a.51.51,0,1,0-.92-.42l-.94,2.08-.11-.05A14.15,14.15,0,0,0,52.11,29L52,29l.43-2.16a.51.51,0,0,0-.07-.38.55.55,0,0,0-.32-.22.5.5,0,0,0-.38.08.49.49,0,0,0-.22.32L51,28.75l-.12,0a13.5,13.5,0,0,0-2.33-.28h-.11V26.39a.51.51,0,0,0-1,0v2.05h-.11a15.14,15.14,0,0,0-2.27.28l-.11,0-.4-2.07a.52.52,0,0,0-.22-.32.51.51,0,0,0-.38-.08.49.49,0,0,0-.32.22.5.5,0,0,0-.08.38L44,29l-.1,0a13.63,13.63,0,0,0-2.07.8l-.1.05-.94-2.12a.52.52,0,0,0-.67-.26.51.51,0,0,0-.25.67l1,2.18-.08.05A14.19,14.19,0,0,0,38.9,31.7l-.1.08-1.48-2.19a.5.5,0,0,0-.42-.22.51.51,0,0,0-.49.41.51.51,0,0,0,.07.38L38,32.46l-.07.06a14.1,14.1,0,0,0-2.42,3.1.52.52,0,0,0,0,.51,14.39,14.39,0,0,0,24.92,0,.52.52,0,0,0,0-.51A14.12,14.12,0,0,0,58,32.47Zm1.52,3.47,0,.06a13.37,13.37,0,0,1-22.8,0l0-.06,0-.06a13.39,13.39,0,0,1,22.8,0Z"/><path class="cls-3" d="M62,24.41h4.26a.5.5,0,0,0,.5-.51V6.76a.5.5,0,0,0-.5-.51H62a.51.51,0,0,0-.51.51V23.9A.51.51,0,0,0,62,24.41Zm.5-1V7.27h3.25V23.4Z"/><path class="cls-3" d="M54.71,24.41H59a.5.5,0,0,0,.5-.51V11.27a.5.5,0,0,0-.5-.51H54.71a.51.51,0,0,0-.5.51V23.9A.51.51,0,0,0,54.71,24.41Zm.51-1V11.77h3.25V23.4Z"/><path class="cls-3" d="M51.7,24.41a.5.5,0,0,0,.5-.51V17.14a.5.5,0,0,0-.5-.51H47.44a.51.51,0,0,0-.51.51V23.9a.51.51,0,0,0,.51.51Zm-.51-6.77V23.4H47.94V17.64Z"/><path class="cls-4" d="M46.91,14.94h0a.51.51,0,0,0,.33-.13L58.58,4.75l-.09,1.71A.51.51,0,0,0,59,7a.51.51,0,0,0,.52-.48l.15-2.93a.52.52,0,0,0-.09-.29v0h0V3.21h0l0,0a.52.52,0,0,0-.27-.1l-2.92-.14a.47.47,0,0,0-.36.12.53.53,0,0,0-.17.36.49.49,0,0,0,.13.36.53.53,0,0,0,.35.17L57.88,4l-11.28,10a.51.51,0,0,0-.17.34.5.5,0,0,0,.13.37A.49.49,0,0,0,46.91,14.94Z"/><path class="cls-3" d="M36.16,21.65a6.92,6.92,0,0,0,6.91-6.91.51.51,0,0,0-.51-.51h-5.9V8.34a.5.5,0,0,0-.5-.51,6.91,6.91,0,1,0,0,13.82Zm0-6.4H42v.12a5.9,5.9,0,1,1-6.49-6.49l.12,0v5.88A.51.51,0,0,0,36.16,15.25Z"/><path class="cls-4" d="M38.3,13.1h6.4a.51.51,0,0,0,.52-.5s0,0,0-.06v0A6.94,6.94,0,0,0,38.3,5.69a.5.5,0,0,0-.5.5V12.6A.5.5,0,0,0,38.3,13.1Zm.51-1V6.72h.12A5.93,5.93,0,0,1,44.16,12l0,.12Z"/></g></g></svg>